<?xml version="1.0" standalone="no"?>
<!DOCTYPE svg PUBLIC "-//W3C//DTD SVG 1.1//EN" "http://www.w3.org/Graphics/SVG/1.1/DTD/svg11.dtd" >
<svg xmlns="http://www.w3.org/2000/svg" xmlns:xlink="http://www.w3.org/1999/xlink" version="1.1">
<metadata>
Created by FontForge 20141024 at Wed May 20 14:19:45 2015
 By System Administrator
(c) A.Bannour, 1994
</metadata>
<defs>
<font id="AXtNawelFont" horiz-adv-x="0" >
  <font-face 
    font-family="AXtNawel"
    font-weight="400"
    font-stretch="normal"
    units-per-em="1000"
    panose-1="0 0 4 0 0 0 0 0 0 0"
    ascent="730"
    descent="-270"
    bbox="-103 -384 2141.01 1105"
    underline-thickness="50"
    underline-position="-75"
    unicode-range="U+F020-F100"
  />
<missing-glyph horiz-adv-x="500" 
d="M63 0v730h375v-730h-375zM125 63h250v605h-250v-605z" />
    <glyph glyph-name=".notdef" horiz-adv-x="500" 
d="M63 0v730h375v-730h-375zM125 63h250v605h-250v-605z" />
    <glyph glyph-name=".null" 
 />
    <glyph glyph-name="nonmarkingreturn" horiz-adv-x="250" 
 />
    <glyph glyph-name="space" unicode="&#xf020;" horiz-adv-x="250" 
 />
    <glyph glyph-name="Eth" 
 />
    <glyph glyph-name="eth" 
 />
    <glyph glyph-name="Lslash" 
 />
    <glyph glyph-name="lslash" 
 />
    <glyph glyph-name="Scaron" 
 />
    <glyph glyph-name="scaron" 
 />
    <glyph glyph-name="Yacute" 
 />
    <glyph glyph-name="LF" 
 />
    <glyph glyph-name="Thorn" 
 />
    <glyph glyph-name="thorn" horiz-adv-x="1000" 
 />
    <glyph glyph-name="Zcaron" 
 />
    <glyph glyph-name="zcaron" 
 />
    <glyph glyph-name="DLE" 
 />
    <glyph glyph-name="DC1" 
 />
    <glyph glyph-name="DC2" 
 />
    <glyph glyph-name="DC3" 
 />
    <glyph glyph-name="DC4" 
 />
    <glyph glyph-name="onehalf" 
 />
    <glyph glyph-name="onequarter" 
 />
    <glyph glyph-name="onesuperior" 
 />
    <glyph glyph-name="threequarters" 
 />
    <glyph glyph-name="threesuperior" 
 />
    <glyph glyph-name="twosuperior" 
 />
    <glyph glyph-name="brokenbar" 
 />
    <glyph glyph-name="minus" 
 />
    <glyph glyph-name="RS" 
 />
    <glyph glyph-name="US" 
 />
    <glyph glyph-name="exclam" unicode="&#xf021;" horiz-adv-x="222" 
d="M150 160h-84v540h84v-540zM46 50q0 25 18 43.5t44 18.5q27 0 44.5 -18.5t17.5 -43.5t-17.5 -43.5t-44.5 -18.5q-26 0 -44 18.5t-18 43.5z" />
    <glyph glyph-name="quotedbl" unicode="&#xf022;" horiz-adv-x="780" 
d="M292 666q26 3 46 -12.5t23 -40.5q3 -26 -12 -45.5t-40 -23.5q-26 -4 -46.5 12t-23.5 41q-3 26 12.5 46t40.5 23zM424 666q26 3 46 -12.5t23 -40.5q3 -26 -12 -45.5t-40 -23.5q-26 -4 -46.5 12t-23.5 41q-3 26 12.5 46t40.5 23zM358 786q26 3 46 -12.5t23 -40.5
q3 -26 -12 -45.5t-40 -23.5q-26 -4 -46.5 12t-23.5 41q-3 26 12.5 46t40.5 23zM-24 90h623q35 0 45 24q7 14 7 53q0 119 -104 192q-83 59 -165 58q-62 -1 -127 -52q-75 -58 -76 -134q105 -2 359 1q-5 -8 -36 -56q-10 -17 -19 -34l-403 -2q-8 93 8 141q32 95 115.5 159
t181.5 64q143 0 250 -93.5t106 -216.5q-1 -101 -28.5 -140t-100.5 -49q-41 -5 -199 -5h-437v90z" />
    <glyph glyph-name="numbersign" unicode="&#xf023;" horiz-adv-x="604" 
d="M221 686q26 3 46 -12.5t23 -40.5q3 -26 -12 -45.5t-40 -23.5q-26 -4 -46.5 12t-23.5 41q-3 26 12.5 46t40.5 23zM353 686q26 3 46 -12.5t23 -40.5q3 -26 -12 -45.5t-40 -23.5q-26 -4 -46.5 12t-23.5 41q-3 26 12.5 46t40.5 23zM287 806q26 3 46 -12.5t23 -40.5
q3 -26 -12 -45.5t-40 -23.5q-26 -4 -46.5 12t-23.5 41q-3 26 12.5 46t40.5 23zM-20 0v90h91q-20 19 -27 39q-11 28 -11 87q0 127 60 206q71 92 210 90q133 -2 204 -88q64 -79 64 -208q0 -90 -38 -126h91v-90h-644zM457 126q15 20 20 45q3 18 4 73q3 177 -188 180
q-90 1 -134 -57q-36 -46 -36 -121q0 -53 4 -74q4 -26 20 -46q24 -30 45 -34q9 -2 90 -2q96 0 110 2q42 5 65 34z" />
    <glyph glyph-name="dollar" unicode="&#xf024;" horiz-adv-x="556" 
d="M326 782v-82h135v-84h-135v-177q38 -25 77 -51q41 -29 60 -58q25 -37 25 -90q0 -73 -47 -110q-43 -34 -115 -34v-108h-76v108h-160v84h160v192q-38 23 -75 46q-43 28 -63 56q-26 36 -26 84q0 68 48 106q45 36 116 36v82h76zM250 470v146q-76 0 -76 -63q0 -40 76 -83z
M326 337v-157q74 0 74 64q0 32 -25 56q-4 5 -49 37z" />
    <glyph glyph-name="percent" unicode="&#xf025;" horiz-adv-x="889" 
d="M46 548q0 71 51 119q48 45 113 45t114 -45q50 -48 50 -119t-49.5 -117.5t-114.5 -46.5t-113 45q-51 48 -51 119zM124 548q0 -37 25.5 -61.5t60.5 -24.5t60.5 24.5t25.5 61.5t-25.5 61.5t-60.5 24.5t-60.5 -24.5t-25.5 -61.5zM695 712l-465 -724h-62l465 724h62zM490 152
q0 71 51 119q48 45 113 45t114 -45q50 -48 50 -119t-49.5 -117.5t-114.5 -46.5t-113 45q-51 48 -51 119zM568 152q0 -37 25.5 -61.5t60.5 -24.5t60.5 24.5t25.5 61.5t-25.5 61.5t-60.5 24.5t-60.5 -24.5t-25.5 -61.5z" />
    <glyph glyph-name="ampersand" unicode="&#xf026;" horiz-adv-x="1280" 
d="M872 694q26 3 46 -12.5t23 -40.5q3 -26 -12 -45.5t-40 -23.5q-26 -4 -46.5 12t-23.5 41q-3 26 12.5 46t40.5 23zM1004 694q26 3 46 -12.5t23 -40.5q3 -26 -12 -45.5t-40 -23.5q-26 -4 -46.5 12t-23.5 41q-3 26 12.5 46t40.5 23zM938 814q26 3 46 -12.5t23 -40.5
q3 -26 -12 -45.5t-40 -23.5q-26 -4 -46.5 12t-23.5 41q-3 26 12.5 46t40.5 23zM1102 126q15 19 18 46q1 11 1 74q0 175 -183 178q-90 1 -134 -57q-36 -46 -36 -121q0 -53 4 -74q4 -26 20 -46q24 -30 45 -34q9 -2 90 -2q96 0 110 2q42 5 65 34zM716 90q-20 19 -27 39
q-11 28 -11 87q0 127 60 206q71 92 210 90q133 -2 204 -88q64 -79 64 -208q0 -90 -38 -126h127v-90h-750q-221 0 -166 -1q-94 2 -140 13q-228 57 -228 240q0 110 82 190t206 80q13 0 24 -33q14 -40 24 -51l-100 -16q-64 -13 -96 -44q-44 -41 -44 -120q0 -114 144 -156
q38 -11 110 -13q-29 1 118 1h227z" />
    <glyph glyph-name="quotesingle" unicode="&#xf027;" horiz-adv-x="222" 
d="M70 430v270h82v-270h-82z" />
    <glyph glyph-name="parenleft" unicode="&#xf028;" horiz-adv-x="352" 
d="M316 721q-178 -137 -178 -398q0 -246 178 -388l-40 -54q-103 72 -161 197q-55 118 -55 250q0 134 56 254q59 124 164 199z" />
    <glyph glyph-name="parenright" unicode="&#xf029;" horiz-adv-x="389" 
d="M64 721l36 60q105 -75 164 -199q56 -120 56 -254q0 -132 -55 -250q-58 -125 -161 -197l-40 54q178 142 178 388q0 261 -178 398z" />
    <glyph glyph-name="asterisk" unicode="&#xf02a;" horiz-adv-x="519" 
d="M54 65l148 148l-148 148l62 62l148 -148l148 148l62 -62l-148 -148l148 -148l-62 -62l-148 148l-148 -148z" />
    <glyph glyph-name="plus" unicode="&#xf02b;" horiz-adv-x="600" 
d="M47 297h209v209h88v-209h209v-88h-209v-209h-88v209h-209v88z" />
    <glyph glyph-name="comma" unicode="&#xf02c;" horiz-adv-x="278" 
d="M208 232l-37 -139l42 -3l1 -90h-157l73 232h78z" />
    <glyph glyph-name="hyphen" unicode="&#xf02d;" horiz-adv-x="278" 
d="M39 324h200v-88h-200v88z" />
    <glyph glyph-name="period" unicode="&#xf02e;" horiz-adv-x="278" 
d="M139 156q35 0 59 -24t24 -59q0 -34 -24 -58.5t-59 -24.5q-34 0 -58.5 24.5t-24.5 58.5q0 35 24.5 59t58.5 24z" />
    <glyph glyph-name="slash" unicode="&#xf02f;" horiz-adv-x="574" 
d="M127 -16h-101l421 744h101z" />
    <glyph glyph-name="zero" unicode="&#xf030;" horiz-adv-x="556" 
d="M33 246v208q0 116 73 189q70 69 172 69t172 -69q73 -73 73 -189v-208q0 -116 -73 -189q-70 -69 -172 -69t-172 69q-73 73 -73 189zM135 454v-208q0 -78 37 -121t106 -43t106 43t37 121v208q0 78 -37 121t-106 43t-106 -43t-37 -121z" />
    <glyph glyph-name="one" unicode="&#xf031;" horiz-adv-x="528" 
d="M130 712h186v-712h-91v624h-120z" />
    <glyph glyph-name="two" unicode="&#xf032;" horiz-adv-x="556" 
d="M510 88v-88h-384q-94 0 -94 74q0 25 15 43q9 12 48 42l246 193q76 60 76 138q0 59 -39.5 96.5t-98.5 37.5q-67 0 -104.5 -40.5t-37.5 -107.5q0 -52 41 -90q38 -37 91 -42l-82 -65q-146 54 -146 210q0 100 75 163q71 60 173 60q93 0 158.5 -64t65.5 -157q0 -79 -45 -140
q-32 -45 -115 -109l-195 -152v-2h352z" />
    <glyph glyph-name="three" unicode="&#xf033;" horiz-adv-x="556" 
d="M45 0v88h231q66 0 104 39q35 36 35 93q0 53 -43.5 86.5t-120.5 33.5h-109v70l219 208h-300v88h303q99 0 99 -76q0 -34 -25 -65q-15 -20 -59 -57l-94 -80q100 -2 163 -57t63 -148q0 -99 -59.5 -161t-149.5 -62h-257z" />
    <glyph glyph-name="four" unicode="&#xf034;" horiz-adv-x="556" 
d="M265 706h104l-252 -456h210v308l88 150q6 10 7 10q1 -1 1 -14v-454h105v-88h-105v-162h-96v162h-250q-67 0 -67 58q0 18 30 73z" />
    <glyph glyph-name="five" unicode="&#xf035;" horiz-adv-x="556" 
d="M86 706h366v-88h-270v-188h85q116 0 182 -55q69 -58 69 -165q0 -83 -56 -144q-60 -66 -151 -66h-255v88h229q63 0 97 34t34 90q0 130 -155 130h-175v364z" />
    <glyph glyph-name="six" unicode="&#xf036;" horiz-adv-x="556" 
d="M240 410l55 80q113 -3 177 -75q60 -68 60 -177q0 -100 -73 -174q-76 -76 -185 -76q-104 0 -177 72t-73 177q0 62 27 119q15 31 64 102l171 248h116l-218 -312q-34 -49 -47 -79q-17 -40 -17 -86q0 -62 46.5 -107.5t109.5 -45.5q65 0 112.5 47t47.5 113q0 86 -54.5 131
t-141.5 43z" />
    <glyph glyph-name="seven" unicode="&#xf037;" horiz-adv-x="556" 
d="M44 618v88h351q108 0 108 -72q0 -26 -18 -71q-1 -2 -42 -95l-207 -468h-110l274 618h-356z" />
    <glyph glyph-name="eight" unicode="&#xf038;" horiz-adv-x="556" 
d="M29 210q0 115 112 186q-66 61 -66 142q0 68 55 119q58 55 148 55q87 0 142 -46q57 -49 57 -128q0 -80 -62 -142q112 -59 112 -186q0 -92 -64 -154q-69 -68 -185 -68t-185 68q-64 62 -64 154zM131 211q0 -61 41 -98t106 -37t106 37t41 98t-41 98t-106 37t-106 -37t-41 -98
zM177 529q0 -41 27.5 -68t71.5 -27t71.5 27t27.5 68t-27.5 68t-71.5 27t-71.5 -27t-27.5 -68z" />
    <glyph glyph-name="nine" unicode="&#xf039;" horiz-adv-x="556" 
d="M316 290l-55 -80q-113 3 -177 75q-60 68 -60 177q0 100 74.5 175t183.5 75q104 0 177 -72t73 -177q0 -62 -27 -119q-16 -34 -64 -102l-171 -242h-116l218 306q34 48 47 79q17 39 17 86q0 62 -46.5 107.5t-109.5 45.5q-65 0 -112.5 -47t-47.5 -113q0 -86 56 -132
q53 -44 140 -42z" />
    <glyph glyph-name="colon" unicode="&#xf03a;" horiz-adv-x="278" 
d="M80 53q0 25 17.5 42t41.5 17t41.5 -17t17.5 -42t-17.5 -42t-41.5 -17t-41.5 17t-17.5 42zM77 311q0 25 17.5 42t41.5 17t41.5 -17t17.5 -42t-17.5 -42t-41.5 -17t-41.5 17t-17.5 42z" />
    <glyph glyph-name="semicolon" unicode="&#xf03b;" horiz-adv-x="278" 
d="M211 442l-42 -196h-94l58 196h78zM178 52q0 -25 -17.5 -42t-41.5 -17t-41.5 17t-17.5 42t17.5 42t41.5 17t41.5 -17t17.5 -42z" />
    <glyph glyph-name="less" unicode="&#xf03c;" horiz-adv-x="1332" 
d="M865 670q26 3 46 -12.5t23 -40.5q3 -26 -12 -45.5t-40 -23.5q-26 -4 -46.5 12t-23.5 41q-3 26 12.5 46t40.5 23zM997 670q26 3 46 -12.5t23 -40.5q3 -26 -12 -45.5t-40 -23.5q-26 -4 -46.5 12t-23.5 41q-3 26 12.5 46t40.5 23zM931 790q26 3 46 -12.5t23 -40.5
q3 -26 -12 -45.5t-40 -23.5q-26 -4 -46.5 12t-23.5 41q-3 26 12.5 46t40.5 23zM1143 90q35 0 45 24q7 14 7 53q0 119 -104 192q-83 59 -165 58q-62 -1 -127 -52q-75 -58 -76 -134q105 -2 359 1q-6 -10 -38 -57q-11 -18 -21 -35h-399q-8 93 8 141q32 95 115.5 159t181.5 64
q143 0 250 -93.5t106 -216.5q-1 -101 -28.5 -140t-100.5 -49q-41 -5 -199 -5h-402q-221 0 -166 -1q-94 2 -140 13q-228 57 -228 240q0 110 82 190t206 80q13 0 24 -33q14 -40 24 -51l-100 -16q-64 -13 -96 -44q-44 -41 -44 -120q0 -114 144 -156q38 -11 110 -13q-29 1 118 1
h654z" />
    <glyph glyph-name="equal" unicode="&#xf03d;" horiz-adv-x="600" 
d="M540 378v-78h-480v78h480zM540 180v-78h-480v78h480z" />
    <glyph glyph-name="greater" unicode="&#xf03e;" horiz-adv-x="284" 
d="M76 -152q-20 2 -33 18.5t-10 36.5q3 21 19.5 33.5t36.5 9.5q21 -3 32.5 -18.5t9.5 -36.5t-18 -33t-37 -10zM181 -152q-20 2 -32 18.5t-10 36.5q2 21 19 33.5t37 9.5t32.5 -19t9.5 -36q-3 -21 -19 -33t-37 -10zM129 -248q-21 2 -33 18t-10 37t19 33.5t37 9.5t32 -19
t10 -36q-2 -21 -18 -33t-37 -10zM-20 90h140v280h90v-370h-230v90z" />
    <glyph glyph-name="question" unicode="&#xf03f;" horiz-adv-x="407" 
d="M390 465h-86q-1 53 -25 86q-27 37 -77 37q-47 0 -75.5 -32t-28.5 -80q0 -112 132 -112h24v-203h-81v124q-72 13 -117 65.5t-45 129.5q0 78 54.5 133.5t129.5 55.5q87 0 141 -58t54 -146zM271 60q0 -23 -16.5 -40t-40.5 -17q-25 0 -41 17t-16 40t16 40t41 17
q24 0 40.5 -17t16.5 -40z" />
    <glyph glyph-name="at" unicode="&#xf040;" horiz-adv-x="519" 
d="M307 240l67 22q15 5 32 5q16 0 27 -14t11 -33q0 -34 -46 -48l-67 -21l49 -67q10 -14 10 -33t-15.5 -31t-34.5 -12q-20 0 -35 21l-48 66l-40 -58q-19 -27 -42 -27q-17 0 -33 11.5t-16 28.5q0 21 16 43l42 59l-73 23q-36 11 -36 45q0 18 12.5 33t30.5 15q13 0 28 -5l67 -23
v71q0 57 47 57t47 -57v-71z" />
    <glyph glyph-name="A" unicode="&#xf041;" horiz-adv-x="334" 
d="M57 41h19q-18 18 -18 58q0 50 43 92.5t103 42.5q31 0 81 -21l-18 -37q-34 17 -63 17q-37 0 -71 -26t-34 -55q0 -41 13 -54q10 -13 34 -16q8 -1 55 -1h96l-23 -41h-217v41z" />
    <glyph glyph-name="B" unicode="&#xf042;" 
d="M-57 807h320v-54h-287v-38h-33v92z" />
    <glyph glyph-name="C" unicode="&#xf043;" 
d="M13 772h13q-13 13 -13 42q0 36 31 66.5t74 30.5q22 0 59 -15l-13 -27q-26 13 -46 13q-26 0 -50.5 -19t-24.5 -40q0 -29 9 -38q10 -13 64 -13h69l-16 -29h-156v29z" />
    <glyph glyph-name="D" unicode="&#xf044;" 
d="M281 618h13q-13 13 -13 42q0 36 31 66.5t74 30.5q22 0 59 -15l-13 -27q-26 13 -46 13q-26 0 -50.5 -19t-24.5 -40q0 -29 9 -38q10 -13 64 -13h69l-16 -29h-156v29z" />
    <glyph glyph-name="E" unicode="&#xf045;" 
d="M13 -190h13q-13 13 -13 42q0 36 31 66.5t74 30.5q22 0 59 -15l-13 -27q-26 13 -46 13q-26 0 -50.5 -19t-24.5 -40q0 -29 9 -38q10 -13 64 -13h69l-16 -29h-156v29z" />
    <glyph glyph-name="F" unicode="&#xf046;" horiz-adv-x="344" 
d="M73 462h13q-13 13 -13 42q0 36 31 66.5t74 30.5q22 0 59 -15l-13 -27q-26 13 -46 13q-26 0 -50.5 -19t-24.5 -40q0 -29 9 -38q10 -13 64 -13h69l-16 -29h-156v29zM-20 90h140v280h90v-370h-230v90z" />
    <glyph glyph-name="G" unicode="&#xf047;" horiz-adv-x="188" 
d="M48 712h90v-712h-90v712z" />
    <glyph glyph-name="H" unicode="&#xf048;" horiz-adv-x="284" 
d="M102 -56q26 3 46 -12.5t23 -40.5q3 -26 -12 -45.5t-40 -23.5q-26 -4 -46.5 12t-23.5 41q-3 26 12.5 46t40.5 23zM-20 90h140v280h90v-370h-230v90z" />
    <glyph glyph-name="I" unicode="&#xf049;" horiz-adv-x="732" 
d="M583 415l1 11v84h92v-412q0 -32 -26 -64q-29 -34 -64 -34h-412q-15 0 -53 22q-45 27 -62.5 59.5t-21.5 52t-4 82.5q0 108 92 199q96 95 226 95q137 0 232 -95zM351 420q-81 0 -154.5 -55.5t-73.5 -118.5q0 -79 0 -75q2 -29 16 -47q22 -28 80 -33q10 -1 126 -1h205
q45 1 45 68q0 36 -11 78q-36 98 -76 135q-53 49 -157 49zM288 716q26 3 46 -12.5t23 -40.5q3 -26 -12 -45.5t-40 -23.5q-26 -4 -46.5 12t-23.5 41q-3 26 12.5 46t40.5 23zM420 716q26 3 46 -12.5t23 -40.5q3 -26 -12 -45.5t-40 -23.5q-26 -4 -46.5 12t-23.5 41
q-3 26 12.5 46t40.5 23z" />
    <glyph glyph-name="J" unicode="&#xf04a;" horiz-adv-x="284" 
d="M72 568q26 3 46 -12.5t23 -40.5q3 -26 -12 -45.5t-40 -23.5q-26 -4 -46.5 12t-23.5 41q-3 26 12.5 46t40.5 23zM204 568q26 3 46 -12.5t23 -40.5q3 -26 -12 -45.5t-40 -23.5q-26 -4 -46.5 12t-23.5 41q-3 26 12.5 46t40.5 23zM-20 90h140v280h90v-370h-230v90z" />
    <glyph glyph-name="K" unicode="&#xf04b;" horiz-adv-x="284" 
d="M72 562q26 3 46 -12.5t23 -40.5q3 -26 -12 -45.5t-40 -23.5q-26 -4 -46.5 12t-23.5 41q-3 26 12.5 46t40.5 23zM204 562q26 3 46 -12.5t23 -40.5q3 -26 -12 -45.5t-40 -23.5q-26 -4 -46.5 12t-23.5 41q-3 26 12.5 46t40.5 23zM138 682q26 3 46 -12.5t23 -40.5
q3 -26 -12 -45.5t-40 -23.5q-26 -4 -46.5 12t-23.5 41q-3 26 12.5 46t40.5 23zM-20 90h140v280h90v-370h-230v90z" />
    <glyph glyph-name="L" unicode="&#xf04c;" horiz-adv-x="830" 
d="M482 -56q26 3 46 -12.5t23 -40.5q3 -26 -12 -45.5t-40 -23.5q-26 -4 -46.5 12t-23.5 41q-3 26 12.5 46t40.5 23zM545 90h-565v-90h575q97 0 157 46q67 51 67 145q0 181 -224 181h-440l-60 -92h490q133 1 133 -89q0 -101 -133 -101z" />
    <glyph glyph-name="M" unicode="&#xf04d;" horiz-adv-x="830" 
d="M545 90h-565v-90h575q97 0 157 46q67 51 67 145q0 181 -224 181h-440l-60 -92h490q133 1 133 -89q0 -101 -133 -101z" />
    <glyph glyph-name="N" unicode="&#xf04e;" horiz-adv-x="830" 
d="M482 580q26 3 46 -12.5t23 -40.5q3 -26 -12 -45.5t-40 -23.5q-26 -4 -46.5 12t-23.5 41q-3 26 12.5 46t40.5 23zM545 90h-565v-90h575q97 0 157 46q67 51 67 145q0 181 -224 181h-440l-60 -92h490q133 1 133 -89q0 -101 -133 -101z" />
    <glyph glyph-name="O" unicode="&#xf04f;" horiz-adv-x="732" 
d="M372 510q130 0 227 -95q91 -91 91 -199q0 -63 -28 -121q-46 -95 -146 -95h-438l-46 90h346q105 0 122 2q54 6 76 34q15 19 17 46q1 7 1 74q0 63 -70.5 118.5t-151.5 55.5q-102 0 -157 -59q-39 -41 -77 -145h-95q7 24 23 78q30 90 98 147q84 69 208 69z" />
    <glyph glyph-name="P" unicode="&#xf050;" horiz-adv-x="732" 
d="M372 510q130 0 227 -95q91 -91 91 -199q0 -63 -28 -121q-46 -95 -146 -95h-438l-46 90h346q105 0 122 2q54 6 76 34q15 19 17 46q1 7 1 74q0 63 -70.5 118.5t-151.5 55.5q-102 0 -157 -59q-39 -41 -77 -145h-95q7 24 23 78q30 90 98 147q84 69 208 69zM207 694
q26 3 46 -12.5t23 -40.5q3 -26 -12 -45.5t-40 -23.5q-26 -4 -46.5 12t-23.5 41q-3 26 12.5 46t40.5 23z" />
    <glyph glyph-name="Q" unicode="&#xf051;" horiz-adv-x="384" 
d="M234 372h90v-316q0 -74 -27 -135q-24 -53 -56 -72q-64 -49 -278 -49l17 92q126 0 172 15q82 27 82 116v349z" />
    <glyph glyph-name="R" unicode="&#xf052;" horiz-adv-x="384" 
d="M256 572q26 3 46 -12.5t23 -40.5q3 -26 -12 -45.5t-40 -23.5q-26 -4 -46.5 12t-23.5 41q-3 26 12.5 46t40.5 23zM234 372h90v-316q0 -74 -27 -135q-24 -53 -56 -72q-64 -49 -278 -49l17 92q126 0 172 15q82 27 82 116v349z" />
    <glyph glyph-name="S" unicode="&#xf053;" horiz-adv-x="398" 
d="M371 0h-382v90h102v343l90 46v-389h100v332l90 46v-468z" />
    <glyph glyph-name="T" unicode="&#xf054;" horiz-adv-x="396" 
d="M171 717q3 -26 -12 -45.5t-40 -23.5q-26 -4 -46.5 12t-23.5 41q-3 26 12.5 46t40.5 23q26 3 46 -12.5t23 -40.5zM237 597q3 -26 -12 -45.5t-40 -23.5q-26 -4 -46.5 12t-23.5 41q-3 26 12.5 46t40.5 23q26 3 46 -12.5t23 -40.5zM105 597q3 -26 -12 -45.5t-40 -23.5
q-26 -4 -46.5 12t-23.5 41q-3 26 12.5 46t40.5 23q26 3 46 -12.5t23 -40.5zM371 0h-382v90h102v329l90 46v-375h100v332l90 46v-468z" />
    <glyph glyph-name="U" unicode="&#xf055;" horiz-adv-x="792" 
d="M739 191q0 -94 -67 -145q-60 -46 -157 -46h-532v90h522q133 0 133 101q0 90 -133 89h-490v92h500q224 0 224 -181z" />
    <glyph glyph-name="V" unicode="&#xf056;" horiz-adv-x="792" 
d="M318 527q3 -26 -12 -45.5t-40 -23.5q-26 -4 -46.5 12t-23.5 41q-3 26 12.5 46t40.5 23q26 3 46 -12.5t23 -40.5zM739 191q0 -94 -67 -145q-60 -46 -157 -46h-532v90h522q133 0 133 101q0 90 -133 89h-490v92h500q224 0 224 -181z" />
    <glyph glyph-name="W" unicode="&#xf057;" horiz-adv-x="954" 
d="M80 90v622l90 -1v-621h510q133 0 133 101q0 90 -133 89h-490v92h500q224 0 224 -181q0 -94 -67 -145q-60 -46 -157 -46h-710v90h100z" />
    <glyph glyph-name="X" unicode="&#xf058;" horiz-adv-x="970" 
d="M80 90v622l90 -1v-621h510q133 0 133 101q0 90 -133 89h-490v92h500q224 0 224 -181q0 -94 -67 -145q-60 -46 -157 -46h-710v90h100zM422 568q26 3 46 -12.5t23 -40.5q3 -26 -12 -45.5t-40 -23.5q-26 -4 -46.5 12t-23.5 41q-3 26 12.5 46t40.5 23z" />
    <glyph glyph-name="Y" unicode="&#xf059;" horiz-adv-x="732" 
d="M-20 90h91q-20 19 -27 39q-11 28 -11 87q0 108 92 199q96 95 226 95q124 0 208 -69q68 -57 98 -147q9 -28 23 -78h-95q-38 104 -76 145q-56 59 -158 59q-81 0 -154.5 -55.5t-73.5 -118.5q0 -53 4 -74q4 -26 20 -46q22 -28 76 -34q17 -2 122 -2h346l-46 -90h-665v90z" />
    <glyph glyph-name="Z" unicode="&#xf05a;" horiz-adv-x="732" 
d="M-20 90h91q-20 19 -27 39q-11 28 -11 87q0 108 92 199q96 95 226 95q124 0 208 -69q68 -57 98 -147q9 -28 23 -78h-95q-38 104 -76 145q-56 59 -158 59q-81 0 -154.5 -55.5t-73.5 -118.5q0 -53 4 -74q4 -26 20 -46q22 -28 76 -34q17 -2 122 -2h346l-46 -90h-665v90z
M306 718q26 3 46 -12.5t23 -40.5q3 -26 -12 -45.5t-40 -23.5q-26 -4 -46.5 12t-23.5 41q-3 26 12.5 46t40.5 23z" />
    <glyph glyph-name="bracketleft" unicode="&#xf05b;" horiz-adv-x="389" 
d="M103 763h174v-876h-174v46h86v784h-86v46z" />
    <glyph glyph-name="backslash" unicode="&#xf05c;" horiz-adv-x="278" 
d="M-62 712h78l324 -724h-78z" />
    <glyph glyph-name="bracketright" unicode="&#xf05d;" horiz-adv-x="316" 
d="M221 763v-46h-86v-784h86v-46h-174v876h174z" />
    <glyph glyph-name="asciicircum" unicode="&#xf05e;" horiz-adv-x="222" 
d="M192 97l-73 -232h-78l37 139l-18 3l-1 90h133z" />
    <glyph glyph-name="underscore" unicode="&#xf05f;" horiz-adv-x="504" 
d="M32 192v90h420l-2 -90h-418zM224 462q26 3 46 -12.5t23 -40.5q3 -26 -12 -45.5t-40 -23.5q-26 -4 -46.5 12t-23.5 41q-3 26 12.5 46t40.5 23zM216 122q26 3 46 -12.5t23 -40.5q3 -26 -12 -45.5t-40 -23.5q-26 -4 -46.5 12t-23.5 41q-3 26 12.5 46t40.5 23z" />
    <glyph glyph-name="grave" unicode="&#xf060;" horiz-adv-x="220" 
d="M-20 0l-12 90h264l18 -90h-270z" />
    <glyph glyph-name="a" unicode="&#xf061;" horiz-adv-x="822" 
d="M381 706q26 3 46 -12.5t23 -40.5q3 -26 -12 -45.5t-40 -23.5q-26 -4 -46.5 12t-23.5 41q-3 26 12.5 46t40.5 23zM-24 90h623q35 0 45 24q7 14 7 53q0 119 -104 192q-83 59 -165 58q-62 -1 -127 -52q-75 -58 -76 -134q105 -2 359 1q-5 -8 -36 -56q-10 -17 -19 -34l-403 -2
q-8 93 8 141q32 95 115.5 159t181.5 64q143 0 250 -93.5t106 -216.5q-1 -101 -28.5 -140t-100.5 -49q-41 -5 -199 -5h-437v90z" />
    <glyph glyph-name="b" unicode="&#xf062;" horiz-adv-x="822" 
d="M300 706q26 3 46 -12.5t23 -40.5q3 -26 -12 -45.5t-40 -23.5q-26 -4 -46.5 12t-23.5 41q-3 26 12.5 46t40.5 23zM432 706q26 3 46 -12.5t23 -40.5q3 -26 -12 -45.5t-40 -23.5q-26 -4 -46.5 12t-23.5 41q-3 26 12.5 46t40.5 23zM-24 90h623q35 0 45 24q7 14 7 53
q0 119 -104 192q-83 59 -165 58q-62 -1 -127 -52q-75 -58 -76 -134q105 -2 359 1q-5 -8 -36 -56q-10 -17 -19 -34l-403 -2q-8 93 8 141q32 95 115.5 159t181.5 64q143 0 250 -93.5t106 -216.5q-1 -101 -28.5 -140t-100.5 -49q-41 -5 -199 -5h-437v90z" />
    <glyph glyph-name="c" unicode="&#xf063;" horiz-adv-x="986" 
d="M190 280h490q133 1 133 -89q0 -101 -133 -101h-700v-90h710q97 0 157 46q67 51 67 145q0 181 -224 181h-426l549 237l24 108l-651 -279q-86 -37 -86 -94q0 -27 24.5 -45.5t65.5 -18.5z" />
    <glyph glyph-name="d" unicode="&#xf064;" horiz-adv-x="284" 
d="M-20 90h140v622h90v-712h-230v90z" />
    <glyph glyph-name="e" unicode="&#xf065;" horiz-adv-x="494" 
d="M257 329q88 0 144 -55q60 -60 60 -157q0 -30 -5 -62q-5 -27 -31 -63q-52 -72 -96 -72q-14 0 -27 8q-68 40 -154 88l13 100l68.5 -43.5t91.5 -48.5q50 10 50 95q0 55 -34.5 90t-95.5 35q-55 0 -81 -26q-22 -22 -34 -75l-14 -78q-11 -38 -46 -56q-18 -9 -61 -9h-25v90h25
q35 0 35 14q0 90 41 148q55 77 176 77z" />
    <glyph glyph-name="f" unicode="&#xf066;" horiz-adv-x="284" 
d="M150 568q26 3 46 -12.5t23 -40.5q3 -26 -12 -45.5t-40 -23.5q-26 -4 -46.5 12t-23.5 41q-3 26 12.5 46t40.5 23zM-20 90h140v280h90v-370h-230v90z" />
    <glyph glyph-name="g" unicode="&#xf067;" horiz-adv-x="776" 
d="M324 503v39l90 41v-73q129 0 226 -95q91 -91 91 -199q0 -82 -37 -140q-48 -76 -146 -76h-568v90h91q-20 19 -27 39q-11 28 -11 87q0 94 77 175q83 88 214 112zM617 126q28 35 24 120q-3 59 -77.5 116t-149.5 57v-329q99 0 127 3q55 7 76 33zM324 90v323
q-74 1 -137.5 -55.5t-63.5 -111.5q0 -88 24 -120q27 -36 177 -36z" />
    <glyph glyph-name="h" unicode="&#xf068;" horiz-adv-x="704" 
d="M352 516q153 0 235 -127q69 -107 69 -263q0 -201 -85 -269q-64 -51 -241 -55q-24 -1 -100 1q-12 17 -58 90q27 0 77.5 -1t72.5 -1q165 0 198 49q46 68 46 178q0 136 -51 218q-56 92 -163 90q-216 -4 -216 -234q0 -58 31 -82q26 -20 86 -20h242l-62 -90h-135
q-148 0 -196 32q-56 38 -56 160q0 143 99 238q91 86 207 86z" />
    <glyph glyph-name="i" unicode="&#xf069;" horiz-adv-x="1162" 
d="M385 -51h539q33 0 56 2q57 4 58 14q5 43 -6 49.5t-108 6.5h-349q-52 0 -95 15q-46 16 -64 43q-8 12 -16 25q-2 4 -3 27q-3 49 38 111q44 66 109.5 100t180.5 34q30 0 72 -3q48 -3 138 -40q80 -32 116 -57l-31 -75q-38 24 -102 52q-81 36 -125 40q-19 2 -42 2
q-111 0 -179 -33q-47 -22 -65.5 -51t-18.5 -79q0 -19 63 -21q-9 0 120 0h259q90 0 116 -5q80 -16 80 -118q0 -23 -4 -50t-61 -48t-129 -21h-531q-220 0 -306 36q-95 39 -95 145q0 151 100.5 244.5t276.5 93.5v-82q-161 0 -235 -91q-52 -65 -52 -158q0 -63 65 -86
q62 -22 230 -22z" />
    <glyph glyph-name="j" unicode="&#xf06a;" horiz-adv-x="284" 
d="M72 -60q26 3 46 -12.5t23 -40.5q3 -26 -12 -45.5t-40 -23.5q-26 -4 -46.5 12t-23.5 41q-3 26 12.5 46t40.5 23zM204 -60q26 3 46 -12.5t23 -40.5q3 -26 -12 -45.5t-40 -23.5q-26 -4 -46.5 12t-23.5 41q-3 26 12.5 46t40.5 23zM-20 90h140v280h90v-370h-230v90z" />
    <glyph glyph-name="k" unicode="&#xf06b;" 
d="M168 862q-26 -8 -72 -20q-59 -16 -149 -36q6 30 18 37q3 3 47 13q74 24 181 51q-5 -25 -25 -45zM180 798q-26 -8 -72 -20q-59 -16 -149 -36q6 30 18 37q3 3 47 13q74 24 181 51q-5 -25 -25 -45z" />
    <glyph glyph-name="l" unicode="&#xf06c;" 
d="M-58 768q24 26 47.5 52t23.5 40q0 8 -6 14q-2 4 -19 16t-22 12q-6 0 -20 -28l-22 14q26 44 37 44q9 0 40 -18q37 -22 37 -51q0 -25 -27 -58q-7 -9 -26 -31q83 17 110 24q59 16 64.5 30.5t1.5 29.5q-9 34 -14 41q-6 12 -20 12q-18 0 -33 -7q-22 -10 -17 -31q3 -11 5 -22
q2 -6 9 -6q14 0 56 14l-9 -29q0 -2 -19.5 -7t-31.5 -5q-17 0 -25 12q-5 8 -11 36q-2 8 -2 15q0 28 27 44q23 14 52 14q26 0 39 -19q10 -15 20 -54q3 -12 3 -22q0 -25 -21 -40q-11 -8 -54 -27q-8 -4 -152 -32q-9 8 -21 23z" />
    <glyph glyph-name="m" unicode="&#xf06d;" 
d="M176 -264q-26 -8 -72 -20q-59 -16 -149 -36q6 30 18 37q3 3 47 13q74 23 181 51q-5 -25 -25 -45zM188 -328q-26 -8 -72 -20q-59 -16 -149 -36q6 30 18 37q3 3 47 13q74 23 181 51q-5 -25 -25 -45z" />
    <glyph glyph-name="n" unicode="&#xf06e;" 
d="M166 804q-26 -8 -72 -20q-59 -16 -149 -36q6 30 18 37q3 3 47 13q74 24 181 51q-5 -25 -25 -45z" />
    <glyph glyph-name="o" unicode="&#xf06f;" 
d="M94 921q26 0 39 -19q10 -15 20 -54q3 -12 3 -23q0 -54 -75 -66q-8 -1 -125 -16l-19 28q100 10 114 12q68 10 75 28q5 14 1 29q-9 34 -14 41q-6 12 -20 12q-18 0 -33 -7q-22 -10 -17 -31q3 -11 5 -22q2 -6 9 -6q14 0 56 14l-9 -29q0 -2 -19.5 -7t-31.5 -5q-17 0 -25 12
q-5 8 -11 36q-2 8 -2 15q0 23 18 38q24 20 61 20z" />
    <glyph glyph-name="p" unicode="&#xf070;" 
d="M200 -260q-26 -8 -72 -20q-59 -16 -149 -36q6 30 18 37q3 3 47 13q74 23 181 51q-5 -25 -25 -45z" />
    <glyph glyph-name="q" unicode="&#xf071;" 
d="M13 760q-55 0 -55 70v28l29 17v-42q-1 -42 26 -42q31 0 31 42v67h29v-67q0 -42 31 -42q28 0 27 42v42l29 -17v-28q0 -70 -56 -70q-31 0 -44 18q-22 -18 -47 -18z" />
    <glyph glyph-name="r" unicode="&#xf072;" 
d="M-17 896q20 18 48 18q38 0 63 -29q21 -24 21 -56q0 -33 -22.5 -53.5t-50.5 -20.5q-39 0 -64 30q-20 24 -20 54q0 35 25 57zM-11 839q0 -22 17 -36.5t39 -14.5q15 0 26 7q13 13 13 34q0 20 -12 37q-18 17 -41 17q-18 0 -30 -13t-12 -31z" />
    <glyph glyph-name="s" unicode="&#xf073;" 
d="M2 753q-55 -6 -63 63l-5 41l1 -14l27 21l5 -42q4 -41 31 -38q31 4 26 45l-8 67l28 3l9 -66q6 -42 35 -38q28 3 22 45q-2 21 -5 41l31 -13l-2 14q0 -4 5 -42q1 -8 1 -15q0 -55 -48 -61q-33 -4 -46 13q-17 -21 -44 -24zM134 944q-26 -8 -72 -20q-59 -16 -149 -36
q6 30 18 37q3 3 47 13q74 24 181 51q-5 -25 -25 -45z" />
    <glyph glyph-name="t" unicode="&#xf074;" 
d="M16 751q-55 -6 -63 63l-5 41l1 -14l27 21l5 -42q4 -41 31 -38q31 4 26 45l-8 67l28 3l9 -66q6 -42 35 -38q28 3 22 45q-2 21 -5 41l31 -13l-2 14q0 -4 5 -42q1 -8 1 -15q0 -55 -48 -61q-33 -4 -46 13q-17 -21 -44 -24zM54 1077q26 0 39 -19q10 -15 20 -54q3 -12 3 -23
q0 -54 -75 -66q-8 -1 -125 -16l-19 28q100 10 114 12q68 10 75 28q5 14 1 29q-9 34 -14 41q-6 12 -20 12q-18 0 -33 -7q-22 -10 -17 -31q3 -11 5 -22q2 -6 9 -6q14 0 56 14l-9 -29q0 -2 -19.5 -7t-31.5 -5q-17 0 -25 12q-5 8 -11 36q-2 8 -2 15q0 23 18 38q24 20 61 20z" />
    <glyph glyph-name="u" unicode="&#xf075;" 
d="M10 835q-55 -6 -63 63l-5 41l1 -14l27 21l5 -42q4 -41 31 -38q31 4 26 45l-8 67l28 3l9 -66q6 -42 35 -38q28 3 22 45q-2 21 -5 41l31 -13l-2 14q0 -4 5 -42q1 -8 1 -15q0 -55 -48 -61q-33 -4 -46 13q-17 -21 -44 -24zM166 810q-26 -8 -72 -20q-59 -16 -149 -36
q6 30 18 37q3 3 47 13q74 24 181 51q-5 -25 -25 -45z" />
    <glyph glyph-name="v" unicode="&#xf076;" 
d="M22 747q-55 -6 -63 63l-5 41l1 -14l27 21l5 -42q4 -41 31 -38q31 4 26 45l-8 67l28 3l9 -66q6 -42 35 -38q28 3 22 45q-2 21 -5 41l31 -13l-2 14q0 -4 5 -42q1 -8 1 -15q0 -55 -48 -61q-33 -4 -46 13q-17 -21 -44 -24zM154 938q-26 -8 -72 -20q-59 -16 -149 -36
q6 30 18 37q3 3 47 13q74 24 181 51q-5 -25 -25 -45zM154 998q-26 -8 -72 -20q-59 -16 -149 -36q6 30 18 37q3 3 47 13q74 24 181 51q-5 -25 -25 -45z" />
    <glyph glyph-name="w" unicode="&#xf077;" 
d="M20 745q-55 -6 -63 63l-5 41l1 -14l27 21l5 -42q4 -41 31 -38q31 4 26 45l-8 67l28 3l9 -66q6 -42 35 -38q28 3 22 45q-2 21 -5 41l31 -13l-2 14q0 -4 5 -42q1 -8 1 -15q0 -55 -48 -61q-33 -4 -46 13q-17 -21 -44 -24zM-74 934q24 26 47.5 52t23.5 40q0 8 -6 14
q-2 4 -19 16t-22 12q-6 0 -20 -28l-22 14q26 44 37 44q9 0 40 -18q37 -22 37 -51q0 -25 -27 -58q-8 -9 -26 -31q83 17 110 24q59 16 64.5 30.5t1.5 29.5q-9 34 -14 41q-6 12 -20 12q-18 0 -33 -7q-22 -10 -17 -31q3 -11 5 -22q2 -6 9 -6q14 0 56 14l-9 -29q0 -2 -19.5 -7
t-31.5 -5q-17 0 -25 12q-5 8 -11 36q-2 8 -2 15q0 28 27 44q23 14 52 14q26 0 39 -19q10 -15 20 -54q3 -12 3 -22q0 -25 -21 -40q-11 -8 -54 -27q-8 -4 -152 -32q-9 8 -21 23z" />
    <glyph glyph-name="x" unicode="&#xf078;" 
d="M60 871q-55 -6 -63 63l-5 41l1 -14l27 21l5 -42q4 -41 31 -38q31 4 26 45l-8 67l28 3l9 -66q6 -42 35 -38q28 3 22 45q-2 21 -5 41l31 -13l-2 14q0 -4 5 -42q1 -8 1 -15q0 -55 -48 -61q-33 -4 -46 13q-17 -21 -44 -24zM204 846q-26 -8 -72 -20q-59 -16 -149 -36
q6 30 18 37q3 3 47 13q74 24 181 51q-5 -25 -25 -45zM212 798q-26 -8 -72 -20q-59 -16 -149 -36q6 30 18 37q3 3 47 13q74 24 181 51q-5 -25 -25 -45z" />
    <glyph glyph-name="y" unicode="&#xf079;" 
d="M65 811q80 -30 93 -30q11 0 23.5 7t12.5 17q0 23 -34 23q-30 0 -95 -17zM56 814q82 56 126 56q24 0 40.5 -19t16.5 -44q0 -68 -93 -68q-27 0 -74.5 17t-67.5 17q-9 0 -35 -8l-7 8q29 47 64 47q12 0 30 -6z" />
    <glyph glyph-name="z" unicode="&#xf07a;" horiz-adv-x="666" 
d="M210 15l-129 237l129 237q15 28 40 28q36 0 36 -40q0 -8 -4 -17l-92 -208l92 -208q4 -9 4 -17q0 -37 -37 -37q-25 0 -39 25zM414 15l-129 237l129 237q15 28 40 28q36 0 36 -40q0 -8 -4 -17l-92 -208l92 -208q4 -9 4 -17q0 -37 -37 -37q-25 0 -39 25z" />
    <glyph glyph-name="braceleft" unicode="&#xf07b;" horiz-adv-x="556" 
d="M362 15q-14 -25 -39 -25q-37 0 -37 37q0 8 4 17l92 208l-92 208q-4 9 -4 17q0 40 36 40q25 0 40 -28l129 -237zM158 15q-14 -25 -39 -25q-37 0 -37 37q0 8 4 17l92 208l-92 208q-4 9 -4 17q0 40 36 40q25 0 40 -28l129 -237z" />
    <glyph glyph-name="bar" unicode="&#xf07c;" horiz-adv-x="537" 
d="M508 -289q0 -7 -11 -7q-20 0 -61 30q-127 94 -196 277q-96 0 -99 26q65 57 65 105q-20 0 -54 -27l-48 -42q-14 0 -26 77q-52 24 -52 44q0 22 49 53q0 19 5 41q7 31 19 31q65 -65 107 -68q-1 29 -25 59q-1 1 -46 47q1 23 102 29q66 190 189 286q42 33 58 33q9 0 9 -11
q0 -4 -34 -43q-100 -115 -126 -271q48 -5 47 -21q-65 -59 -67 -105q29 0 57 25q23 22 45 45q12 0 21 -33q7 -26 7 -44l7 -4q43 -21 43 -44q0 -16 -47 -45q0 -72 -25 -76q-53 60 -106 67q0 -26 25 -58q6 -8 46 -49q0 -10 -52 -22q15 -78 62 -159q29 -50 103 -130q9 -10 9 -16
zM452 670q-128 -87 -202 -306q-76 0 -79 -13q39 -34 55 -68q8 16 21 29q2 2 8 18t8 16t4.5 -13.5t4.5 -16.5q7 -10 20 -33q8 22 23 38.5t30 32.5q-1 7 -36 12q29 118 49 162q27 62 94 142zM467 202q0 11 -43 27q0 45 -12 60q-18 -16 -36 -31q-21 -19 -39 -26q80 -29 80 -35
t-35 -18l-44 -14q39 -10 77 -53q9 0 9 55q12 8 24 15q19 13 19 20zM322 197q0 24 -19 42.5t-43 18.5q-25 0 -43 -17.5t-18 -43.5q0 -25 18 -42t43 -17q24 0 43 17.5t19 41.5zM183 164q-81 34 -81 37q0 4 47 17q11 5 33 13q-26 9 -43 23.5t-35 29.5q-8 0 -8 -55
q-44 -25 -44 -35q0 -12 44 -27q0 -41 11 -60q18 17 35 33q22 18 41 24zM473 -270q-129 118 -160 302q38 0 38 11q-37 31 -59 70q-4 -11 -15 -32q-1 -1 -6.5 -15.5t-8.5 -14.5q-11 0 -34 62q-14 -34 -52 -72q11 -9 44 -9q22 0 32 2q67 -203 221 -304z" />
    <glyph glyph-name="braceright" unicode="&#xf07d;" horiz-adv-x="537" 
d="M510 214q0 -21 -49 -52q0 -19 -5 -41q-6 -32 -18 -32q-68 68 -108 68q3 -29 26 -58l44 -48q0 -13 -44 -21q-34 -7 -57 -7q-61 -186 -188 -286q-42 -33 -59 -33q-9 0 -9 10q0 5 33 43q56 65 85 126.5t42 144.5q-47 9 -47 21q66 57 66 105q-28 0 -56 -24q-9 -7 -45 -46
q-23 0 -28 78q-50 26 -50 47q0 15 47 45q0 76 26 76q57 -61 105 -67q-1 24 -26 58q-2 2 -44 49q-1 10 51 22q-30 162 -164 290q-10 10 -10 15q0 8 12 8q18 0 61 -31q124 -90 195 -276q99 0 99 -27q-63 -55 -65 -105q21 0 54 27q23 21 47 43q21 0 27 -78q52 -24 52 -44z
M360 368q-13 8 -63 8q-4 0 -14 -2q-61 199 -220 305q132 -126 159 -303q-36 0 -37 -10q40 -29 59 -71q4 12 15 35l7 17q5 13 8 13q10 0 34 -65q13 31 52 73zM484 214q0 13 -43 27q0 43 -13 61q-5 -4 -36 -31q-21 -19 -39 -27q12 -5 36 -17q2 -1 26 -10q20 -8 20 -10
q0 -6 -36 -17q-23 -7 -45 -13q36 -12 77 -53q10 0 10 55q43 22 43 35zM337 211q0 26 -17.5 42.5t-43.5 16.5q-24 0 -42.5 -17.5t-18.5 -41.5q0 -25 18 -43t43 -18q26 0 43.5 17.5t17.5 43.5zM199 176q-23 8 -45 15q-37 13 -37 18q0 3 45 20q12 5 35 14q-29 10 -76 53
q-9 0 -9 -55q-43 -21 -43 -35q0 -11 43 -27q0 -47 12 -60q22 22 75 57zM366 57q-35 26 -57 68q-4 -10 -17 -36q-15 -29 -17 -29t-9 14q-4 9 -8 19t-14 32q-8 -23 -53 -71q0 -4 15 -7q19 -4 20 -4q-25 -109 -48 -163q-30 -68 -94 -141q133 89 202 306q77 0 80 12z" />
    <glyph glyph-name="asciitilde" unicode="&#xf07e;" horiz-adv-x="732" 
d="M758 0h-680l-46 90h346q100 0 116 2q48 6 70 34q30 38 30 120q0 63 -70.5 118.5t-151.5 55.5q-102 0 -157 -59q-39 -41 -77 -145h-95q7 24 23 78q30 90 98 147q84 69 208 69q130 0 227 -95q91 -91 91 -199q0 -64 -31 -126h99v-90z" />
    <glyph glyph-name="DEL" unicode="&#xf07f;" horiz-adv-x="300" 
d="M92 -148q-20 2 -33 18.5t-10 36.5q3 21 19.5 33.5t36.5 9.5q21 -3 32.5 -18.5t9.5 -36.5t-18 -33t-37 -10zM197 -148q-20 2 -32 18.5t-10 36.5q2 21 19 33.5t37 9.5t32.5 -19t9.5 -36q-3 -21 -19 -33t-37 -10zM145 -244q-21 2 -33 18t-10 37t19 33.5t37 9.5t32 -19
t10 -36q-2 -21 -18 -33t-37 -10zM-20 90h140v280h90v-280h114v-91l-344 1v90z" />
    <glyph glyph-name="Adieresis" unicode="&#xf080;" horiz-adv-x="300" 
d="M81 482h13q-13 13 -13 42q0 36 31 66.5t74 30.5q22 0 59 -15l-13 -27q-26 13 -46 13q-26 0 -50.5 -19t-24.5 -40q0 -29 9 -38q10 -13 64 -13h69l-16 -29h-156v29zM-20 90h140v280h90v-280h114v-91l-344 1v90z" />
    <glyph glyph-name="Aring" unicode="&#xf081;" horiz-adv-x="1392" 
d="M930 97q19 1 19 27q0 23 -13 57h-312l-71 101l489 1q177 0 186 -110q7 -83 69 -83h119v-90q-165 -3 -207 -1q-33 2 -52 60q-29 89 -41 108q-9 14 -70 10q9 -51 9 -67q0 -54 -48 -85q-41 -26 -99 -25q-560 -5 -631 12q-228 54 -228 240q0 104 83 177q76 68 205 93
q8 -18 15 -33q18 -36 33 -51l-100 -20q-64 -16 -96 -46q-44 -40 -44 -114q0 -110 144 -156q34 -11 276 -11q253 0 365 6zM465 530h13q-13 13 -13 42q0 36 31 66.5t74 30.5q22 0 59 -15l-13 -27q-26 13 -46 13q-26 0 -50.5 -19t-24.5 -40q0 -29 9 -38q10 -13 64 -13h69
l-16 -29h-156v29z" />
    <glyph glyph-name="Ccedilla" unicode="&#xf082;" horiz-adv-x="1162" 
d="M113 502h13q-13 13 -13 42q0 36 31 66.5t74 30.5q22 0 59 -15l-13 -27q-26 13 -46 13q-26 0 -50.5 -19t-24.5 -40q0 -29 9 -38q10 -13 64 -13h69l-16 -29h-156v29zM385 -51h539q33 0 56 2q57 4 58 14q5 43 -6 49.5t-108 6.5h-349q-52 0 -95 15q-46 16 -64 43
q-8 12 -16 25q-2 4 -3 27q-3 49 38 111q44 66 109.5 100t180.5 34q30 0 72 -3q48 -3 138 -40q80 -32 116 -57l-31 -75q-38 24 -102 52q-81 36 -125 40q-19 2 -42 2q-111 0 -179 -33q-47 -22 -65.5 -51t-18.5 -79q0 -19 63 -21q-9 0 120 0h259q90 0 116 -5q80 -16 80 -118
q0 -23 -4 -50t-61 -48t-129 -21h-531q-220 0 -306 36q-95 39 -95 145q0 151 100.5 244.5t276.5 93.5v-82q-161 0 -235 -91q-52 -65 -52 -158q0 -63 65 -86q62 -22 230 -22z" />
    <glyph glyph-name="Eacute" unicode="&#xf083;" horiz-adv-x="256" 
d="M274 90v-90h-230v712h90v-622h140z" />
    <glyph glyph-name="Ntilde" unicode="&#xf084;" horiz-adv-x="300" 
d="M158 -56q26 3 46 -12.5t23 -40.5q3 -26 -12 -45.5t-40 -23.5q-26 -4 -46.5 12t-23.5 41q-3 26 12.5 46t40.5 23zM-20 90h140v280h90v-280h114v-91l-344 1v90z" />
    <glyph glyph-name="Odieresis" unicode="&#xf085;" horiz-adv-x="1074" 
d="M954 -56q26 3 46 -12.5t23 -40.5q3 -26 -12 -45.5t-40 -23.5q-26 -4 -46.5 12t-23.5 41q-3 26 12.5 46t40.5 23zM555 0q-221 0 -166 -1q-94 2 -140 13q-228 57 -228 240q0 110 82 190t206 80q13 0 24 -33q14 -40 24 -51l-100 -16q-64 -13 -96 -44q-44 -41 -44 -120
q0 -114 144 -156q38 -11 110 -13q-29 1 118 1h432v280h90v-280h78v-90h-534z" />
    <glyph glyph-name="Udieresis" unicode="&#xf086;" horiz-adv-x="1074" 
d="M894 -56q26 3 46 -12.5t23 -40.5q3 -26 -12 -45.5t-40 -23.5q-26 -4 -46.5 12t-23.5 41q-3 26 12.5 46t40.5 23zM555 0q-221 0 -166 -1q-94 2 -140 13q-228 57 -228 240q0 110 82 190t206 80q13 0 24 -33q14 -40 24 -51l-100 -16q-64 -13 -96 -44q-44 -41 -44 -120
q0 -114 144 -156q38 -11 110 -13q-29 1 118 1h432v280h90v-370h-456z" />
    <glyph glyph-name="aacute" unicode="&#xf087;" horiz-adv-x="732" 
d="M267 720q26 3 46 -12.5t23 -40.5q3 -26 -12 -45.5t-40 -23.5q-26 -4 -46.5 12t-23.5 41q-3 26 12.5 46t40.5 23zM399 720q26 3 46 -12.5t23 -40.5q3 -26 -12 -45.5t-40 -23.5q-26 -4 -46.5 12t-23.5 41q-3 26 12.5 46t40.5 23zM351 420q-81 0 -154.5 -55.5t-73.5 -118.5
q0 -79 0 -75q2 -29 16 -47q22 -28 80 -33q10 -1 126 -1h205q45 1 45 68q0 36 -11 78q-36 98 -76 135q-53 49 -157 49zM584 510h92v-420h72v-90h-574q-15 0 -53 22q-45 27 -62.5 59.5t-21.5 52t-4 82.5q0 108 92 199q96 95 226 95q137 0 232 -95z" />
    <glyph glyph-name="agrave" unicode="&#xf088;" horiz-adv-x="300" 
d="M72 568q26 3 46 -12.5t23 -40.5q3 -26 -12 -45.5t-40 -23.5q-26 -4 -46.5 12t-23.5 41q-3 26 12.5 46t40.5 23zM204 568q26 3 46 -12.5t23 -40.5q3 -26 -12 -45.5t-40 -23.5q-26 -4 -46.5 12t-23.5 41q-3 26 12.5 46t40.5 23zM-20 90h140v280h90v-280h114v-91l-344 1v90z
" />
    <glyph glyph-name="acircumflex" unicode="&#xf089;" horiz-adv-x="1074" 
d="M867 576q26 3 46 -12.5t23 -40.5q3 -26 -12 -45.5t-40 -23.5q-26 -4 -46.5 12t-23.5 41q-3 26 12.5 46t40.5 23zM999 576q26 3 46 -12.5t23 -40.5q3 -26 -12 -45.5t-40 -23.5q-26 -4 -46.5 12t-23.5 41q-3 26 12.5 46t40.5 23zM555 0q-221 0 -166 -1q-94 2 -140 13
q-228 57 -228 240q0 110 82 190t206 80q13 0 24 -33q14 -40 24 -51l-100 -16q-64 -13 -96 -44q-44 -41 -44 -120q0 -114 144 -156q38 -11 110 -13q-29 1 118 1h432v280h90v-280h78v-90h-534z" />
    <glyph glyph-name="adieresis" unicode="&#xf08a;" horiz-adv-x="1074" 
d="M846 568q26 3 46 -12.5t23 -40.5q3 -26 -12 -45.5t-40 -23.5q-26 -4 -46.5 12t-23.5 41q-3 26 12.5 46t40.5 23zM978 568q26 3 46 -12.5t23 -40.5q3 -26 -12 -45.5t-40 -23.5q-26 -4 -46.5 12t-23.5 41q-3 26 12.5 46t40.5 23zM555 0q-221 0 -166 -1q-94 2 -140 13
q-228 57 -228 240q0 110 82 190t206 80q13 0 24 -33q14 -40 24 -51l-100 -16q-64 -13 -96 -44q-44 -41 -44 -120q0 -114 144 -156q38 -11 110 -13q-29 1 118 1h432v280h90v-370h-456z" />
    <glyph glyph-name="atilde" unicode="&#xf08b;" horiz-adv-x="300" 
d="M72 562q26 3 46 -12.5t23 -40.5q3 -26 -12 -45.5t-40 -23.5q-26 -4 -46.5 12t-23.5 41q-3 26 12.5 46t40.5 23zM204 562q26 3 46 -12.5t23 -40.5q3 -26 -12 -45.5t-40 -23.5q-26 -4 -46.5 12t-23.5 41q-3 26 12.5 46t40.5 23zM138 682q26 3 46 -12.5t23 -40.5
q3 -26 -12 -45.5t-40 -23.5q-26 -4 -46.5 12t-23.5 41q-3 26 12.5 46t40.5 23zM-20 90h140v280h90v-280h114v-91l-344 1v90z" />
    <glyph glyph-name="aring" unicode="&#xf08c;" horiz-adv-x="1074" 
d="M876 562q26 3 46 -12.5t23 -40.5q3 -26 -12 -45.5t-40 -23.5q-26 -4 -46.5 12t-23.5 41q-3 26 12.5 46t40.5 23zM1008 562q26 3 46 -12.5t23 -40.5q3 -26 -12 -45.5t-40 -23.5q-26 -4 -46.5 12t-23.5 41q-3 26 12.5 46t40.5 23zM942 682q26 3 46 -12.5t23 -40.5
q3 -26 -12 -45.5t-40 -23.5q-26 -4 -46.5 12t-23.5 41q-3 26 12.5 46t40.5 23zM555 0q-221 0 -166 -1q-94 2 -140 13q-228 57 -228 240q0 110 82 190t206 80q13 0 24 -33q14 -40 24 -51l-100 -16q-64 -13 -96 -44q-44 -41 -44 -120q0 -114 144 -156q38 -11 110 -13
q-29 1 118 1h432v280h90v-280h78v-90h-534z" />
    <glyph glyph-name="ccedilla" unicode="&#xf08d;" horiz-adv-x="1074" 
d="M864 568q26 3 46 -12.5t23 -40.5q3 -26 -12 -45.5t-40 -23.5q-26 -4 -46.5 12t-23.5 41q-3 26 12.5 46t40.5 23zM996 568q26 3 46 -12.5t23 -40.5q3 -26 -12 -45.5t-40 -23.5q-26 -4 -46.5 12t-23.5 41q-3 26 12.5 46t40.5 23zM930 688q26 3 46 -12.5t23 -40.5
q3 -26 -12 -45.5t-40 -23.5q-26 -4 -46.5 12t-23.5 41q-3 26 12.5 46t40.5 23zM555 0q-221 0 -166 -1q-94 2 -140 13q-228 57 -228 240q0 110 82 190t206 80q13 0 24 -33q14 -40 24 -51l-100 -16q-64 -13 -96 -44q-44 -41 -44 -120q0 -114 144 -156q38 -11 110 -13
q-29 1 118 1h432v280h90v-370h-456z" />
    <glyph glyph-name="eacute" unicode="&#xf08e;" horiz-adv-x="896" 
d="M892 0v90h-118q-10 -15 -36 -47q-20 -20 -71 -43h225zM545 90h-565v-90h575q97 0 157 46q67 51 67 145q0 181 -224 181h-440l-60 -92h490q133 1 133 -89q0 -101 -133 -101zM482 -56q26 3 46 -12.5t23 -40.5q3 -26 -12 -45.5t-40 -23.5q-26 -4 -46.5 12t-23.5 41
q-3 26 12.5 46t40.5 23z" />
    <glyph glyph-name="egrave" unicode="&#xf08f;" horiz-adv-x="1044" 
d="M685 90q133 0 133 101q0 90 -133 89h-490l60 92h440q224 0 224 -181q0 -94 -67 -145q-60 -46 -157 -46h-415q-133 0 -133 -101q0 -90 133 -89h490l-60 -92h-440q-224 0 -224 181q0 94 67 145q60 46 157 46h415zM1074 0v90h-148q-10 -15 -36 -47q-20 -20 -71 -43h255z
M448 -32q26 3 46 -12.5t23 -40.5q3 -26 -12 -45.5t-40 -23.5q-26 -4 -46.5 12t-23.5 41q-3 26 12.5 46t40.5 23z" />
    <glyph glyph-name="ecircumflex" unicode="&#xf090;" horiz-adv-x="952" 
d="M685 90q133 0 133 101q0 90 -133 89h-490l60 92h440q224 0 224 -181q0 -94 -67 -145q-60 -46 -157 -46h-415q-133 0 -133 -101q0 -90 133 -89h490l-60 -92h-440q-224 0 -224 181q0 94 67 145q60 46 157 46h415zM443 -30q26 3 46 -12.5t23 -40.5q3 -26 -12 -45.5
t-40 -23.5q-26 -4 -46.5 12t-23.5 41q-3 26 12.5 46t40.5 23z" />
    <glyph glyph-name="edieresis" unicode="&#xf091;" horiz-adv-x="876" 
d="M892 0v90h-118q-10 -15 -36 -47q-20 -20 -71 -43h225zM545 90h-565v-90h575q97 0 157 46q67 51 67 145q0 181 -224 181h-440l-60 -92h490q133 1 133 -89q0 -101 -133 -101z" />
    <glyph glyph-name="iacute" unicode="&#xf092;" horiz-adv-x="1044" 
d="M685 90q133 0 133 101q0 90 -133 89h-490l60 92h440q224 0 224 -181q0 -94 -67 -145q-60 -46 -157 -46h-415q-133 0 -133 -101q0 -90 133 -89h490l-60 -92h-440q-224 0 -224 181q0 94 67 145q60 46 157 46h415zM1074 0v90h-148q-10 -15 -36 -47q-20 -20 -71 -43h255z" />
    <glyph glyph-name="igrave" unicode="&#xf093;" horiz-adv-x="952" 
d="M685 90q133 0 133 101q0 90 -133 89h-490l60 92h440q224 0 224 -181q0 -94 -67 -145q-60 -46 -157 -46h-415q-133 0 -133 -101q0 -90 133 -89h490l-60 -92h-440q-224 0 -224 181q0 94 67 145q60 46 157 46h415z" />
    <glyph glyph-name="icircumflex" unicode="&#xf094;" horiz-adv-x="896" 
d="M892 0v90h-118q-10 -15 -36 -47q-20 -20 -71 -43h225zM545 90h-565v-90h575q97 0 157 46q67 51 67 145q0 181 -224 181h-440l-60 -92h490q133 1 133 -89q0 -101 -133 -101zM482 580q26 3 46 -12.5t23 -40.5q3 -26 -12 -45.5t-40 -23.5q-26 -4 -46.5 12t-23.5 41
q-3 26 12.5 46t40.5 23z" />
    <glyph glyph-name="idieresis" unicode="&#xf095;" horiz-adv-x="1044" 
d="M685 90q133 0 133 101q0 90 -133 89h-490l60 92h440q224 0 224 -181q0 -94 -67 -145q-60 -46 -157 -46h-415q-133 0 -133 -101q0 -90 133 -89h490l-60 -92h-440q-224 0 -224 181q0 94 67 145q60 46 157 46h415zM1074 0v90h-148q-10 -15 -36 -47q-20 -20 -71 -43h255z
M444 584q26 3 46 -12.5t23 -40.5q3 -26 -12 -45.5t-40 -23.5q-26 -4 -46.5 12t-23.5 41q-3 26 12.5 46t40.5 23z" />
    <glyph glyph-name="ntilde" unicode="&#xf096;" horiz-adv-x="952" 
d="M685 90q133 0 133 101q0 90 -133 89h-490l60 92h440q224 0 224 -181q0 -94 -67 -145q-60 -46 -157 -46h-415q-133 0 -133 -101q0 -90 133 -89h490l-60 -92h-440q-224 0 -224 181q0 94 67 145q60 46 157 46h415zM475 582q26 3 46 -12.5t23 -40.5q3 -26 -12 -45.5
t-40 -23.5q-26 -4 -46.5 12t-23.5 41q-3 26 12.5 46t40.5 23z" />
    <glyph glyph-name="oacute" unicode="&#xf097;" horiz-adv-x="500" 
d="M500 -125h-500v50h500v-50z" />
    <glyph glyph-name="ograve" unicode="&#xf098;" horiz-adv-x="732" 
d="M758 0h-680l-46 90h346q100 0 116 2q48 6 70 34q30 38 30 120q0 63 -70.5 118.5t-151.5 55.5q-102 0 -157 -59q-39 -41 -77 -145h-95q7 24 23 78q30 90 98 147q84 69 208 69q130 0 227 -95q91 -91 91 -199q0 -64 -31 -126h99v-90zM337 692q26 3 46 -12.5t23 -40.5
q3 -26 -12 -45.5t-40 -23.5q-26 -4 -46.5 12t-23.5 41q-3 26 12.5 46t40.5 23z" />
    <glyph glyph-name="ocircumflex" unicode="&#xf099;" horiz-adv-x="384" 
d="M324 0q0 -48 -29 -95q-25 -39 -54 -56q-64 -49 -278 -49l17 92q126 0 172 15q82 27 82 116v349h90v-282h73v-91z" />
    <glyph glyph-name="odieresis" unicode="&#xf09a;" horiz-adv-x="700" 
d="M324 0q0 -48 -29 -95q-25 -39 -54 -56q-64 -49 -278 -49l17 92q126 0 172 15q82 27 82 116v349h90v-282h196v280h90v-280h114v-91z" />
    <glyph glyph-name="otilde" unicode="&#xf09b;" horiz-adv-x="384" 
d="M324 0q0 -48 -29 -95q-25 -39 -54 -56q-64 -49 -278 -49l17 92q126 0 172 15q82 27 82 116v349h90v-282h73v-91zM250 572q26 3 46 -12.5t23 -40.5q3 -26 -12 -45.5t-40 -23.5q-26 -4 -46.5 12t-23.5 41q-3 26 12.5 46t40.5 23z" />
    <glyph glyph-name="uacute" unicode="&#xf09c;" horiz-adv-x="700" 
d="M324 0q0 -48 -29 -95q-25 -39 -54 -56q-64 -49 -278 -49l17 92q126 0 172 15q82 27 82 116v349h90v-282h196v280h90v-280h114v-91zM250 572q26 3 46 -12.5t23 -40.5q3 -26 -12 -45.5t-40 -23.5q-26 -4 -46.5 12t-23.5 41q-3 26 12.5 46t40.5 23z" />
    <glyph glyph-name="ugrave" unicode="&#xf09d;" horiz-adv-x="432" 
d="M465 0h-476v90h102v329l90 46v-375h100v332l90 46l-1 -378h95v-90z" />
    <glyph glyph-name="ucircumflex" unicode="&#xf09e;" horiz-adv-x="432" 
d="M171 717q3 -26 -12 -45.5t-40 -23.5q-26 -4 -46.5 12t-23.5 41q-3 26 12.5 46t40.5 23q26 3 46 -12.5t23 -40.5zM237 597q3 -26 -12 -45.5t-40 -23.5q-26 -4 -46.5 12t-23.5 41q-3 26 12.5 46t40.5 23q26 3 46 -12.5t23 -40.5zM105 597q3 -26 -12 -45.5t-40 -23.5
q-26 -4 -46.5 12t-23.5 41q-3 26 12.5 46t40.5 23q26 3 46 -12.5t23 -40.5zM465 0h-476v90h102v329l90 46v-375h100v332l90 46l-1 -378h95v-90z" />
    <glyph glyph-name="udieresis" unicode="&#xf09f;" horiz-adv-x="812" 
d="M828 0h-225q26 10 79 43q18 15 44 47h102v-90zM739 191q0 -94 -67 -145q-60 -46 -157 -46h-532v90h522q133 0 133 101q0 90 -133 89h-490v92h500q224 0 224 -181z" />
    <glyph glyph-name="dagger" unicode="&#xf0a0;" horiz-adv-x="1000" 
 />
    <glyph glyph-name="degree" unicode="&#xf0a1;" horiz-adv-x="155" 
d="M188 0h-208v90h85v304l90 46v-350h33v-90z" />
    <glyph glyph-name="cent" unicode="&#xf0a2;" horiz-adv-x="601" 
d="M601 90q-1 -18 -2 -33q-5 -37 -14 -57q-41 -86 -110 -117q-65 -29 -200 -29q-143 0 -213 82q-50 59 -50 135q0 138 103 204q43 27 103 38l31 -86q-62 0 -102 -33q-45 -39 -45 -113q0 -58 44 -95q50 -42 139 -42q93 0 159.5 44.5t66.5 101.5v306l90 46v-352z" />
    <glyph glyph-name="sterling" unicode="&#xf0a3;" horiz-adv-x="996" 
d="M1011 0v90h-103q-10 -15 -36 -47q-20 -20 -71 -43h210zM76 90v622l90 -1v-621h510q133 0 133 101q0 90 -133 89h-490v92h500q224 0 224 -181q0 -94 -67 -145q-60 -46 -157 -46h-710v90h100z" />
    <glyph glyph-name="section" unicode="&#xf0a4;" horiz-adv-x="1055" 
d="M1075 0v90h-103q-10 -15 -36 -47q-20 -20 -71 -43h210zM140 90v622l90 -1v-621h510q133 0 133 101q0 90 -133 89h-490v92h500q224 0 224 -181q0 -94 -67 -145q-60 -46 -157 -46h-710v90h100z" />
    <glyph glyph-name="bullet" unicode="&#xf0a5;" horiz-adv-x="996" 
d="M124 90v622l90 -1v-621h510q133 0 133 101q0 90 -133 89h-490v92h500q224 0 224 -181q0 -94 -67 -145q-60 -46 -157 -46h-710v90h100z" />
    <glyph glyph-name="paragraph" unicode="&#xf0a6;" horiz-adv-x="996" 
d="M1011 0v90h-103q-10 -15 -36 -47q-20 -20 -71 -43h210zM76 90v622l90 -1v-621h510q133 0 133 101q0 90 -133 89h-490v92h500q224 0 224 -181q0 -94 -67 -145q-60 -46 -157 -46h-710v90h100zM502 572q26 3 46 -12.5t23 -40.5q3 -26 -12 -45.5t-40 -23.5q-26 -4 -46.5 12
t-23.5 41q-3 26 12.5 46t40.5 23z" />
    <glyph glyph-name="germandbls" unicode="&#xf0a7;" horiz-adv-x="1052" 
d="M1075 0v90h-103q-10 -15 -36 -47q-20 -20 -71 -43h210zM140 90v622l90 -1v-621h510q133 0 133 101q0 90 -133 89h-490v92h500q224 0 224 -181q0 -94 -67 -145q-60 -46 -157 -46h-710v90h100zM552 562q26 3 46 -12.5t23 -40.5q3 -26 -12 -45.5t-40 -23.5q-26 -4 -46.5 12
t-23.5 41q-3 26 12.5 46t40.5 23z" />
    <glyph glyph-name="registered" unicode="&#xf0a8;" horiz-adv-x="996" 
d="M124 90v622l90 -1v-621h510q133 0 133 101q0 90 -133 89h-490v92h500q224 0 224 -181q0 -94 -67 -145q-60 -46 -157 -46h-710v90h100zM516 572q26 3 46 -12.5t23 -40.5q3 -26 -12 -45.5t-40 -23.5q-26 -4 -46.5 12t-23.5 41q-3 26 12.5 46t40.5 23z" />
    <glyph glyph-name="copyright" unicode="&#xf0a9;" horiz-adv-x="772" 
d="M-20 0v90h91q-20 19 -27 39q-11 28 -11 87q0 54 26.5 110.5t72.5 93.5h-93l81 90h293q130 0 227 -95q91 -91 91 -199q0 -59 -11 -87q-7 -20 -27 -39h91v-90h-804zM617 126q16 20 20 46q4 21 4 74q0 66 -73 119q-77 55 -187 55q-84 0 -169 -55q-89 -58 -89 -119
q0 -53 4 -74q4 -26 20 -46q22 -28 94 -34q21 -2 139 -2q119 0 141 2q74 6 96 34z" />
    <glyph glyph-name="trademark" unicode="&#xf0aa;" horiz-adv-x="1074" 
d="M935 126q16 20 20 46q4 21 4 74q0 66 -73 119q-77 55 -187 55q-84 0 -169 -55q-89 -58 -89 -119q0 -53 4 -74q4 -26 20 -46q22 -28 94 -34q21 -2 139 -2q119 0 141 2q74 6 96 34zM280 0q-133 0 -133 -101q0 -90 133 -89h490l-60 -92h-440q-224 0 -224 181q0 94 67 145
q60 46 157 46h119q-20 19 -27 39q-11 28 -11 87q0 54 26.5 110.5t72.5 93.5h-93l81 90h293q130 0 227 -95q91 -91 91 -199q0 -59 -11 -87q-7 -20 -27 -39h91v-90h-822z" />
    <glyph glyph-name="acute" unicode="&#xf0ab;" horiz-adv-x="1028" 
d="M280 0q-133 0 -133 -101q0 -90 133 -89h490l-60 -92h-440q-224 0 -224 181q0 94 67 145q60 46 157 46h93q-20 19 -27 39q-11 28 -11 87q0 108 92 199q96 95 226 95q124 0 208 -69q68 -57 98 -147q9 -28 23 -78h-95q-38 104 -76 145q-56 59 -158 59q-81 0 -154.5 -55.5
t-73.5 -118.5q0 -53 4 -74q4 -26 20 -46q22 -28 76 -34q17 -2 122 -2h346l-46 -90h-657z" />
    <glyph glyph-name="dieresis" unicode="&#xf0ac;" horiz-adv-x="772" 
d="M-20 0v90h91q-20 19 -27 39q-11 28 -11 87q0 54 26.5 110.5t72.5 93.5h-93l81 90h293q130 0 227 -95q91 -91 91 -199q0 -59 -11 -87q-7 -20 -27 -39h91v-90h-804zM617 126q16 20 20 46q4 21 4 74q0 66 -73 119q-77 55 -187 55q-84 0 -169 -55q-89 -58 -89 -119
q0 -53 4 -74q4 -26 20 -46q22 -28 94 -34q21 -2 139 -2q119 0 141 2q74 6 96 34zM316 704q26 3 46 -12.5t23 -40.5q3 -26 -12 -45.5t-40 -23.5q-26 -4 -46.5 12t-23.5 41q-3 26 12.5 46t40.5 23z" />
    <glyph glyph-name="notequal" unicode="&#xf0ad;" horiz-adv-x="1074" 
d="M935 126q16 20 20 46q4 21 4 74q0 66 -73 119q-77 55 -187 55q-84 0 -169 -55q-89 -58 -89 -119q0 -53 4 -74q4 -26 20 -46q22 -28 94 -34q21 -2 139 -2q119 0 141 2q74 6 96 34zM280 0q-133 0 -133 -101q0 -90 133 -89h490l-60 -92h-440q-224 0 -224 181q0 94 67 145
q60 46 157 46h119q-20 19 -27 39q-11 28 -11 87q0 54 26.5 110.5t72.5 93.5h-93l81 90h293q130 0 227 -95q91 -91 91 -199q0 -59 -11 -87q-7 -20 -27 -39h91v-90h-822zM672 704q26 3 46 -12.5t23 -40.5q3 -26 -12 -45.5t-40 -23.5q-26 -4 -46.5 12t-23.5 41q-3 26 12.5 46
t40.5 23z" />
    <glyph glyph-name="AE" unicode="&#xf0ae;" horiz-adv-x="1028" 
d="M280 0q-133 0 -133 -101q0 -90 133 -89h490l-60 -92h-440q-224 0 -224 181q0 94 67 145q60 46 157 46h93q-20 19 -27 39q-11 28 -11 87q0 108 92 199q96 95 226 95q124 0 208 -69q68 -57 98 -147q9 -28 23 -78h-95q-38 104 -76 145q-56 59 -158 59q-81 0 -154.5 -55.5
t-73.5 -118.5q0 -53 4 -74q4 -26 20 -46q22 -28 76 -34q17 -2 122 -2h346l-46 -90h-657zM672 704q26 3 46 -12.5t23 -40.5q3 -26 -12 -45.5t-40 -23.5q-26 -4 -46.5 12t-23.5 41q-3 26 12.5 46t40.5 23z" />
    <glyph glyph-name="Oslash" unicode="&#xf0af;" horiz-adv-x="604" 
d="M264 720q26 3 46 -12.5t23 -40.5q3 -26 -12 -45.5t-40 -23.5q-26 -4 -46.5 12t-23.5 41q-3 26 12.5 46t40.5 23zM-20 0v90h91q-20 19 -27 39q-11 28 -11 87q0 127 60 206q71 92 210 90q133 -2 204 -88q64 -79 64 -208q0 -90 -38 -126h91v-90h-644zM457 126q15 20 20 45
q3 18 4 73q3 177 -188 180q-90 1 -134 -57q-36 -46 -36 -121q0 -53 4 -74q4 -26 20 -46q24 -30 45 -34q9 -2 90 -2q96 0 110 2q42 5 65 34z" />
    <glyph glyph-name="infinity" unicode="&#xf0b0;" horiz-adv-x="1280" 
d="M903 714q26 3 46 -12.5t23 -40.5q3 -26 -12 -45.5t-40 -23.5q-26 -4 -46.5 12t-23.5 41q-3 26 12.5 46t40.5 23zM1102 126q15 19 18 46q1 11 1 74q0 175 -183 178q-90 1 -134 -57q-36 -46 -36 -121q0 -53 4 -74q4 -26 20 -46q24 -30 45 -34q9 -2 90 -2q96 0 110 2
q42 5 65 34zM716 90q-20 19 -27 39q-11 28 -11 87q0 127 60 206q71 92 210 90q133 -2 204 -88q64 -79 64 -208q0 -90 -38 -126h127v-90h-750q-221 0 -166 -1q-94 2 -140 13q-228 57 -228 240q0 110 82 190t206 80q13 0 24 -33q14 -40 24 -51l-100 -16q-64 -13 -96 -44
q-44 -41 -44 -120q0 -114 144 -156q38 -11 110 -13q-29 1 118 1h227z" />
    <glyph glyph-name="plusminus" unicode="&#xf0b1;" horiz-adv-x="1332" 
d="M923 703q26 3 46 -12.5t23 -40.5q3 -26 -12 -45.5t-40 -23.5q-26 -4 -46.5 12t-23.5 41q-3 26 12.5 46t40.5 23zM1143 90q35 0 45 24q7 14 7 53q0 119 -104 192q-83 59 -165 58q-62 -1 -127 -52q-75 -58 -76 -134q105 -2 359 1q-6 -10 -38 -57q-11 -18 -21 -35h-399
q-8 93 8 141q32 95 115.5 159t181.5 64q143 0 250 -93.5t106 -216.5q-1 -101 -28.5 -140t-100.5 -49q-41 -5 -199 -5h-402q-221 0 -166 -1q-94 2 -140 13q-228 57 -228 240q0 110 82 190t206 80q13 0 24 -33q14 -40 24 -51l-100 -16q-64 -13 -96 -44q-44 -41 -44 -120
q0 -114 144 -156q38 -11 110 -13q-29 1 118 1h654z" />
    <glyph glyph-name="lessequal" unicode="&#xf0b2;" horiz-adv-x="604" 
d="M216 720q26 3 46 -12.5t23 -40.5q3 -26 -12 -45.5t-40 -23.5q-26 -4 -46.5 12t-23.5 41q-3 26 12.5 46t40.5 23zM348 720q26 3 46 -12.5t23 -40.5q3 -26 -12 -45.5t-40 -23.5q-26 -4 -46.5 12t-23.5 41q-3 26 12.5 46t40.5 23zM-20 0v90h91q-20 19 -27 39q-11 28 -11 87
q0 127 60 206q71 92 210 90q133 -2 204 -88q64 -79 64 -208q0 -90 -38 -126h91v-90h-644zM457 126q15 20 20 45q3 18 4 73q3 177 -188 180q-90 1 -134 -57q-36 -46 -36 -121q0 -53 4 -74q4 -26 20 -46q24 -30 45 -34q9 -2 90 -2q96 0 110 2q42 5 65 34z" />
    <glyph glyph-name="greaterequal" unicode="&#xf0b3;" horiz-adv-x="1095" 
d="M627 703q26 3 46 -12.5t23 -40.5q3 -26 -12 -45.5t-40 -23.5q-26 -4 -46.5 12t-23.5 41q-3 26 12.5 46t40.5 23zM759 703q26 3 46 -12.5t23 -40.5q3 -26 -12 -45.5t-40 -23.5q-26 -4 -46.5 12t-23.5 41q-3 26 12.5 46t40.5 23zM950 90q0 340 -214 336q-216 -4 -216 -234
q0 -58 31 -82q26 -20 86 -20h313zM714 -198q26 1 -428 1q-143 0 -213 82q-50 59 -50 135q0 138 103 204q43 27 103 38l31 -86q-62 0 -102 -33q-45 -39 -45 -113q0 -58 44 -95q49 -42 138 -42q31 0 136.5 -2.5t167.5 -2.5q269 0 310 41t41 71h-268q-148 0 -196 32
q-56 38 -56 160q0 145 96 238q89 86 210 86q299 0 304 -426h84v-90h-84q1 -99 -95 -152q-87 -47 -231 -46z" />
    <glyph glyph-name="yen" unicode="&#xf0b4;" horiz-adv-x="1095" 
d="M286 -197q-143 0 -213 82q-50 59 -50 135q0 138 103 204q43 27 103 38l31 -86q-62 0 -102 -33q-45 -39 -45 -113q0 -58 44 -95q49 -42 138 -42q28 0 122.5 -2t151.5 -2q303 0 335 51q46 72 46 178q0 136 -51 218q-56 92 -163 90q-216 -4 -216 -234q0 -58 31 -82
q26 -20 86 -20h242l-62 -90h-135q-148 0 -196 32q-56 38 -56 160q0 143 99 238q91 86 207 86q153 0 235 -127q69 -107 69 -263q0 -201 -85 -269q-64 -51 -241 -55h-158q-182 1 -270 1zM627 703q26 3 46 -12.5t23 -40.5q3 -26 -12 -45.5t-40 -23.5q-26 -4 -46.5 12t-23.5 41
q-3 26 12.5 46t40.5 23zM759 703q26 3 46 -12.5t23 -40.5q3 -26 -12 -45.5t-40 -23.5q-26 -4 -46.5 12t-23.5 41q-3 26 12.5 46t40.5 23z" />
    <glyph glyph-name="mu" unicode="&#xf0b5;" horiz-adv-x="1052" 
d="M1062 0v90h-148q-10 -15 -36 -47q-20 -20 -71 -43h255zM190 280h490q133 1 133 -89q0 -101 -133 -101h-700v-90h710q97 0 157 46q67 51 67 145q0 181 -224 181h-426l549 237l24 108l-651 -279q-86 -37 -86 -94q0 -27 24.5 -45.5t65.5 -18.5z" />
    <glyph glyph-name="partialdiff" unicode="&#xf0b6;" horiz-adv-x="704" 
d="M279 228h13q-13 13 -13 42q0 36 31 66.5t74 30.5q22 0 59 -15l-13 -27q-26 13 -46 13q-26 0 -50.5 -19t-24.5 -40q0 -29 9 -38q10 -13 64 -13h69l-16 -29h-156v29zM604 707v-526q0 -45 34 -72q24 -19 60 -19h25v-91h-87q-35 0 -72 65q-25 -49 -91 -62q-44 -8 -196 -8
q-143 0 -213 82q-50 59 -50 135q0 138 103 204q43 27 103 38l31 -86q-62 0 -102 -33q-45 -39 -45 -113q0 -58 44 -95q50 -42 139 -42q113 0 161 13q66 18 66 69v541h90z" />
    <glyph glyph-name="summation" unicode="&#xf0b7;" horiz-adv-x="656" 
d="M305 230h13q-13 13 -13 42q0 36 31 66.5t74 30.5q22 0 59 -15l-13 -27q-26 13 -46 13q-26 0 -50.5 -19t-24.5 -40q0 -29 9 -38q10 -13 64 -13h69l-16 -29h-156v29zM604 707v-526q0 -88 -32 -121q-25 -44 -95 -57q-52 -9 -200 -9q-143 0 -213 82q-50 59 -50 135
q0 138 103 204q43 27 103 38l31 -86q-62 0 -102 -33q-45 -39 -45 -113q0 -58 44 -95q50 -42 139 -42q130 0 161 7q66 15 66 75v541h90z" />
    <glyph glyph-name="product" unicode="&#xf0b8;" horiz-adv-x="312" 
d="M-20 90h140v620h90v-620h114v-91l-344 1v90z" />
    <glyph glyph-name="pi" unicode="&#xf0b9;" horiz-adv-x="672" 
d="M604 707v-617h81v-90h-98q-31 -61 -103 -100q-86 -46 -207 -46q-143 0 -213 82q-50 59 -50 135q0 138 103 204q43 27 103 38l31 -86q-62 0 -102 -33q-45 -39 -45 -113q0 -58 44 -95q50 -42 139 -42q93 0 160 44.5t67 101.5v617h90z" />
    <glyph glyph-name="integral" unicode="&#xf0ba;" horiz-adv-x="672" 
d="M604 707v-617q3 -54 -16 -90q-31 -61 -104 -100q-85 -46 -207 -46q-143 0 -213 82q-50 59 -50 135q0 138 103 204q43 27 103 38l31 -86q-62 0 -102 -33q-45 -39 -45 -113q0 -58 44 -95q50 -42 139 -42q93 0 160 44.5t67 101.5v617h90z" />
    <glyph glyph-name="ordfeminine" unicode="&#xf0bb;" horiz-adv-x="529" 
d="M302 -72q-68 40 -154 88l13 100l68.5 -43.5t91.5 -48.5q50 10 50 95q0 55 -34.5 90t-95.5 35q-55 0 -81 -26q-22 -22 -34 -75l-14 -78q-11 -38 -46 -56q-18 -9 -61 -9h-25v90h25q35 0 35 14q0 90 41 148q55 77 176 77q88 0 144 -55q61 -60 61 -156q0 -14 -1 -28h85v-90
h-114q-48 -80 -103 -80q-14 0 -27 8z" />
    <glyph glyph-name="ordmasculine" unicode="&#xf0bc;" horiz-adv-x="784" 
d="M268 0q-133 -2 -133 -101q0 -90 133 -89h130l-60 -92h-80q-224 0 -224 181q0 94 67 145q60 46 157 46q38 0 38 14q0 90 41 148q55 77 176 77q88 0 144 -55q61 -60 61 -156q0 -14 -1 -28h85v-90h-114q-48 -80 -103 -80q-14 0 -27 8q-68 40 -154 88l13 100l68.5 -43.5
t91.5 -48.5q50 10 50 95q0 55 -34.5 90t-95.5 35q-55 0 -81 -26q-22 -22 -34 -75l-14 -78q-11 -38 -46 -56q-17 -9 -54 -9z" />
    <glyph glyph-name="Omega" unicode="&#xf0bd;" horiz-adv-x="848" 
d="M335 0h-79q-133 0 -133 -101q0 -90 133 -89h130l-60 -92h-80q-224 0 -224 181q0 94 67 145q60 46 157 46h79q39 0 39 14q0 90 41 148q55 77 176 77q88 0 144 -55q69 -68 63 -184q-3 -49 -32 -90q-57 -79 -104 -79q-14 0 -26 7q-68 40 -154 88l13 100l68.5 -43.5
t91.5 -48.5q50 10 50 95q0 55 -34.5 90t-95.5 35q-55 0 -81 -26q-22 -22 -34 -75l-14 -78q-11 -38 -46 -56q-18 -9 -55 -9z" />
    <glyph glyph-name="ae" unicode="&#xf0be;" horiz-adv-x="300" 
d="M158 580q26 3 46 -12.5t23 -40.5q3 -26 -12 -45.5t-40 -23.5q-26 -4 -46.5 12t-23.5 41q-3 26 12.5 46t40.5 23zM-20 90h140v280h90v-280h114v-91l-344 1v90z" />
    <glyph glyph-name="oslash" unicode="&#xf0bf;" horiz-adv-x="672" 
d="M542 572q26 3 46 -12.5t23 -40.5q3 -26 -12 -45.5t-40 -23.5q-26 -4 -46.5 12t-23.5 41q-3 26 12.5 46t40.5 23zM604 371v-281h81v-90h-98q-31 -61 -103 -100q-86 -46 -207 -46q-143 0 -213 82q-50 59 -50 135q0 138 103 204q43 27 103 38l31 -86q-62 0 -102 -33
q-45 -39 -45 -113q0 -58 44 -95q50 -42 139 -42q93 0 160 44.5t67 101.5v281h90z" />
    <glyph glyph-name="questiondown" unicode="&#xf0c0;" horiz-adv-x="672" 
d="M532 576q26 3 46 -12.5t23 -40.5q3 -26 -12 -45.5t-40 -23.5q-26 -4 -46.5 12t-23.5 41q-3 26 12.5 46t40.5 23zM604 371v-281q3 -54 -16 -90q-31 -61 -104 -100q-85 -46 -207 -46q-143 0 -213 82q-50 59 -50 135q0 138 103 204q43 27 103 38l31 -86q-62 0 -102 -33
q-45 -39 -45 -113q0 -58 44 -95q50 -42 139 -42q93 0 160 44.5t67 101.5v281h90z" />
    <glyph glyph-name="exclamdown" unicode="&#xf0c1;" horiz-adv-x="768" 
d="M324 503v39l90 41v-73q129 0 226 -95q91 -91 91 -199q0 -59 -11 -87q-7 -20 -27 -39h91v-90h-804v90h91q-20 19 -27 39q-11 28 -11 87q0 94 77 175q83 88 214 112zM617 126q16 20 20 46q4 21 4 74q0 59 -75.5 116t-151.5 57v-329q99 0 127 3q55 7 76 33zM324 90v323
q-74 1 -137.5 -55.5t-63.5 -111.5q0 -88 24 -120q27 -36 177 -36z" />
    <glyph glyph-name="logicalnot" unicode="&#xf0c2;" horiz-adv-x="732" 
d="M351 420q-81 0 -154.5 -55.5t-73.5 -118.5q0 -79 0 -75q2 -29 16 -47q22 -28 80 -33q10 -1 126 -1h205q45 1 45 68q0 36 -11 78q-36 98 -76 135q-53 49 -157 49zM584 426v84h92v-420h72v-90h-574q-15 0 -53 22q-45 27 -62.5 59.5t-21.5 52t-4 82.5q0 108 92 199
q96 95 226 95q137 0 232 -95z" />
    <glyph glyph-name="radical" unicode="&#xf0c3;" horiz-adv-x="732" 
d="M583 415l1 11v84h92v-412q0 -32 -26 -64q-29 -34 -64 -34h-412q-15 0 -53 22q-45 27 -62.5 59.5t-21.5 52t-4 82.5q0 108 92 199q96 95 226 95q137 0 232 -95zM351 420q-81 0 -154.5 -55.5t-73.5 -118.5q0 -79 0 -75q2 -29 16 -47q22 -28 80 -33q10 -1 126 -1h205
q45 1 45 68q0 36 -11 78q-36 98 -76 135q-53 49 -157 49z" />
    <glyph glyph-name="florin" unicode="&#xf0c4;" horiz-adv-x="704" 
d="M740 90v-90h-84q-7 -98 -100 -150q-85 -49 -226 -48q-24 0 -100 1q-12 17 -58 90q169 0 215 3q98 7 139 34q13 9 26.5 30.5t13.5 39.5h-268q-148 0 -196 32q-56 38 -56 160q0 145 96 238q89 86 210 86q299 0 304 -426h84zM566 90q0 340 -214 336q-216 -4 -216 -234
q0 -58 31 -82q26 -20 86 -20h313z" />
    <glyph glyph-name="approxequal" unicode="&#xf0c5;" horiz-adv-x="1392" 
d="M930 97q19 1 19 27q0 23 -13 57h-312l-71 101l489 1q177 0 186 -110q7 -83 69 -83h119v-90q-165 -3 -207 -1q-33 2 -52 60q-29 89 -41 108q-9 14 -70 10q9 -51 9 -67q0 -54 -48 -85q-41 -26 -99 -25q-560 -5 -631 12q-228 54 -228 240q0 104 83 177q76 68 205 93
q8 -18 15 -33q18 -36 33 -51l-100 -20q-64 -16 -96 -46q-44 -40 -44 -114q0 -110 144 -156q34 -11 276 -11q253 0 365 6z" />
    <glyph glyph-name="Delta" unicode="&#xf0c6;" horiz-adv-x="1162" 
d="M385 -51h539q33 0 56 2q57 4 58 14q5 43 -6 49.5t-108 6.5h-349q-52 0 -95 15q-46 16 -64 43q-8 12 -16 25q-2 4 -3 27q-3 49 38 111q44 66 109.5 100t180.5 34q30 0 72 -3q48 -3 138 -40q80 -32 116 -57l-31 -75q-38 24 -102 52q-81 36 -125 40q-19 2 -42 2
q-111 0 -179 -33q-47 -22 -65.5 -51t-18.5 -79q0 -19 63 -21q-9 0 120 0h259q90 0 116 -5q80 -16 80 -118q0 -23 -4 -50t-61 -48t-129 -21h-531q-220 0 -306 36q-95 39 -95 145q0 151 100.5 244.5t276.5 93.5v-82q-161 0 -235 -91q-52 -65 -52 -158q0 -63 65 -86
q62 -22 230 -22z" />
    <glyph glyph-name="guillemotleft" unicode="&#xf0c7;" horiz-adv-x="300" 
d="M72 -56q26 3 46 -12.5t23 -40.5q3 -26 -12 -45.5t-40 -23.5q-26 -4 -46.5 12t-23.5 41q-3 26 12.5 46t40.5 23zM204 -56q26 3 46 -12.5t23 -40.5q3 -26 -12 -45.5t-40 -23.5q-26 -4 -46.5 12t-23.5 41q-3 26 12.5 46t40.5 23zM-20 90h140v280h90v-280h114v-91l-344 1v90z
" />
    <glyph glyph-name="guillemotright" unicode="&#xf0c8;" horiz-adv-x="1392" 
d="M930 97q19 1 19 27q0 23 -13 57h-312l-71 101l489 1q177 0 186 -110q7 -83 69 -83h119v-90q-165 -3 -207 -1q-33 2 -52 60q-29 89 -41 108q-9 14 -70 10q9 -51 9 -67q0 -54 -48 -85q-41 -26 -99 -25q-560 -5 -631 12q-228 54 -228 240q0 104 83 177q76 68 205 93
q8 -18 15 -33q18 -36 33 -51l-100 -20q-64 -16 -96 -46q-44 -40 -44 -114q0 -110 144 -156q34 -11 276 -11q253 0 365 6zM522 -74q26 3 46 -12.5t23 -40.5q3 -26 -12 -45.5t-40 -23.5q-26 -4 -46.5 12t-23.5 41q-3 26 12.5 46t40.5 23zM654 -74q26 3 46 -12.5t23 -40.5
q3 -26 -12 -45.5t-40 -23.5q-26 -4 -46.5 12t-23.5 41q-3 26 12.5 46t40.5 23z" />
    <glyph glyph-name="ellipsis" unicode="&#xf0c9;" horiz-adv-x="1162" 
d="M373 65h539q33 0 56 2q57 4 58 14q5 43 -6 49.5t-108 6.5h-349q-52 0 -95 15q-46 16 -64 43q-8 12 -16 25q-2 4 -3 27q-3 49 38 111q44 66 109.5 100t180.5 34q30 0 72 -3q48 -3 138 -40q80 -32 116 -57l-31 -75q-38 24 -102 52q-81 36 -125 40q-19 2 -42 2
q-111 0 -179 -33q-47 -22 -65.5 -51t-18.5 -79q0 -19 63 -21q-9 0 120 0h259q90 0 116 -5q80 -16 80 -118q0 -23 -4 -50t-61 -48t-129 -21h-531q-220 0 -306 36q-95 39 -95 145q0 151 100.5 244.5t276.5 93.5v-82q-161 0 -235 -91q-52 -65 -52 -158q0 -63 65 -86
q62 -22 230 -22zM368 -76q26 3 46 -12.5t23 -40.5q3 -26 -12 -45.5t-40 -23.5q-26 -4 -46.5 12t-23.5 41q-3 26 12.5 46t40.5 23zM500 -76q26 3 46 -12.5t23 -40.5q3 -26 -12 -45.5t-40 -23.5q-26 -4 -46.5 12t-23.5 41q-3 26 12.5 46t40.5 23z" />
    <glyph glyph-name="nonbreakingspace" unicode="&#xf0ca;" horiz-adv-x="812" 
d="M318 527q3 -26 -12 -45.5t-40 -23.5q-26 -4 -46.5 12t-23.5 41q-3 26 12.5 46t40.5 23q26 3 46 -12.5t23 -40.5zM828 0h-225q26 10 79 43q18 15 44 47h102v-90zM739 191q0 -94 -67 -145q-60 -46 -157 -46h-532v90h522q133 0 133 101q0 90 -133 89h-490v92h500
q224 0 224 -181z" />
    <glyph glyph-name="Agrave" unicode="&#xf0cb;" horiz-adv-x="1392" 
d="M930 97q19 1 19 27q0 23 -13 57h-312l-71 101l489 1q177 0 186 -110q7 -83 69 -83h119v-90q-165 -3 -207 -1q-33 2 -52 60q-29 89 -41 108q-9 14 -70 10q9 -51 9 -67q0 -54 -48 -85q-41 -26 -99 -25q-560 -5 -631 12q-228 54 -228 240q0 104 83 177q76 68 205 93
q8 -18 15 -33q18 -36 33 -51l-100 -20q-64 -16 -96 -46q-44 -40 -44 -114q0 -110 144 -156q34 -11 276 -11q253 0 365 6zM522 -74q26 3 46 -12.5t23 -40.5q3 -26 -12 -45.5t-40 -23.5q-26 -4 -46.5 12t-23.5 41q-3 26 12.5 46t40.5 23zM654 -74q26 3 46 -12.5t23 -40.5
q3 -26 -12 -45.5t-40 -23.5q-26 -4 -46.5 12t-23.5 41q-3 26 12.5 46t40.5 23z" />
    <glyph glyph-name="Atilde" unicode="&#xf0cc;" horiz-adv-x="660" 
d="M555 -56q26 3 46 -12.5t23 -40.5q3 -26 -12 -45.5t-40 -23.5q-26 -4 -46.5 12t-23.5 41q-3 26 12.5 46t40.5 23zM432 0q-48 -80 -103 -80q-14 0 -27 8q-68 40 -154 88l13 100l68.5 -43.5t91.5 -48.5q50 10 50 95q0 55 -34.5 90t-95.5 35q-55 0 -81 -26q-22 -22 -34 -75
l-14 -78q-11 -38 -46 -56q-18 -9 -61 -9h-25v90h25q35 0 35 14q0 90 41 148q55 77 176 77q88 0 144 -55q61 -60 61 -156q0 -14 -1 -28h82v283h90v-373h-201z" />
    <glyph glyph-name="Otilde" unicode="&#xf0cd;" horiz-adv-x="1032" 
d="M920 -60q26 3 46 -12.5t23 -40.5q3 -26 -12 -45.5t-40 -23.5q-26 -4 -46.5 12t-23.5 41q-3 26 12.5 46t40.5 23zM276 0q-133 -2 -133 -101q0 -90 133 -89h130l-60 -92h-80q-224 0 -224 181q0 94 67 145q60 46 157 46q38 0 38 14q0 90 41 148q55 77 176 77q88 0 144 -55
q61 -60 61 -156q0 -14 -1 -28h163v280h90v-370h-282q-48 -80 -103 -80q-14 0 -27 8q-68 40 -154 88l13 100l68.5 -43.5t91.5 -48.5q50 10 50 95q0 55 -34.5 90t-95.5 35q-55 0 -81 -26q-22 -22 -34 -75l-14 -78q-11 -38 -46 -56q-17 -9 -54 -9z" />
    <glyph glyph-name="OE" unicode="&#xf0ce;" horiz-adv-x="998" 
d="M792 568q26 3 46 -12.5t23 -40.5q3 -26 -12 -45.5t-40 -23.5q-26 -4 -46.5 12t-23.5 41q-3 26 12.5 46t40.5 23zM924 568q26 3 46 -12.5t23 -40.5q3 -26 -12 -45.5t-40 -23.5q-26 -4 -46.5 12t-23.5 41q-3 26 12.5 46t40.5 23zM346 -64q26 3 46 -12.5t23 -40.5
q3 -26 -12 -45.5t-40 -23.5q-26 -4 -46.5 12t-23.5 41q-3 26 12.5 46t40.5 23zM545 90h-565v-90h575q97 0 157 46q67 51 67 145q0 181 -224 181h-440l-60 -92h490q133 1 133 -89q0 -101 -133 -101zM667 0q25 11 71 43q15 15 36 47h87v282h90v-372h-284z" />
    <glyph glyph-name="oe" unicode="&#xf0cf;" horiz-adv-x="1164" 
d="M490 -32q26 3 46 -12.5t23 -40.5q3 -26 -12 -45.5t-40 -23.5q-26 -4 -46.5 12t-23.5 41q-3 26 12.5 46t40.5 23zM968 568q26 3 46 -12.5t23 -40.5q3 -26 -12 -45.5t-40 -23.5q-26 -4 -46.5 12t-23.5 41q-3 26 12.5 46t40.5 23zM1100 568q26 3 46 -12.5t23 -40.5
q3 -26 -12 -45.5t-40 -23.5q-26 -4 -46.5 12t-23.5 41q-3 26 12.5 46t40.5 23zM685 90q133 0 133 101q0 90 -133 89h-490l60 92h440q224 0 224 -181q0 -94 -67 -145q-60 -46 -157 -46h-415q-133 0 -133 -101q0 -90 133 -89h490l-60 -92h-440q-224 0 -224 181q0 94 67 145
q60 46 157 46h415zM1122 0v370h-90v-280h-106q-10 -15 -36 -47q-20 -20 -71 -43h303z" />
    <glyph glyph-name="endash" unicode="&#xf0d0;" horiz-adv-x="998" 
d="M796 568q26 3 46 -12.5t23 -40.5q3 -26 -12 -45.5t-40 -23.5q-26 -4 -46.5 12t-23.5 41q-3 26 12.5 46t40.5 23zM928 568q26 3 46 -12.5t23 -40.5q3 -26 -12 -45.5t-40 -23.5q-26 -4 -46.5 12t-23.5 41q-3 26 12.5 46t40.5 23zM545 90h-565v-90h575q97 0 157 46
q67 51 67 145q0 181 -224 181h-440l-60 -92h490q133 1 133 -89q0 -101 -133 -101zM667 0q25 11 71 43q15 15 36 47h87v282h90v-372h-284z" />
    <glyph glyph-name="emdash" unicode="&#xf0d1;" horiz-adv-x="1164" 
d="M968 568q26 3 46 -12.5t23 -40.5q3 -26 -12 -45.5t-40 -23.5q-26 -4 -46.5 12t-23.5 41q-3 26 12.5 46t40.5 23zM1100 568q26 3 46 -12.5t23 -40.5q3 -26 -12 -45.5t-40 -23.5q-26 -4 -46.5 12t-23.5 41q-3 26 12.5 46t40.5 23zM685 90q133 0 133 101q0 90 -133 89h-490
l60 92h440q224 0 224 -181q0 -94 -67 -145q-60 -46 -157 -46h-415q-133 0 -133 -101q0 -90 133 -89h490l-60 -92h-440q-224 0 -224 181q0 94 67 145q60 46 157 46h415zM1122 0v370h-90v-280h-106q-10 -15 -36 -47q-20 -20 -71 -43h303z" />
    <glyph glyph-name="quotedblleft" unicode="&#xf0d2;" horiz-adv-x="660" 
d="M444 568q26 3 46 -12.5t23 -40.5q3 -26 -12 -45.5t-40 -23.5q-26 -4 -46.5 12t-23.5 41q-3 26 12.5 46t40.5 23zM576 568q26 3 46 -12.5t23 -40.5q3 -26 -12 -45.5t-40 -23.5q-26 -4 -46.5 12t-23.5 41q-3 26 12.5 46t40.5 23zM432 0q-48 -80 -103 -80q-14 0 -27 8
q-68 40 -154 88l13 100l68.5 -43.5t91.5 -48.5q50 10 50 95q0 55 -34.5 90t-95.5 35q-55 0 -81 -26q-22 -22 -34 -75l-14 -78q-11 -38 -46 -56q-18 -9 -61 -9h-25v90h25q35 0 35 14q0 90 41 148q55 77 176 77q88 0 144 -55q61 -60 61 -156q0 -14 -1 -28h82v283h90v-373h-201
z" />
    <glyph glyph-name="quotedblright" unicode="&#xf0d3;" horiz-adv-x="1032" 
d="M820 568q26 3 46 -12.5t23 -40.5q3 -26 -12 -45.5t-40 -23.5q-26 -4 -46.5 12t-23.5 41q-3 26 12.5 46t40.5 23zM952 568q26 3 46 -12.5t23 -40.5q3 -26 -12 -45.5t-40 -23.5q-26 -4 -46.5 12t-23.5 41q-3 26 12.5 46t40.5 23zM276 0q-133 -2 -133 -101q0 -90 133 -89
h130l-60 -92h-80q-224 0 -224 181q0 94 67 145q60 46 157 46q38 0 38 14q0 90 41 148q55 77 176 77q88 0 144 -55q61 -60 61 -156q0 -14 -1 -28h163v280h90v-370h-282q-48 -80 -103 -80q-14 0 -27 8q-68 40 -154 88l13 100l68.5 -43.5t91.5 -48.5q50 10 50 95q0 55 -34.5 90
t-95.5 35q-55 0 -81 -26q-22 -22 -34 -75l-14 -78q-11 -38 -46 -56q-17 -9 -54 -9z" />
    <glyph glyph-name="quoteleft" unicode="&#xf0d4;" horiz-adv-x="2242" 
d="M1209 -1q-33 0 -52 59q-29 90 -41 109q-9 14 -70 10q9 -51 9 -67q0 -54 -48 -85q-41 -26 -99 -25q-560 -5 -631 12q-228 54 -228 240q0 104 83 177q76 68 205 93q8 -18 15 -33q18 -36 33 -51l-100 -20q-64 -16 -96 -46q-44 -40 -44 -114q0 -110 144 -156q34 -11 276 -11
q253 0 365 6q19 1 19 27q0 23 -13 57h-312l-71 101l489 1q177 0 186 -110q7 -83 69 -83h702q35 0 45 24q7 14 7 53q0 119 -104 192q-83 59 -165 58q-62 -1 -127 -52q-75 -58 -76 -134q105 -2 359 1q-5 -8 -36 -56q-10 -17 -19 -34l-403 -2q-8 93 8 141q32 95 115.5 159
t181.5 64q143 0 250 -93.5t106 -216.5q-1 -101 -28.5 -140t-100.5 -49q-41 -5 -199 -5zM522 -74q26 3 46 -12.5t23 -40.5q3 -26 -12 -45.5t-40 -23.5q-26 -4 -46.5 12t-23.5 41q-3 26 12.5 46t40.5 23zM654 -74q26 3 46 -12.5t23 -40.5q3 -26 -12 -45.5t-40 -23.5
q-26 -4 -46.5 12t-23.5 41q-3 26 12.5 46t40.5 23zM1781 706q26 3 46 -12.5t23 -40.5q3 -26 -12 -45.5t-40 -23.5q-26 -4 -46.5 12t-23.5 41q-3 26 12.5 46t40.5 23z" />
    <glyph glyph-name="quoteright" unicode="&#xf0d5;" horiz-adv-x="588" 
d="M206 109l-137 515l87 27l137 -519zM520 707l-1 -589q-9 -24 -21 -44q-28 -47 -64 -65q-117 -57 -245 -51q-47 2 -96 33.5t-52 61.5l81 53q39 -54 81 -54q227 0 227 146v509h90z" />
    <glyph glyph-name="divide" unicode="&#xf0d6;" horiz-adv-x="998" 
d="M346 -64q26 3 46 -12.5t23 -40.5q3 -26 -12 -45.5t-40 -23.5q-26 -4 -46.5 12t-23.5 41q-3 26 12.5 46t40.5 23zM545 90h-565v-90h575q97 0 157 46q67 51 67 145q0 181 -224 181h-440l-60 -92h490q133 1 133 -89q0 -101 -133 -101zM667 0q25 11 71 43q15 15 36 47h87v622
h90v-712h-284z" />
    <glyph glyph-name="lozenge" unicode="&#xf0d7;" horiz-adv-x="998" 
d="M545 90h-565v-90h575q97 0 157 46q67 51 67 145q0 181 -224 181h-440l-60 -92h490q133 1 133 -89q0 -101 -133 -101zM667 0q25 11 71 43q15 15 36 47h87v622h90v-712h-284z" />
    <glyph glyph-name="ydieresis" unicode="&#xf0d8;" horiz-adv-x="998" 
d="M346 569q26 3 46 -12.5t23 -40.5q3 -26 -12 -45.5t-40 -23.5q-26 -4 -46.5 12t-23.5 41q-3 26 12.5 46t40.5 23zM545 90h-565v-90h575q97 0 157 46q67 51 67 145q0 181 -224 181h-440l-60 -92h490q133 1 133 -89q0 -101 -133 -101zM667 0q25 11 71 43q15 15 36 47h87v622
h90v-712h-284z" />
    <glyph glyph-name="Ydieresis" unicode="&#xf0d9;" horiz-adv-x="660" 
d="M432 0q-48 -80 -103 -80q-14 0 -27 8q-68 40 -154 88l13 100l68.5 -43.5t91.5 -48.5q50 10 50 95q0 55 -34.5 90t-95.5 35q-55 0 -81 -26q-22 -22 -34 -75l-14 -78q-11 -38 -46 -56q-18 -9 -61 -9h-25v90h25q35 0 35 14q0 90 41 148q55 77 176 77q88 0 144 -55
q61 -60 61 -156q0 -14 -1 -28h82v622h90v-712h-201z" />
    <glyph glyph-name="fraction" unicode="&#xf0da;" horiz-adv-x="1072" 
d="M920 90v622h90v-712h-322q-48 -80 -103 -80q-14 0 -27 8q-68 40 -154 88l13 100l68.5 -43.5t91.5 -48.5q50 10 50 95q0 55 -34.5 90t-95.5 35q-55 0 -81 -26q-22 -22 -34 -75q-7 -39 -14 -77q-11 -39 -46 -57q-17 -9 -54 -9q-133 -2 -133 -101q0 -90 133 -89h130l-60 -92
h-80q-224 0 -224 181q0 94 67 145q60 46 157 46q38 0 38 14q0 90 41 148q55 77 176 77q88 0 144 -55q61 -60 61 -156q0 -14 -1 -28h203z" />
    <glyph glyph-name="currency" unicode="&#xf0db;" horiz-adv-x="1716" 
d="M1209 -1q-33 0 -52 59q-29 90 -41 109q-9 14 -70 10q9 -51 9 -67q0 -54 -48 -85q-41 -26 -99 -25q-560 -5 -631 12q-228 54 -228 240q0 104 83 177q76 68 205 93q8 -18 15 -33q18 -36 33 -51l-100 -20q-64 -16 -96 -46q-44 -40 -44 -114q0 -110 144 -156q34 -11 276 -11
q253 0 365 6q19 1 19 27q0 23 -13 57h-312l-71 101l489 1q177 0 186 -110q7 -83 69 -83h223v622h90v-712z" />
    <glyph glyph-name="guilsinglleft" unicode="&#xf0dc;" horiz-adv-x="1716" 
d="M1209 -1q-33 0 -52 59q-29 90 -41 109q-9 14 -70 10q9 -51 9 -67q0 -54 -48 -85q-41 -26 -99 -25q-560 -5 -631 12q-228 54 -228 240q0 104 83 177q76 68 205 93q8 -18 15 -33q18 -36 33 -51l-100 -20q-64 -16 -96 -46q-44 -40 -44 -114q0 -110 144 -156q34 -11 276 -11
q253 0 365 6q19 1 19 27q0 23 -13 57h-312l-71 101l489 1q177 0 186 -110q7 -83 69 -83h223v622h90v-712zM522 -74q26 3 46 -12.5t23 -40.5q3 -26 -12 -45.5t-40 -23.5q-26 -4 -46.5 12t-23.5 41q-3 26 12.5 46t40.5 23zM654 -74q26 3 46 -12.5t23 -40.5q3 -26 -12 -45.5
t-40 -23.5q-26 -4 -46.5 12t-23.5 41q-3 26 12.5 46t40.5 23z" />
    <glyph glyph-name="guilsinglright" unicode="&#xf0dd;" horiz-adv-x="1455" 
d="M774 90q-10 -16 -36 -47q-20 -20 -71 -43h228q43 0 61 9q35 18 46 57q7 38 14 77q12 53 34 75q26 26 81 26q61 0 95.5 -35t34.5 -90q0 -85 -50 -95q-23 5 -91.5 48.5l-68.5 43.5l-13 -100q41 -22 154 -88q13 -8 27 -8q44 0 96 72q26 36 31 63q5 32 5 62q0 97 -60 157
q-56 55 -144 55q-121 0 -176 -77q-41 -58 -41 -148q0 -14 -35 -14h-121zM545 90h-565v-90h575q97 0 157 46q67 51 67 145q0 181 -224 181h-440l-60 -92h490q133 1 133 -89q0 -101 -133 -101zM482 -56q26 3 46 -12.5t23 -40.5q3 -26 -12 -45.5t-40 -23.5q-26 -4 -46.5 12
t-23.5 41q-3 26 12.5 46t40.5 23z" />
    <glyph glyph-name="fi" unicode="&#xf0de;" horiz-adv-x="1455" 
d="M774 90q-10 -16 -36 -47q-20 -20 -71 -43h228q43 0 61 9q35 18 46 57q7 38 14 77q12 53 34 75q26 26 81 26q61 0 95.5 -35t34.5 -90q0 -85 -50 -95q-23 5 -91.5 48.5l-68.5 43.5l-13 -100q41 -22 154 -88q13 -8 27 -8q44 0 96 72q26 36 31 63q5 32 5 62q0 97 -60 157
q-56 55 -144 55q-121 0 -176 -77q-41 -58 -41 -148q0 -14 -35 -14h-121zM545 90h-565v-90h575q97 0 157 46q67 51 67 145q0 181 -224 181h-440l-60 -92h490q133 1 133 -89q0 -101 -133 -101z" />
    <glyph glyph-name="fl" unicode="&#xf0df;" horiz-adv-x="1455" 
d="M774 90q-10 -16 -36 -47q-20 -20 -71 -43h228q43 0 61 9q35 18 46 57q7 38 14 77q12 53 34 75q26 26 81 26q61 0 95.5 -35t34.5 -90q0 -85 -50 -95q-23 5 -91.5 48.5l-68.5 43.5l-13 -100q41 -22 154 -88q13 -8 27 -8q44 0 96 72q26 36 31 63q5 32 5 62q0 97 -60 157
q-56 55 -144 55q-121 0 -176 -77q-41 -58 -41 -148q0 -14 -35 -14h-121zM545 90h-565v-90h575q97 0 157 46q67 51 67 145q0 181 -224 181h-440l-60 -92h490q133 1 133 -89q0 -101 -133 -101zM482 580q26 3 46 -12.5t23 -40.5q3 -26 -12 -45.5t-40 -23.5q-26 -4 -46.5 12
t-23.5 41q-3 26 12.5 46t40.5 23z" />
    <glyph glyph-name="daggerdbl" unicode="&#xf0e0;" horiz-adv-x="972" 
d="M432 0q-48 -80 -103 -80q-14 0 -27 8q-68 40 -154 88l13 100l68.5 -43.5t91.5 -48.5q50 10 50 95q0 55 -34.5 90t-95.5 35q-55 0 -81 -26q-22 -22 -34 -75l-14 -78q-11 -38 -46 -56q-18 -9 -61 -9h-25v90h25q35 0 35 14q0 90 41 148q55 77 176 77q88 0 144 -55
q61 -60 61 -156q0 -14 -1 -28h30q35 0 35 14q0 90 41 148q55 77 176 77q88 0 144 -55q60 -60 60 -157q0 -30 -5 -62q-5 -27 -31 -63q-52 -72 -96 -72q-14 0 -27 8q-68 40 -154 88l13 100l68.5 -43.5t91.5 -48.5q50 10 50 95q0 55 -34.5 90t-95.5 35q-55 0 -81 -26
q-22 -22 -34 -75l-14 -78q-11 -38 -46 -56q-18 -9 -61 -9h-59z" />
    <glyph glyph-name="periodcentered" unicode="&#xf0e1;" horiz-adv-x="1310" 
d="M756 0q-48 -80 -103 -80q-14 0 -27 8q-68 40 -154 88l13 100l68.5 -43.5t91.5 -48.5q50 10 50 95q0 55 -34.5 90t-95.5 35q-55 0 -81 -26q-22 -22 -34 -75l-14 -78q-11 -38 -46 -56q-14 -7 -61 -9l-49 -2q-63 -3 -93 -20q-40 -23 -40 -81q0 -78 3 -89q5 -17 34 -16
q81 2 272 0l-100 -94q-211 -3 -260 20q-39 18 -46 47q-4 18 -4 132q0 93 67 143q59 45 157 48l59 2q35 1 35 14q0 90 41 148q55 77 176 77q88 0 144 -55q61 -60 61 -156q0 -14 -1 -28h40q35 0 35 14q0 90 41 148q55 77 176 77q88 0 144 -55q60 -60 60 -157q0 -30 -5 -62
q-5 -27 -31 -63q-52 -72 -96 -72q-14 0 -27 8q-68 40 -154 88l13 100l68.5 -43.5t91.5 -48.5q50 10 50 95q0 55 -34.5 90t-95.5 35q-55 0 -81 -26q-22 -22 -34 -75l-14 -78q-11 -38 -46 -56q-18 -9 -61 -9h-69z" />
    <glyph glyph-name="quotesinglbase" unicode="&#xf0e2;" horiz-adv-x="998" 
d="M894 568q26 3 46 -12.5t23 -40.5q3 -26 -12 -45.5t-40 -23.5q-26 -4 -46.5 12t-23.5 41q-3 26 12.5 46t40.5 23zM294 -48q26 3 46 -12.5t23 -40.5q3 -26 -12 -45.5t-40 -23.5q-26 -4 -46.5 12t-23.5 41q-3 26 12.5 46t40.5 23zM545 90h-565v-90h575q97 0 157 46
q67 51 67 145q0 181 -224 181h-440l-60 -92h490q133 1 133 -89q0 -101 -133 -101zM667 0q25 11 71 43q15 15 36 47h87v282h90v-372h-284z" />
    <glyph glyph-name="quotedblbase" unicode="&#xf0e3;" horiz-adv-x="1164" 
d="M518 -36q26 3 46 -12.5t23 -40.5q3 -26 -12 -45.5t-40 -23.5q-26 -4 -46.5 12t-23.5 41q-3 26 12.5 46t40.5 23zM1058 588q26 3 46 -12.5t23 -40.5q3 -26 -12 -45.5t-40 -23.5q-26 -4 -46.5 12t-23.5 41q-3 26 12.5 46t40.5 23zM685 90q133 0 133 101q0 90 -133 89h-490
l60 92h440q224 0 224 -181q0 -94 -67 -145q-60 -46 -157 -46h-415q-133 0 -133 -101q0 -90 133 -89h490l-60 -92h-440q-224 0 -224 181q0 94 67 145q60 46 157 46h415zM1122 0v370h-90v-280h-106q-10 -15 -36 -47q-20 -20 -71 -43h303z" />
    <glyph glyph-name="perthousand" unicode="&#xf0e4;" horiz-adv-x="660" 
d="M561 565q26 3 46 -12.5t23 -40.5q3 -26 -12 -45.5t-40 -23.5q-26 -4 -46.5 12t-23.5 41q-3 26 12.5 46t40.5 23zM432 0q-48 -80 -103 -80q-14 0 -27 8q-68 40 -154 88l13 100l68.5 -43.5t91.5 -48.5q50 10 50 95q0 55 -34.5 90t-95.5 35q-55 0 -81 -26q-22 -22 -34 -75
l-14 -78q-11 -38 -46 -56q-18 -9 -61 -9h-25v90h25q35 0 35 14q0 90 41 148q55 77 176 77q88 0 144 -55q61 -60 61 -156q0 -14 -1 -28h82v283h90v-373h-201z" />
    <glyph glyph-name="Acircumflex" unicode="&#xf0e5;" horiz-adv-x="1032" 
d="M912 568q26 3 46 -12.5t23 -40.5q3 -26 -12 -45.5t-40 -23.5q-26 -4 -46.5 12t-23.5 41q-3 26 12.5 46t40.5 23zM276 0q-133 -2 -133 -101q0 -90 133 -89h130l-60 -92h-80q-224 0 -224 181q0 94 67 145q60 46 157 46q38 0 38 14q0 90 41 148q55 77 176 77q88 0 144 -55
q61 -60 61 -156q0 -14 -1 -28h163v280h90v-370h-282q-48 -80 -103 -80q-14 0 -27 8q-68 40 -154 88l13 100l68.5 -43.5t91.5 -48.5q50 10 50 95q0 55 -34.5 90t-95.5 35q-55 0 -81 -26q-22 -22 -34 -75l-14 -78q-11 -38 -46 -56q-17 -9 -54 -9z" />
    <glyph glyph-name="Ecircumflex" unicode="&#xf0e6;" horiz-adv-x="1723" 
d="M1209 -1q-33 0 -52 59q-29 90 -41 109q-9 14 -70 10q9 -51 9 -67q0 -54 -48 -85q-41 -26 -99 -25q-560 -5 -631 12q-228 54 -228 240q0 104 83 177q76 68 205 93q8 -18 15 -33q18 -36 33 -51l-100 -20q-64 -16 -96 -46q-44 -40 -44 -114q0 -110 144 -156q34 -11 276 -11
q253 0 365 6q19 1 19 27q0 23 -13 57h-312l-71 101l489 1q177 0 186 -110q7 -83 69 -83h243v280h90v-370zM522 -74q26 3 46 -12.5t23 -40.5q3 -26 -12 -45.5t-40 -23.5q-26 -4 -46.5 12t-23.5 41q-3 26 12.5 46t40.5 23zM654 -74q26 3 46 -12.5t23 -40.5q3 -26 -12 -45.5
t-40 -23.5q-26 -4 -46.5 12t-23.5 41q-3 26 12.5 46t40.5 23zM1570 568q26 3 46 -12.5t23 -40.5q3 -26 -12 -45.5t-40 -23.5q-26 -4 -46.5 12t-23.5 41q-3 26 12.5 46t40.5 23z" />
    <glyph glyph-name="Aacute" unicode="&#xf0e7;" horiz-adv-x="660" 
d="M453 -65q26 3 46 -12.5t23 -40.5q3 -26 -12 -45.5t-40 -23.5q-26 -4 -46.5 12t-23.5 41q-3 26 12.5 46t40.5 23zM585 -65q26 3 46 -12.5t23 -40.5q3 -26 -12 -45.5t-40 -23.5q-26 -4 -46.5 12t-23.5 41q-3 26 12.5 46t40.5 23zM432 0q-48 -80 -103 -80q-14 0 -27 8
q-68 40 -154 88l13 100l68.5 -43.5t91.5 -48.5q50 10 50 95q0 55 -34.5 90t-95.5 35q-55 0 -81 -26q-22 -22 -34 -75l-14 -78q-11 -38 -46 -56q-18 -9 -61 -9h-25v90h25q35 0 35 14q0 90 41 148q55 77 176 77q88 0 144 -55q61 -60 61 -156q0 -14 -1 -28h82v283h90v-373h-201
z" />
    <glyph glyph-name="Edieresis" unicode="&#xf0e8;" horiz-adv-x="1032" 
d="M800 -68q26 3 46 -12.5t23 -40.5q3 -26 -12 -45.5t-40 -23.5q-26 -4 -46.5 12t-23.5 41q-3 26 12.5 46t40.5 23zM932 -68q26 3 46 -12.5t23 -40.5q3 -26 -12 -45.5t-40 -23.5q-26 -4 -46.5 12t-23.5 41q-3 26 12.5 46t40.5 23zM276 0q-133 -2 -133 -101q0 -90 133 -89
h130l-60 -92h-80q-224 0 -224 181q0 94 67 145q60 46 157 46q38 0 38 14q0 90 41 148q55 77 176 77q88 0 144 -55q61 -60 61 -156q0 -14 -1 -28h163v280h90v-370h-282q-48 -80 -103 -80q-14 0 -27 8q-68 40 -154 88l13 100l68.5 -43.5t91.5 -48.5q50 10 50 95q0 55 -34.5 90
t-95.5 35q-55 0 -81 -26q-22 -22 -34 -75l-14 -78q-11 -38 -46 -56q-17 -9 -54 -9z" />
    <glyph glyph-name="Egrave" unicode="&#xf0e9;" horiz-adv-x="700" 
d="M324 0q0 -48 -29 -95q-25 -39 -54 -56q-64 -49 -278 -49l17 92q126 0 172 15q82 27 82 116v349h90v-282h196v280h90v-280h114v-91zM558 -56q26 3 46 -12.5t23 -40.5q3 -26 -12 -45.5t-40 -23.5q-26 -4 -46.5 12t-23.5 41q-3 26 12.5 46t40.5 23z" />
    <glyph glyph-name="Iacute" unicode="&#xf0ea;" horiz-adv-x="892" 
d="M764 -64q26 3 46 -12.5t23 -40.5q3 -26 -12 -45.5t-40 -23.5q-26 -4 -46.5 12t-23.5 41q-3 26 12.5 46t40.5 23zM470 572q26 3 46 -12.5t23 -40.5q3 -26 -12 -45.5t-40 -23.5q-26 -4 -46.5 12t-23.5 41q-3 26 12.5 46t40.5 23zM712 90v280h90v-280h114v-90h-329
q-31 -61 -103 -100q-86 -46 -207 -46q-143 0 -213 82q-50 59 -50 135q0 138 103 204q43 27 103 38l31 -86q-62 0 -102 -33q-45 -39 -45 -113q0 -58 44 -95q50 -42 139 -42q93 0 160 44.5t67 101.5v281h90v-281h108z" />
    <glyph glyph-name="Icircumflex" unicode="&#xf0eb;" horiz-adv-x="700" 
d="M324 0q0 -48 -29 -95q-25 -39 -54 -56q-64 -49 -278 -49l17 92q126 0 172 15q82 27 82 116v349h90v-282h196v280h90v-280h114v-91zM472 568q26 3 46 -12.5t23 -40.5q3 -26 -12 -45.5t-40 -23.5q-26 -4 -46.5 12t-23.5 41q-3 26 12.5 46t40.5 23zM604 568q26 3 46 -12.5
t23 -40.5q3 -26 -12 -45.5t-40 -23.5q-26 -4 -46.5 12t-23.5 41q-3 26 12.5 46t40.5 23z" />
    <glyph glyph-name="Idieresis" unicode="&#xf0ec;" horiz-adv-x="892" 
d="M692 580q26 3 46 -12.5t23 -40.5q3 -26 -12 -45.5t-40 -23.5q-26 -4 -46.5 12t-23.5 41q-3 26 12.5 46t40.5 23zM824 580q26 3 46 -12.5t23 -40.5q3 -26 -12 -45.5t-40 -23.5q-26 -4 -46.5 12t-23.5 41q-3 26 12.5 46t40.5 23zM470 572q26 3 46 -12.5t23 -40.5
q3 -26 -12 -45.5t-40 -23.5q-26 -4 -46.5 12t-23.5 41q-3 26 12.5 46t40.5 23zM712 90v280h90v-280h114v-90h-329q-31 -61 -103 -100q-86 -46 -207 -46q-143 0 -213 82q-50 59 -50 135q0 138 103 204q43 27 103 38l31 -86q-62 0 -102 -33q-45 -39 -45 -113q0 -58 44 -95
q50 -42 139 -42q93 0 160 44.5t67 101.5v281h90v-281h108z" />
    <glyph glyph-name="Igrave" unicode="&#xf0ed;" horiz-adv-x="700" 
d="M324 0q0 -48 -29 -95q-25 -39 -54 -56q-64 -49 -278 -49l17 92q126 0 172 15q82 27 82 116v349h90v-282h196v280h90v-280h114v-91zM472 562q26 3 46 -12.5t23 -40.5q3 -26 -12 -45.5t-40 -23.5q-26 -4 -46.5 12t-23.5 41q-3 26 12.5 46t40.5 23zM604 562q26 3 46 -12.5
t23 -40.5q3 -26 -12 -45.5t-40 -23.5q-26 -4 -46.5 12t-23.5 41q-3 26 12.5 46t40.5 23zM538 682q26 3 46 -12.5t23 -40.5q3 -26 -12 -45.5t-40 -23.5q-26 -4 -46.5 12t-23.5 41q-3 26 12.5 46t40.5 23z" />
    <glyph glyph-name="Oacute" unicode="&#xf0ee;" horiz-adv-x="588" 
d="M206 109l-137 515l87 27l137 -519zM520 707l-1 -617h91v-90l-168 1q-182 -47 -253 -43q-58 3 -140 71l65 69q47 -46 89 -46q227 0 227 146v509h90z" />
    <glyph glyph-name="Ocircumflex" unicode="&#xf0ef;" horiz-adv-x="700" 
d="M324 0q0 -48 -29 -95q-25 -39 -54 -56q-64 -49 -278 -49l17 92q126 0 172 15q82 27 82 116v349h90v-282h196v280h90v-280h114v-91zM558 580q26 3 46 -12.5t23 -40.5q3 -26 -12 -45.5t-40 -23.5q-26 -4 -46.5 12t-23.5 41q-3 26 12.5 46t40.5 23z" />
    <glyph glyph-name="apple" unicode="&#xf0f0;" horiz-adv-x="892" 
d="M748 576q26 3 46 -12.5t23 -40.5q3 -26 -12 -45.5t-40 -23.5q-26 -4 -46.5 12t-23.5 41q-3 26 12.5 46t40.5 23zM470 572q26 3 46 -12.5t23 -40.5q3 -26 -12 -45.5t-40 -23.5q-26 -4 -46.5 12t-23.5 41q-3 26 12.5 46t40.5 23zM712 90v280h90v-280h114v-90h-329
q-31 -61 -103 -100q-86 -46 -207 -46q-143 0 -213 82q-50 59 -50 135q0 138 103 204q43 27 103 38l31 -86q-62 0 -102 -33q-45 -39 -45 -113q0 -58 44 -95q50 -42 139 -42q93 0 160 44.5t67 101.5v281h90v-281h108z" />
    <glyph glyph-name="Ograve" unicode="&#xf0f1;" horiz-adv-x="700" 
d="M324 0q0 -48 -29 -95q-25 -39 -54 -56q-64 -49 -278 -49l17 92q126 0 172 15q82 27 82 116v349h90v-282h196v280h90v-280h114v-91zM472 -56q26 3 46 -12.5t23 -40.5q3 -26 -12 -45.5t-40 -23.5q-26 -4 -46.5 12t-23.5 41q-3 26 12.5 46t40.5 23zM604 -56q26 3 46 -12.5
t23 -40.5q3 -26 -12 -45.5t-40 -23.5q-26 -4 -46.5 12t-23.5 41q-3 26 12.5 46t40.5 23z" />
    <glyph glyph-name="Uacute" unicode="&#xf0f2;" horiz-adv-x="892" 
d="M688 -76q26 3 46 -12.5t23 -40.5q3 -26 -12 -45.5t-40 -23.5q-26 -4 -46.5 12t-23.5 41q-3 26 12.5 46t40.5 23zM820 -76q26 3 46 -12.5t23 -40.5q3 -26 -12 -45.5t-40 -23.5q-26 -4 -46.5 12t-23.5 41q-3 26 12.5 46t40.5 23zM470 572q26 3 46 -12.5t23 -40.5
q3 -26 -12 -45.5t-40 -23.5q-26 -4 -46.5 12t-23.5 41q-3 26 12.5 46t40.5 23zM712 90v280h90v-280h114v-90h-329q-31 -61 -103 -100q-86 -46 -207 -46q-143 0 -213 82q-50 59 -50 135q0 138 103 204q43 27 103 38l31 -86q-62 0 -102 -33q-45 -39 -45 -113q0 -58 44 -95
q50 -42 139 -42q93 0 160 44.5t67 101.5v281h90v-281h108z" />
    <glyph glyph-name="Ucircumflex" unicode="&#xf0f3;" horiz-adv-x="1468" 
d="M333 -62q26 3 46 -12.5t23 -40.5q3 -26 -12 -45.5t-40 -23.5q-26 -4 -46.5 12t-23.5 41q-3 26 12.5 46t40.5 23zM545 90h-565v-90h575q97 0 157 46q67 51 67 145q0 181 -224 181h-440l-60 -92h490q133 1 133 -89q0 -101 -133 -101zM774 90q-10 -15 -36 -47
q-20 -20 -71 -43h153q43 0 61 9q35 18 46 56l14 78q12 53 34 75q26 26 81 26q61 0 95.5 -35t34.5 -90q0 -85 -50 -95q-23 5 -91.5 48.5l-68.5 43.5l-13 -100q41 -22 154 -88q13 -8 27 -8q55 0 103 80h201v712h-90v-622h-82q1 14 1 28q0 96 -61 156q-56 55 -144 55
q-121 0 -176 -77q-41 -58 -41 -148q0 -14 -35 -14h-46z" />
    <glyph glyph-name="Ugrave" unicode="&#xf0f4;" horiz-adv-x="1468" 
d="M545 90h-565v-90h575q97 0 157 46q67 51 67 145q0 181 -224 181h-440l-60 -92h490q133 1 133 -89q0 -101 -133 -101zM774 90q-10 -15 -36 -47q-20 -20 -71 -43h153q43 0 61 9q35 18 46 56l14 78q12 53 34 75q26 26 81 26q61 0 95.5 -35t34.5 -90q0 -85 -50 -95
q-23 5 -91.5 48.5l-68.5 43.5l-13 -100q41 -22 154 -88q13 -8 27 -8q55 0 103 80h201v712h-90v-622h-82q1 14 1 28q0 96 -61 156q-56 55 -144 55q-121 0 -176 -77q-41 -58 -41 -148q0 -14 -35 -14h-46z" />
    <glyph glyph-name="dotlessi" unicode="&#xf0f5;" horiz-adv-x="1468" 
d="M318 580q26 3 46 -12.5t23 -40.5q3 -26 -12 -45.5t-40 -23.5q-26 -4 -46.5 12t-23.5 41q-3 26 12.5 46t40.5 23zM545 90h-565v-90h575q97 0 157 46q67 51 67 145q0 181 -224 181h-440l-60 -92h490q133 1 133 -89q0 -101 -133 -101zM774 90q-10 -15 -36 -47
q-20 -20 -71 -43h153q43 0 61 9q35 18 46 56l14 78q12 53 34 75q26 26 81 26q61 0 95.5 -35t34.5 -90q0 -85 -50 -95q-23 5 -91.5 48.5l-68.5 43.5l-13 -100q41 -22 154 -88q13 -8 27 -8q55 0 103 80h201v712h-90v-622h-82q1 14 1 28q0 96 -61 156q-56 55 -144 55
q-121 0 -176 -77q-41 -58 -41 -148q0 -14 -35 -14h-46z" />
    <glyph glyph-name="circumflex" unicode="&#xf0f6;" horiz-adv-x="518" 
d="M270 642l-13 -16q-12 45 -22 63q-13 23 -44 49l-11 64q52 -30 69 -65q11 -22 21 -95zM347 578q0 -76 -45 -76q-17 0 -32 11q-21 -44 -50 -47q-35 0 -37 50q-1 12 8 50l6 1q0 -46 27 -49q37 0 37 75l8 3q9 -40 33 -45q14 0 23 25q6 18 6 36q0 10 -1 12l7 6q10 -28 10 -52z
M489 174q0 -111 -66 -111q-29 0 -46 20q-9 11 -26 45q-27 -78 -90 -79q-62 -1 -93 81q-19 -50 -73 -50q-26 0 -46 12q-23 15 -23 39q0 15 26 74q15 26 41 42q13 8 55 25q0 43 7.5 60.5t40.5 40.5l15 -144q4 -40 11 -53q12 -23 44 -23q19 0 33 11.5t14 29.5q0 19 -5 34
l-19 82q-9 40 -10 64q-1 31 40 89l47 -203q22 -96 63 -96q14 0 14 19q0 15 -12 60l-23 87q-2 9 -8 30q-1 8 -3 22q0 9 6 31q8 18 29 51q9 -33 35 -148q22 -97 22 -142zM157 191l-3 38q-16 -3 -43 -15q-32 -15 -34 -26q0 -11 32 -15q14 0 23 4q5 1 25 14z" />
    <glyph glyph-name="tilde" unicode="&#xf0f7;" horiz-adv-x="806" 
d="M148 326q1 -34 26 -34q11 0 23 7.5t14 18.5l-14 92l15 32l23 -130q7 -17 26 -17q18 0 18 11q0 15 -13 59q-8 26 -16 53l11 26q32 -96 32 -127q0 -14 -7 -34q-9 -23 -21 -23q-3 0 -7 2q-5 -17 -5 -32q0 -59 72 -59q58 0 115 38q2 1 2 3q0 4 -31 9l-49 8q-3 2 -3 6
q0 9 13 26q27 12 35 17q15 11 17 26q2 16 -5 98q-6 71 -10 99l14 45q19 -170 30 -206q14 -46 58 -53l-4 78l17 35l6 -112q26 9 48 29q16 -12 25 -17q16 -9 31 -12q14 16 52 44q42 31 57 31t34.5 -12t19.5 -26q0 -13 -13 -31.5t-25 -24.5q-38 -18 -93 -18q-19 0 -39 2
q-20 -38 -30 -38q-3 0 -3 5q0 12 17 38q-33 11 -38 21q-34 -21 -41 -21q5 -98 9 -113q17 -57 79 -61l2 1q-17 13 -17 35q0 27 26 62q18 25 48 25q17 0 40 -11.5t23 -27.5q-21 8 -43 8q-19 0 -42 -8q-30 -10 -30 -25q0 -13 20 -32t35 -23q15 1 54.5 14t54.5 21l-14 -30
q-80 -43 -153 -43q-79 0 -97 59q-24 -52 -46 -52q-21 0 -54 35q-51 -46 -157 -46q-34 0 -58 5q4 -29 7 -42q7 -29 19 -41q36 -35 142 -35q92 0 133 25q12 31 22 31q3 0 3 -7q0 -11 -9 -35q5 -10 22 -10q20 0 39 9q17 53 26 53q4 0 4 -9q0 -14 -8 -34q23 -11 35 -11q6 0 7 3
q1 6 -7 31l14 29q9 -24 9 -42q0 -54 -35 -54q-18 0 -38 15q-13 -21 -48 -21q-38 0 -38 21q-36 -28 -150 -28q-78 0 -115 23q-47 29 -49 101q-28 -46 -38 -46q10 -17 10 -33q0 -41 -30 -41q-16 0 -49 19q-11 -25 -34 -38q-13 -2 -37 -6q-5 -3 -8 -3q-5 0 -5 4q0 3 31 17
q14 6 19 10l28 21q-9 16 -9 32q0 15 14 32.5t28 17.5q3 0 12.5 -5t16.5 -5q15 0 29 19l18 34q-31 10 -44 22q-24 21 -31 69h-2q-23 -40 -64 -40q-9 0 -25 4q-19 6 -19 12q0 23 41 51q32 22 62 31l-2 14l17 26q5 -74 9 -88q12 -50 53 -62l-11 106l15 35l14 -145q42 -4 76 -4
q84 0 144 31q7 23 12 29q2 2 3 2q3 0 3 -7q0 -8 -3 -20q29 -28 48 -28q21 0 33 34l-10 130q-60 -2 -71 59h-2q-8 -27 -11 -34q-8 -19 -22 -24l2 -1q56 4 56 -31q0 -23 -20 -37q-70 -48 -129 -48q-82 0 -82 72q0 25 13 54q-23 6 -30 34h-2q-12 -40 -45 -40q-40 0 -37 61
l-23 -19q-6 -6 -32 -6q-38 0 -38 15q0 10 11 26.5t20 20.5l61 29v9l13 29zM712 -27q0 15 10 40q12 29 25 29q16 0 29.5 -25.5t13.5 -42.5q0 -41 -31 -87q-33 -51 -72 -51q-12 0 -45 11.5t-33 19.5q0 3 4 3q7 0 24 -6t26 -6q56 -1 114 86l-6 17q-14 -21 -30 -21
q-12 0 -20.5 10.5t-8.5 22.5zM209 515q2 -14 12 -14q11 0 9 13l-3 17l6 9q6 -20 6 -31q0 -26 -18 -26q-11 0 -16 6q-15 -12 -24 -12q-18 0 -18 22q0 16 3 21l5 5q-1 -29 13 -29q10 0 16 13l-2 18l8 12zM361 333q-2 -51 -10 -59l-20 195l17 46zM472 446l4 20l158 75l-4 -18z
M609 377l-6 -19q-27 8 -27 32t21 36q102 58 170 82l-8 -21q-22 -7 -93 -41q-78 -38 -78 -49q0 -7 21 -20zM448 -141q2 11 9 11q5 0 2 -13q-1 -5 9 -5q9 0 10 11.5t8 11.5v-19q0 -16 -21 -16q-7 0 -11 3q-12 -12 -25 -12q-5 0 -12.5 6.5t-10.5 6.5t-31.5 -14t-54.5 -14
q-36 0 -36 7q0 5 26 5q34 0 64.5 15t33.5 15q6 0 15.5 -6.5l9.5 -6.5q14 0 15 14zM462 3l-20 -25l-39 28l-23 -29l-40 29l24 28l37 -28l23 26zM92 -29q0 -11 20 -22.5t32 -11.5q7 0 6 5q-3 15 -17.5 26.5t-29.5 11.5q-11 0 -11 -9zM775 311q0 5 -14.5 13t-21.5 8
q-34 0 -86 -48q17 -4 67 4q55 8 55 23zM70 332q-1 -9 19 -9q23 0 42 11l-1 32q-60 -28 -60 -34zM767 -19q-5 25 -21 25q-13 0 -17 -20q4 -14 25 -14q11 0 13 9zM43 143q0 -8 25 -8q26 0 47 19l-1 31q-71 -29 -71 -42z" />
    <glyph glyph-name="macron" unicode="&#xf0f8;" horiz-adv-x="576" 
d="M47 376h470v-445h-470v445z" />
    <glyph glyph-name="breve" unicode="&#xf0f9;" horiz-adv-x="85" 
d="M-20 0l-12 90h144l18 -90h-150z" />
    <glyph glyph-name="dotaccent" unicode="&#xf0fa;" horiz-adv-x="1072" 
d="M872 -172q-20 2 -33 18.5t-10 36.5q3 21 19.5 33.5t36.5 9.5q21 -3 32.5 -18.5t9.5 -36.5t-18 -33t-37 -10zM977 -172q-20 2 -32 18.5t-10 36.5q2 21 19 33.5t37 9.5t32.5 -19t9.5 -36q-3 -21 -19 -33t-37 -10zM925 -268q-21 2 -33 18t-10 37t19 33.5t37 9.5t32 -19
t10 -36q-2 -21 -18 -33t-37 -10zM555 0q-221 0 -166 -1q-94 2 -140 13q-228 57 -228 240q0 110 82 190t206 80q13 0 24 -33q14 -40 24 -51l-100 -16q-64 -13 -96 -44q-44 -41 -44 -120q0 -114 144 -156q38 -11 110 -13q-29 1 118 1h432v280h90v-280h78v-90h-534z" />
    <glyph glyph-name="ring" unicode="&#xf0fb;" horiz-adv-x="1074" 
d="M828 -152q-20 2 -33 18.5t-10 36.5q3 21 19.5 33.5t36.5 9.5q21 -3 32.5 -18.5t9.5 -36.5t-18 -33t-37 -10zM933 -152q-20 2 -32 18.5t-10 36.5q2 21 19 33.5t37 9.5t32.5 -19t9.5 -36q-3 -21 -19 -33t-37 -10zM881 -248q-21 2 -33 18t-10 37t19 33.5t37 9.5t32 -19
t10 -36q-2 -21 -18 -33t-37 -10zM555 0q-221 0 -166 -1q-94 2 -140 13q-228 57 -228 240q0 110 82 190t206 80q13 0 24 -33q14 -40 24 -51l-100 -16q-64 -13 -96 -44q-44 -41 -44 -120q0 -114 144 -156q38 -11 110 -13q-29 1 118 1h432v280h90v-370h-456z" />
    <glyph glyph-name="cedilla" unicode="&#xf0fc;" horiz-adv-x="830" 
d="M316 -152q-20 2 -33 18.5t-10 36.5q3 21 19.5 33.5t36.5 9.5q21 -3 32.5 -18.5t9.5 -36.5t-18 -33t-37 -10zM421 -152q-20 2 -32 18.5t-10 36.5q2 21 19 33.5t37 9.5t32.5 -19t9.5 -36q-3 -21 -19 -33t-37 -10zM369 -248q-21 2 -33 18t-10 37t19 33.5t37 9.5t32 -19
t10 -36q-2 -21 -18 -33t-37 -10zM545 90h-565v-90h575q97 0 157 46q67 51 67 145q0 181 -224 181h-440l-60 -92h490q133 1 133 -89q0 -101 -133 -101z" />
    <glyph glyph-name="hungarumlaut" unicode="&#xf0fd;" horiz-adv-x="876" 
d="M364 -152q-20 2 -33 18.5t-10 36.5q3 21 19.5 33.5t36.5 9.5q21 -3 32.5 -18.5t9.5 -36.5t-18 -33t-37 -10zM469 -152q-20 2 -32 18.5t-10 36.5q2 21 19 33.5t37 9.5t32.5 -19t9.5 -36q-3 -21 -19 -33t-37 -10zM417 -248q-21 2 -33 18t-10 37t19 33.5t37 9.5t32 -19
t10 -36q-2 -21 -18 -33t-37 -10zM892 0v90h-118q-10 -15 -36 -47q-20 -20 -71 -43h225zM545 90h-565v-90h575q97 0 157 46q67 51 67 145q0 181 -224 181h-440l-60 -92h490q133 1 133 -89q0 -101 -133 -101z" />
    <glyph glyph-name="ogonek" unicode="&#xf0fe;" horiz-adv-x="1044" 
d="M1074 0v90h-148q-10 -15 -36 -47q-20 -20 -71 -43h255zM364 -124q-20 2 -33 18.5t-10 36.5q3 21 19.5 33.5t36.5 9.5q21 -3 32.5 -18.5t9.5 -36.5t-18 -33t-37 -10zM469 -124q-20 2 -32 18.5t-10 36.5q2 21 19 33.5t37 9.5t32.5 -19t9.5 -36q-3 -21 -19 -33t-37 -10z
M417 -220q-21 2 -33 18t-10 37t19 33.5t37 9.5t32 -19t10 -36q-2 -21 -18 -33t-37 -10zM685 90q133 0 133 101q0 90 -133 89h-490l60 92h440q224 0 224 -181q0 -94 -67 -145q-60 -46 -157 -46h-415q-133 0 -133 -101q0 -90 133 -89h68q-2 0 20 -24.5t50 -24.5q59 0 73 49
h279l-60 -92h-440q-224 0 -224 181q0 94 67 145q60 46 157 46h415z" />
    <glyph glyph-name="caron" unicode="&#xf0ff;" horiz-adv-x="952" 
d="M364 -124q-20 2 -33 18.5t-10 36.5q3 21 19.5 33.5t36.5 9.5q21 -3 32.5 -18.5t9.5 -36.5t-18 -33t-37 -10zM469 -124q-20 2 -32 18.5t-10 36.5q2 21 19 33.5t37 9.5t32.5 -19t9.5 -36q-3 -21 -19 -33t-37 -10zM417 -220q-21 2 -33 18t-10 37t19 33.5t37 9.5t32 -19
t10 -36q-2 -21 -18 -33t-37 -10zM685 90q133 0 133 101q0 90 -133 89h-490l60 92h440q224 0 224 -181q0 -94 -67 -145q-60 -46 -157 -46h-415q-133 0 -133 -101q0 -90 133 -89h68q-2 0 20 -24.5t50 -24.5q59 0 73 49h279l-60 -92h-440q-224 0 -224 181q0 94 67 145
q60 46 157 46h415z" />
    <glyph glyph-name="uniF100" unicode="&#xf100;" horiz-adv-x="500" 
 />
  </font>
</defs>
</svg>
