<?xml version="1.0" standalone="no"?>
<!DOCTYPE svg PUBLIC "-//W3C//DTD SVG 1.1//EN" "http://www.w3.org/Graphics/SVG/1.1/DTD/svg11.dtd" >
<svg xmlns="http://www.w3.org/2000/svg" xmlns:xlink="http://www.w3.org/1999/xlink" version="1.1">
<metadata>
Created by FontForge 20141024 at Wed May 20 14:22:44 2015
 By System Administrator
(c)G.M.
</metadata>
<defs>
<font id="WalkwayExpandBold" horiz-adv-x="709" >
  <font-face 
    font-family="Walkway Expand Bold"
    font-weight="400"
    font-stretch="normal"
    units-per-em="1000"
    panose-1="0 0 4 0 0 0 0 0 0 0"
    ascent="800"
    descent="-200"
    x-height="488"
    cap-height="678"
    bbox="-215 -179 1407 874"
    underline-thickness="30"
    underline-position="-118"
    unicode-range="U+0020-2122"
  />
<missing-glyph horiz-adv-x="500" 
d="M63 0v874h375v-874h-375zM125 63h250v749h-250v-749z" />
    <glyph glyph-name=".notdef" horiz-adv-x="500" 
d="M63 0v874h375v-874h-375zM125 63h250v749h-250v-749z" />
    <glyph glyph-name="glyph1" horiz-adv-x="0" 
 />
    <glyph glyph-name="nonmarkingreturn" horiz-adv-x="478" 
 />
    <glyph glyph-name="space" unicode=" " horiz-adv-x="478" 
 />
    <glyph glyph-name="exclam" unicode="!" horiz-adv-x="262" 
d="M102 166v512h59v-512h-59zM131 0q-30 0 -30 25v62q0 24 30 24q28 0 28 -24v-62q0 -25 -28 -25z" />
    <glyph glyph-name="quotedbl" unicode="&#x22;" horiz-adv-x="394" 
d="M274 547q-30 0 -30 22v82q0 21 30 21q29 0 29 -21v-82q0 -22 -29 -22zM117 547q-28 0 -28 22v82q0 21 28 21q30 0 30 -21v-82q0 -22 -30 -22z" />
    <glyph glyph-name="numbersign" unicode="#" horiz-adv-x="717" 
d="M617 350h-121l-24 -71h119l-14 -45h-121l-25 -73h-61l26 73h-130l-26 -73h-60l26 73h-119l14 45h120l25 71h-122l19 45h119l25 73h61l-26 -73h130l24 73h61l-25 -73h121zM307 350l-25 -71h130l24 71h-129z" />
    <glyph glyph-name="dollar" unicode="$" horiz-adv-x="867" 
d="M555 -10v-60h-58v54q-26 -2 -52 -2q-46 0 -88 4v-56h-59v62q-264 45 -264 227v24h58v-21q0 -145 206 -181v303q-100 18 -151 45q-84 44 -84 124q0 144 235 176v64h59v-58q30 1 63 1q41 0 77 -3v60h58v-66q239 -38 242 -219h-58q-11 140 -184 171v-284q128 -24 181 -52
q80 -43 80 -132q0 -81 -94 -131q-69 -38 -167 -50zM497 646q-36 3 -77 3q-33 0 -63 -2v-263l140 -19v281zM729 246q-43 33 -174 59v-268q79 11 132 40q70 37 70 97q0 50 -28 72zM298 640q-176 -29 -176 -127q0 -55 64 -86q37 -18 112 -33v246zM497 315l-140 20v-301
q42 -4 90 -4q26 0 50 1v284z" />
    <glyph glyph-name="percent" unicode="%" horiz-adv-x="1012" 
d="M756 -19q-196 0 -196 180q0 185 197 185q195 0 195 -185q0 -180 -196 -180zM219 -1h-74l672 679h74zM256 294q-194 0 -194 180q0 184 196 184t196 -184q0 -180 -198 -180zM756 299q-136 0 -136 -138q0 -133 137 -133q135 0 135 133q0 138 -136 138zM256 611
q-134 0 -134 -137q0 -133 136 -133t136 133q0 137 -138 137z" />
    <glyph glyph-name="ampersand" unicode="&#x26;" horiz-adv-x="814" 
d="M661 -19l-1 126q-114 -123 -300 -123q-107 0 -195 35q-118 47 -118 138q0 82 107 149q53 33 167 76q-152 61 -152 162q0 71 82 107q60 27 139 27q83 0 142 -26q81 -35 81 -110q0 -81 -179 -164q-11 -5 -128 -53q-81 -32 -123 -60q-78 -51 -78 -108q0 -62 91 -97
q73 -29 156 -29q181 0 264 110q45 60 45 139h59v-299h-59zM500 611q-47 20 -107 20t-106 -19q-60 -24 -60 -69q0 -86 159 -136q169 69 169 136q0 45 -55 68z" />
    <glyph glyph-name="quotesingle" unicode="'" horiz-adv-x="236" 
d="M117 547q-28 0 -28 22v82q0 21 28 21q30 0 30 -21v-82q0 -22 -30 -22z" />
    <glyph glyph-name="parenleft" unicode="(" horiz-adv-x="315" 
d="M255 -168q-174 198 -174 451q0 254 174 451h68q-184 -204 -184 -451t184 -451h-68z" />
    <glyph glyph-name="parenright" unicode=")" horiz-adv-x="315" 
d="M53 -168h-69q190 204 190 451t-190 451h69q179 -194 179 -451q0 -256 -179 -451z" />
    <glyph glyph-name="asterisk" unicode="*" horiz-adv-x="459" 
d="M92 624h1l94 -32v57q0 23 30 23q29 0 29 -23v-57l93 31q8 2 13 2q14 0 23 -8q6 -7 6 -15q0 -14 -18 -20l-74 -24q30 -10 59 -19q34 -13 34 -27q0 -6 -6 -13q-13 -16 -38 -8l-92 32v-57q0 -23 -29 -23q-30 0 -30 23v57l-92 -32q-24 -8 -37 7q-7 7 -7 14q0 13 42 29
q26 8 53 17q-26 7 -67 21q-27 11 -27 25q0 6 7.5 13.5t20.5 7.5q6 0 12 -1z" />
    <glyph glyph-name="plus" unicode="+" horiz-adv-x="756" 
d="M406 228v-161h-58v161h-258v46h258v159h58v-159h260v-46h-260z" />
    <glyph glyph-name="comma" unicode="," horiz-adv-x="354" 
d="M177 -75q-7 -16 -31 -16q-27 0 -27 21q0 4 2 9l58 132q7 15 27 15q30 0 30 -21q0 -4 -2 -8z" />
    <glyph glyph-name="hyphen" unicode="-" horiz-adv-x="472" 
d="M54 254v20h377v-20h-377z" />
    <glyph glyph-name="hyphen" unicode="&#x2010;" horiz-adv-x="472" 
d="M54 254v20h377v-20h-377z" />
    <glyph glyph-name="period" unicode="." horiz-adv-x="282" 
d="M142 -2q-30 0 -30 20v47q0 20 30 20q28 0 28 -20v-47q0 -20 -28 -20z" />
    <glyph glyph-name="slash" unicode="/" horiz-adv-x="472" 
d="M39 0h-64l471 694h64z" />
    <glyph glyph-name="zero" unicode="0" horiz-adv-x="788" 
d="M628 46q-91 -58 -232 -58t-234 58q-112 70 -112 201v164q0 131 112 201q94 59 234 59q142 0 232 -58q109 -70 109 -202v-164q0 -132 -109 -201zM679 411q0 104 -88 162q-79 51 -197 51q-116 0 -193 -47q-93 -57 -93 -166v-164q0 -104 89 -162q79 -50 197 -50
q119 0 196 49q89 56 89 163v164z" />
    <glyph glyph-name="one" unicode="1" horiz-adv-x="558" 
d="M375 0v578l-189 -111h-100l300 179h47v-646h-58z" />
    <glyph glyph-name="two" unicode="2" horiz-adv-x="788" 
d="M63 0q2 190 277 309q47 20 189 80q115 49 115 103q0 66 -86 96q-61 22 -149 22q-140 0 -205.5 -47.5t-65.5 -147.5h-59q0 137 107 196q82 46 215 46q113 0 189 -28q111 -43 111 -139q0 -87 -221 -177q-65 -26 -164 -69q-61 -32 -116 -83q-67 -62 -73 -114h616v-47h-680z
" />
    <glyph glyph-name="three" unicode="3" horiz-adv-x="788" 
d="M401 -11q-140 0 -234 42q-127 57 -127 182v24h59v-37q0 -90 106 -132q79 -32 191 -32q104 0 183 28q109 39 109 118q0 141 -267 141h-77v47h79q246 0 246 122q0 67 -97 97q-66 21 -159 21q-149 0 -218 -45t-69 -139h-59q0 137 121 192q84 39 221 39q118 0 197 -26
q122 -41 122 -139q0 -108 -136 -144q153 -42 153 -166q0 -106 -127 -156q-92 -37 -217 -37z" />
    <glyph glyph-name="four" unicode="4" horiz-adv-x="788" 
d="M581 215v-215h-59v215h-505l300 432h65l-269 -385h409v386l59 -2v-384h174v-47h-174z" />
    <glyph glyph-name="five" unicode="5" horiz-adv-x="788" 
d="M389 -11q-140 0 -228 41q-123 56 -123 196h58q0 -110 97 -155q76 -35 197 -35q115 0 191 37q97 48 97 145q0 96 -103 144q-81 38 -196 38q-171 0 -255 -95h-58l21 341h608v-47h-550l-13 -222q92 70 253 70q134 0 229 -47q122 -61 122 -181q0 -122 -119 -183
q-93 -47 -228 -47z" />
    <glyph glyph-name="six" unicode="6" horiz-adv-x="788" 
d="M663 426q0 100 -89 145q-73 38 -177 38q-107 0 -178 -37q-87 -45 -88 -131l-1 -104q85 80 263 80q123 0 210 -45q111 -56 111 -168q0 -111 -113 -167q-88 -43 -211 -43t-210 43q-111 56 -111 167v11q1 3 1 8v220q0 112 115 167q88 43 213 43q122 0 209 -44
q113 -57 113 -183h-57zM570 336q-72 37 -179 37q-105 0 -176 -36q-89 -44 -89 -133q0 -87 90 -131q71 -36 175 -36q106 0 178 37q88 44 88 130q0 88 -87 132z" />
    <glyph glyph-name="seven" unicode="7" horiz-adv-x="788" 
d="M294 0h-64l413 599h-569v47h665z" />
    <glyph glyph-name="eight" unicode="8" horiz-adv-x="811" 
d="M406 -11q-136 0 -228 34q-136 50 -136 165q0 128 179 168q-132 40 -132 129q0 101 119 144q78 28 198 28q119 0 199 -29q119 -43 119 -143q0 -88 -134 -129q180 -41 180 -170q0 -114 -134 -163q-92 -34 -230 -34zM406 610q-259 0 -259 -126q0 -52 89 -82q76 -26 172 -26
q97 0 170 26q87 31 87 84q0 124 -259 124zM408 329q-308 0 -308 -142q0 -86 113 -125q78 -26 193 -26q116 0 193 26q112 38 112 125q0 142 -303 142z" />
    <glyph glyph-name="nine" unicode="9" horiz-adv-x="788" 
d="M718 433v-239q0 -111 -115 -166q-89 -43 -213 -43q-122 0 -208 43q-113 56 -113 182h57q0 -100 88 -145q72 -37 177 -37q103 0 175 36q90 45 91 132l2 123q-85 -79 -263 -79q-123 0 -210 43q-112 55 -112 167q0 111 113 167q89 45 211 45t210 -45q112 -56 112 -167v-12
q-1 -2 -2 -5zM575 582q-72 37 -178 37q-105 0 -176 -36q-90 -44 -90 -133q0 -86 88 -130q72 -37 178 -37t178 37q88 44 88 130q0 87 -88 132z" />
    <glyph glyph-name="colon" unicode=":" horiz-adv-x="329" 
d="M166 355q-30 0 -30 24v61q0 25 30 25q24 0 29 -23v-63q0 -24 -29 -24zM166 -2q-30 0 -30 25v61q0 24 30 24q24 0 29 -23v-62q0 -25 -29 -25z" />
    <glyph glyph-name="semicolon" unicode=";" horiz-adv-x="339" 
d="M193 354q-30 0 -30 25v61q0 25 30 25q29 0 29 -25v-61q0 -25 -29 -25zM169 -73q-7 -18 -30 -18q-28 0 -28 23q0 5 2 10l58 147q7 17 27 17q30 0 30 -23q0 -5 -2 -9z" />
    <glyph glyph-name="less" unicode="&#x3c;" horiz-adv-x="722" 
d="M50 219v43l610 174v-48l-518 -148l518 -148v-48z" />
    <glyph glyph-name="equal" unicode="=" horiz-adv-x="850" 
d="M52 271v42h746v-42h-746zM52 167v42h746v-42h-746z" />
    <glyph glyph-name="greater" unicode="&#x3e;" horiz-adv-x="722" 
d="M50 44v48l518 148l-518 148v48l610 -174v-43z" />
    <glyph glyph-name="question" unicode="?" 
d="M374 203v-37h-60v32q0 101 140 183q79 47 106 75q31 31 31 72q0 66 -86 96q-62 23 -149 23q-124 0 -187.5 -41.5t-76.5 -129.5l-55 22q22 113 126 160q79 36 195 36q105 0 184 -32q107 -44 107 -134q0 -89 -137.5 -170t-137.5 -155zM343 0q-29 0 -29 25v62q0 24 29 24
q30 0 30 -24v-62q0 -25 -30 -25z" />
    <glyph glyph-name="at" unicode="@" horiz-adv-x="1134" 
d="M978 214q-32 -31 -81 -53q-52 -23 -95 -23q-56 0 -56 48q0 9 2 20l1 7q-93 -88 -254 -89q-135 -1 -202 68q-47 48 -47 115q0 26 2 39q19 111 119 170q86 50 209 51q167 2 223 -86l16 86h55l-69 -372q1 -3 0 -7h10q28 0 67 20.5t60 44.5q69 78 69 147q0 124 -145 193
q-117 56 -268 56q-178 0 -310 -71q-157 -85 -157 -238q0 -149 158 -234q133 -71 308 -71q111 0 218 34q126 40 185 111h70q-77 -104 -223 -151q-124 -40 -244 -40q-195 0 -346 79q-188 99 -188 277q0 175 184 272q149 78 340 78q169 0 304 -63q174 -81 174 -234
q0 -99 -89 -184zM713 493q-56 31 -145 30q-106 -1 -183 -53q-87 -59 -87 -161q0 -73 63 -110q53 -31 137 -31q95 0 172 44q89 51 105 137q2 9 2 34q0 75 -64 110z" />
    <glyph glyph-name="A" unicode="A" horiz-adv-x="859" 
d="M812 0l-131 213h-499l-134 -213h-68l430 678h54l414 -678h-66zM437 612l-224 -351h440z" />
    <glyph glyph-name="B" unicode="B" horiz-adv-x="867" 
d="M485 0h-434v678h451q113 0 191 -33q109 -45 109 -145q0 -98 -144 -144q174 -37 174 -167q0 -108 -128 -156q-89 -33 -219 -33zM658 606q-65 25 -159 25h-390v-255h389q91 0 157 25q89 33 89 104q0 68 -86 101zM677 302q-74 27 -182 27h-386v-282h392q101 0 174 27
q100 36 100 114t-98 114z" />
    <glyph glyph-name="C" unicode="C" horiz-adv-x="971" 
d="M873 530q-100 108 -330 108q-175 0 -292 -68q-139 -80 -139 -232q0 -151 132 -230q113 -68 284 -68q222 0 334 110l54 -25q-138 -132 -387 -132q-191 0 -319 74q-156 90 -156 267q0 180 161 274q132 77 328 77q259 0 384 -130z" />
    <glyph glyph-name="D" unicode="D" horiz-adv-x="918" 
d="M374 0h-312v678h363q197 0 311 -71q139 -86 139 -269t-169 -270q-131 -68 -332 -68zM701 568q-100 63 -277 63h-304v-584h258q183 0 295 58q144 74 144 233q0 157 -116 230z" />
    <glyph glyph-name="E" unicode="E" horiz-adv-x="761" 
d="M62 0v678h686v-47h-629v-255h557v-46h-557v-283h636v-47h-693z" />
    <glyph glyph-name="F" unicode="F" horiz-adv-x="682" 
d="M119 631v-255h497v-46h-497v-330h-57v678h637v-47h-580z" />
    <glyph glyph-name="G" unicode="G" horiz-adv-x="1023" 
d="M528 -7q-202 0 -331 71q-166 90 -166 273q0 181 160 273q131 75 327 75q151 0 258 -41q142 -56 184 -198h-61q-60 192 -379 192q-177 0 -293 -67q-138 -79 -138 -233q0 -159 143 -236q114 -62 296 -62q140 0 250 51q134 61 134 175v18h-392v47h447q5 -33 5 -53
q0 -150 -156 -226q-121 -59 -288 -59z" />
    <glyph glyph-name="H" unicode="H" horiz-adv-x="918" 
d="M798 0v330h-678v-330h-58v678h58v-302h678v302h58v-678h-58z" />
    <glyph glyph-name="I" unicode="I" horiz-adv-x="181" 
d="M62 0v678h58v-678h-58z" />
    <glyph glyph-name="J" unicode="J" horiz-adv-x="656" 
d="M301 -7q-267 0 -291 175h58q15 -128 228 -128q116 0 168 29q65 36 65 133v476h58v-482q0 -203 -286 -203z" />
    <glyph glyph-name="K" unicode="K" horiz-adv-x="904" 
d="M835 0l-513 359l-202 -114v-245h-58v678h58v-375l682 375h104l-532 -293l549 -385h-88z" />
    <glyph glyph-name="L" unicode="L" horiz-adv-x="682" 
d="M62 0v678h58v-631h578v-47h-636z" />
    <glyph glyph-name="M" unicode="M" horiz-adv-x="1106" 
d="M984 0v596l-408 -596h-47l-409 596v-596h-58v678h69l421 -615l423 615h67v-678h-58z" />
    <glyph glyph-name="N" unicode="N" horiz-adv-x="918" 
d="M793 0l-673 610v-610h-58v678h63q115 -109 337 -305q232 -206 336 -303v608h58v-678h-63z" />
    <glyph glyph-name="O" unicode="O" horiz-adv-x="1022" 
d="M836 67q-127 -74 -324 -74q-196 0 -323 73q-157 91 -157 273q0 179 159 267q124 69 321 69t321 -69q159 -88 159 -267q0 -181 -156 -272zM512 628q-177 0 -287 -62q-134 -76 -134 -227q0 -153 133 -232q113 -67 288 -67q177 0 289 66q133 78 133 233q0 158 -140 231
q-109 58 -282 58z" />
    <glyph glyph-name="P" unicode="P" horiz-adv-x="838" 
d="M467 296h-347v-296h-58v678h420q328 0 328 -194q0 -106 -127 -154q-88 -34 -216 -34zM490 631h-370v-288h371q99 0 169 29q90 38 90 112q0 147 -260 147z" />
    <glyph glyph-name="Q" unicode="Q" horiz-adv-x="1022" 
d="M886 103q-83 -70 -214 -97q43 -25 110 -25h139v-47h-139q-113 0 -178 62q-44 -5 -92 -5q-196 0 -323 73q-157 91 -157 274q0 179 159 268q124 69 321 69t321 -69q159 -88 159 -268q0 -145 -106 -235zM512 628q-177 0 -287 -63q-134 -75 -134 -227q0 -133 106 -213
q23 51 88 78q54 22 117 22q79 0 142 -33q76 -41 76 -114q0 -15 9 -31q135 22 214 90q91 77 91 201q0 158 -140 232q-109 58 -282 58zM564 79q0 49 -56 77q-46 23 -106 23q-52 0 -97 -19q-53 -23 -62 -63q109 -59 269 -59q31 0 61 2q-9 20 -9 39z" />
    <glyph glyph-name="R" unicode="R" horiz-adv-x="867" 
d="M663 331q138 -41 138 -159v-172h-59v170q0 133 -256 133h-366v-303h-58v678h436q316 0 316 -178q0 -124 -151 -169zM501 631h-381v-279h359q105 0 177 27q100 37 100 118q0 134 -255 134z" />
    <glyph glyph-name="S" unicode="S" horiz-adv-x="867" 
d="M445 -7q-159 0 -259 37q-152 56 -152 189v24h58v-20q0 -183 355 -183q111 0 191 23q119 35 119 112q0 53 -43 81q-31 20 -104 35q-39 9 -192 33q-174 27 -233 49q-122 46 -122 138q0 174 357 174q373 0 377 -218h-58q-8 110 -114 147q-70 24 -205 24q-298 0 -298 -127
q0 -61 81 -92q55 -22 189 -40q244 -32 325 -68q99 -44 99 -139q0 -101 -144 -148q-98 -31 -227 -31z" />
    <glyph glyph-name="T" unicode="T" horiz-adv-x="736" 
d="M397 631v-631h-58v631h-350v47h758v-47h-350z" />
    <glyph glyph-name="U" unicode="U" horiz-adv-x="896" 
d="M448 -7q-170 0 -261 46q-125 63 -125 217v422h58v-422q0 -216 328 -216q327 0 327 213v425h58v-424q0 -152 -125 -215q-92 -46 -260 -46z" />
    <glyph glyph-name="V" unicode="V" horiz-adv-x="848" 
d="M454 0h-49l-413 678h63l376 -614l363 614h64z" />
    <glyph glyph-name="W" unicode="W" horiz-adv-x="1309" 
d="M926 0h-49l-220 373l-213 -373h-49l-399 678h63l361 -613l204 362l-146 251h63l361 -613l349 613h62z" />
    <glyph glyph-name="X" unicode="X" horiz-adv-x="815" 
d="M773 0l-363 314l-366 -314h-80l404 349l-385 329h84l343 -296l347 296h82l-385 -330l399 -348h-80z" />
    <glyph glyph-name="Y" unicode="Y" horiz-adv-x="845" 
d="M452 326v-326h-58v326l-435 352h81l383 -307l383 307h80z" />
    <glyph glyph-name="Z" unicode="Z" horiz-adv-x="845" 
d="M35 0v46l682 585h-643v47h727v-45l-683 -586h693v-47h-776z" />
    <glyph glyph-name="bracketleft" unicode="[" horiz-adv-x="315" 
d="M121 -168v902h190v-48h-131v-806h131v-48h-190z" />
    <glyph glyph-name="backslash" unicode="\" horiz-adv-x="472" 
d="M436 0l-475 694h65l474 -694h-64z" />
    <glyph glyph-name="bracketright" unicode="]" horiz-adv-x="315" 
d="M192 -168h-188v48h130l1 32l-2 774h-129v48h189z" />
    <glyph glyph-name="asciicircum" unicode="^" horiz-adv-x="402" 
d="M279 511l-81 86l-80 -86h-67l126 135h42l132 -135h-72z" />
    <glyph glyph-name="underscore" unicode="_" 
d="M-15 -119v48h739v-48h-739z" />
    <glyph glyph-name="grave" unicode="`" horiz-adv-x="261" 
d="M224 532q-17 -7 -36 3l-154 100q-11 7 -11 16q0 11 15 17q18 10 37 -2l153 -100q11 -7 11 -16q0 -11 -15 -18z" />
    <glyph glyph-name="a" unicode="a" horiz-adv-x="761" 
d="M630 -1v99q-88 -109 -279 -109q-133 0 -222 59q-105 69 -105 195q0 128 104 197q90 60 228 60q191 0 274 -105v103h59v-499h-59zM350 453q-113 0 -187 -51q-82 -57 -82 -159t82 -158q73 -49 187 -49q110 0 188 47q92 57 92 160q0 111 -89 165q-73 45 -191 45z" />
    <glyph glyph-name="b" unicode="b" horiz-adv-x="761" 
d="M621 47q-87 -57 -227 -57q-79 0 -149 25q-79 28 -123 83v-98h-59v678h59v-276q43 55 125 82q69 24 149 24q141 0 228 -61q101 -70 101 -201t-104 -199zM401 460q-123 0 -196 -48q-83 -56 -83 -168q0 -100 88 -156q79 -51 192 -51q114 0 186 50q80 56 80 160
q0 109 -82 165q-71 48 -185 48z" />
    <glyph glyph-name="c" unicode="c" 
d="M548 20q-78 -31 -178 -31q-138 0 -229 54q-111 66 -111 193q0 135 113 205q95 59 242 59q92 0 163 -29q91 -36 123 -124l-54 -20q-45 126 -235 126q-124 0 -203 -50q-91 -57 -91 -167q0 -106 93 -158q74 -42 188 -42q86 0 152 27q80 33 102 111l56 -18q-32 -96 -131 -136
z" />
    <glyph glyph-name="d" unicode="d" horiz-adv-x="761" 
d="M630 0v99q-88 -110 -279 -110q-133 0 -223 60q-104 70 -104 198q0 129 104 200q90 60 228 60q191 0 274 -106v277h59v-678h-59zM350 460q-113 0 -187 -52q-82 -58 -82 -161q0 -104 82 -160q73 -51 187 -51q110 0 188 49q92 58 92 162q0 112 -88 167q-73 46 -192 46z" />
    <glyph glyph-name="e" unicode="e" 
d="M78 226q12 -190 276 -190q201 0 262 119h61q-43 -101 -145 -138q-77 -28 -181 -28q-144 0 -230 55q-101 66 -101 199q0 128 110 198q93 59 228 59t225 -51q111 -63 111 -187v-35zM358 453q-107 0 -181 -42q-85 -48 -98 -138h550q-7 93 -96 141q-72 39 -175 39z" />
    <glyph glyph-name="f" unicode="f" horiz-adv-x="360" 
d="M181 477v-32h150v-48h-150v-398h-58v398h-98v48h98v32q0 189 332 189v-46q-274 0 -274 -143z" />
    <glyph glyph-name="g" unicode="g" horiz-adv-x="736" 
d="M359 -179q-107 0 -180 28q-106 41 -114 148h57q15 -129 238 -129q257 0 257 156v74q-45 -50 -125 -76q-69 -22 -145 -22q-131 0 -219 57q-103 67 -103 191q0 127 107 195q89 57 224 57q76 0 142 -23q78 -27 119 -79v91h58v-466q0 -202 -316 -202zM354 453
q-108 0 -182 -47q-88 -55 -88 -157q0 -100 80 -154q70 -48 180 -48q112 0 186 46q87 54 87 153q0 100 -85 157q-73 50 -178 50z" />
    <glyph glyph-name="h" unicode="h" 
d="M584 0v324q0 72 -71 108q-56 28 -142 28q-102 0 -170 -42q-79 -49 -79 -140v-278h-59v678h59v-260q73 90 248 90q105 0 177 -34q96 -46 96 -141v-333h-59z" />
    <glyph glyph-name="i" unicode="i" horiz-adv-x="184" 
d="M90 577q-17 0 -27 19v72q13 19 27 19q13 0 32 -17v-76q-17 -17 -32 -17zM63 0v496h59v-496h-59z" />
    <glyph glyph-name="j" unicode="j" horiz-adv-x="184" 
d="M90 577q-17 0 -27 18v73q13 19 27 19q13 0 32 -17v-77q-17 -16 -32 -16zM-215 -179v47q274 0 274 158v469h59v-470q0 -204 -333 -204z" />
    <glyph glyph-name="k" unicode="k" horiz-adv-x="718" 
d="M631 0l-352 274l-157 -82v-192h-59v678h59v-430l471 249l117 -2l-381 -194l388 -301h-86z" />
    <glyph glyph-name="l" unicode="l" horiz-adv-x="184" 
d="M63 0v678h59v-678h-59z" />
    <glyph glyph-name="m" unicode="m" horiz-adv-x="1103" 
d="M980 0v319q0 134 -181 134q-88 0 -147 -33q-71 -39 -71 -114v-306h-59v319q0 134 -185 134q-93 0 -152 -46q-63 -49 -63 -133v-274h-59v489h59v-74q69 85 229 85q156 0 212 -93q63 93 233 93q242 0 242 -172v-328h-58z" />
    <glyph glyph-name="n" unicode="n" 
d="M584 0v319q0 71 -71 106q-56 28 -142 28q-102 0 -170 -41q-79 -49 -79 -138v-274h-59v489h59v-77q73 88 248 88q105 0 177 -33q96 -45 96 -139v-328h-59z" />
    <glyph glyph-name="o" unicode="o" horiz-adv-x="736" 
d="M600 46q-93 -57 -233 -57q-139 0 -233 58q-110 68 -110 197q0 130 113 199q95 57 233 57q140 0 232 -58q111 -69 111 -198t-113 -198zM369 453q-116 0 -193 -45q-94 -56 -94 -164q0 -107 95 -162q78 -46 192 -46t192 46q94 56 94 162q0 109 -93 164q-77 45 -193 45z" />
    <glyph glyph-name="p" unicode="p" horiz-adv-x="761" 
d="M624 41q-87 -59 -228 -59q-190 0 -274 107v-257h-59v657h59v-95q83 106 272 106q140 0 228 -58q103 -69 103 -199q0 -133 -101 -202zM402 453q-112 0 -188 -47q-92 -57 -92 -162q0 -112 83 -167q72 -48 196 -48q115 0 187 51q80 56 80 162t-83 162q-72 49 -183 49z" />
    <glyph glyph-name="q" unicode="q" horiz-adv-x="761" 
d="M629 -168v254q-80 -104 -281 -104q-132 0 -222 63q-102 72 -102 198t106 197q91 60 224 60q191 0 275 -107v96h58v-657h-58zM347 453q-113 0 -186 -53q-79 -57 -79 -158q0 -105 84 -162q73 -51 182 -51q124 0 197 47q85 55 85 166q0 106 -92 163q-77 48 -191 48z" />
    <glyph glyph-name="r" unicode="r" horiz-adv-x="429" 
d="M122 196v-196h-59v489h59v-93q27 36 77 61q86 43 210 43v-47q-144 0 -215.5 -68t-71.5 -189z" />
    <glyph glyph-name="s" unicode="s" horiz-adv-x="656" 
d="M336 -13q-296 0 -296 200h61q0 -78 56.5 -114.5t179.5 -36.5q204 0 204 93q0 59 -138 83q-64 7 -129 15q-92 11 -140 36q-65 33 -65 95q0 76 91 115q67 28 153 28q285 0 285 -178h-62q0 66 -51 97.5t-165 31.5q-67 0 -120 -19q-70 -25 -70 -75q0 -59 135 -77l143 -19
q194 -25 194 -133q0 -82 -99 -118q-66 -24 -167 -24z" />
    <glyph glyph-name="t" unicode="t" horiz-adv-x="355" 
d="M205 420v-420h-55l-3 420h-134v47h134v147h58v-147h137v-47h-137z" />
    <glyph glyph-name="u" unicode="u" 
d="M584 -1v78q-74 -88 -247 -88q-110 0 -181 36q-93 47 -93 146v317h59v-316q0 -74 70 -109q55 -27 145 -27q110 0 174 42q73 48 73 146v264h59v-489h-59z" />
    <glyph glyph-name="v" unicode="v" horiz-adv-x="636" 
d="M357 0h-52l-320 488h70l276 -430l254 430h66z" />
    <glyph glyph-name="w" unicode="w" horiz-adv-x="1041" 
d="M751 0h-54l-171 275l-158 -275h-53l-303 488h69l260 -429l152 271l-100 158h71l259 -429l241 429h65z" />
    <glyph glyph-name="x" unicode="x" horiz-adv-x="630" 
d="M584 0l-269 220l-269 -220h-82l311 253l-283 235h83l240 -203l245 203h79l-283 -235l310 -253h-82z" />
    <glyph glyph-name="y" unicode="y" 
d="M325 -179q-106 0 -179 28q-106 41 -113 148h57q15 -129 238 -129q256 0 256 156v47q-74 -89 -247 -89q-110 0 -181 36q-93 48 -93 148v322h59v-321q0 -75 70 -110q55 -28 145 -28q110 0 174 43q73 49 73 148v268h59v-465q0 -202 -318 -202z" />
    <glyph glyph-name="z" unicode="z" horiz-adv-x="639" 
d="M23 0v44l485 397h-446v47h531v-43l-486 -398h509v-47h-593z" />
    <glyph glyph-name="braceleft" unicode="{" horiz-adv-x="472" 
d="M328 -168q-120 0 -120 107v221q0 54 -21 71q-13 12 -82 34v37q34 11 82 33q21 17 21 71v221q0 107 120 107h30v-48h-29q-41 0 -54 -22q-9 -15 -9 -61v-199q0 -66 -30 -96q-12 -12 -43 -25q31 -12 42 -23q31 -29 31 -98v-198q0 -46 9 -62q13 -22 54 -22h29v-48h-30z" />
    <glyph glyph-name="bar" unicode="|" horiz-adv-x="315" 
d="M128 -32v738h58v-738h-58z" />
    <glyph glyph-name="braceright" unicode="}" horiz-adv-x="472" 
d="M276 231q-21 -17 -21 -71v-221q0 -107 -120 -107h-30v48h29q41 0 54 22q9 16 9 62v198q0 69 31 98q11 11 42 23q-31 13 -43 25q-30 30 -30 96v199q0 46 -9 61q-13 22 -54 22h-29v48h30q120 0 120 -107v-221q0 -54 21 -71q13 -12 82 -33v-37q-34 -11 -82 -34z" />
    <glyph glyph-name="asciitilde" unicode="~" horiz-adv-x="740" 
d="M513 351q-48 0 -150 30q-97 28 -136 28q-79 0 -95 -59h-73q14 57 68 83q45 21 102 21q48 0 148 -30q96 -29 136 -29q36 0 62 14t34 47h73q-12 -54 -59.5 -79.5t-109.5 -25.5z" />
    <glyph glyph-name="exclamdown" unicode="&#xa1;" horiz-adv-x="262" 
d="M132 472q-30 0 -30 24v62q0 25 30 25q29 0 29 -25v-62q0 -24 -29 -24zM101 -95v512h58v-512h-58z" />
    <glyph glyph-name="cent" unicode="&#xa2;" 
d="M548 19q-78 -31 -178 -31q-87 0 -156 22l-32 -46h-64l46 67q-134 68 -134 205t113 207q94 60 242 60q50 0 94 -9l39 57h65l-50 -72q102 -36 138 -131l-54 -19q-29 80 -112 109l-262 -386q55 -17 126 -17q86 0 152 27q80 33 102 112l56 -18q-32 -96 -131 -137zM382 456
q-124 0 -203 -51q-91 -58 -91 -169q0 -109 104 -164l258 378q-32 6 -68 6z" />
    <glyph glyph-name="sterling" unicode="&#xa3;" horiz-adv-x="788" 
d="M193 242q2 -105 96 -161q77 -46 190 -46q130 0 218 66l47 -29q-111 -84 -263 -84q-141 0 -234 58q-110 68 -112 196h-104l11 47h93v74h-74l16 48h58v0q0 131 112 201q94 59 234 59q152 0 262 -83l-46 -31q-88 67 -218 67q-116 0 -193 -47q-93 -57 -93 -166v0h402l-13 -48
h-389v-74h367l-11 -47h-356z" />
    <glyph glyph-name="currency" unicode="&#xa4;" horiz-adv-x="788" 
d="M649 193l-136 84q-56 -29 -132 -29t-133 30l-137 -85l-47 28l139 86q-40 34 -40 80q0 47 41 82l-140 87l47 28l138 -86q57 28 130 28q75 0 132 -28l138 86l47 -28l-140 -87q42 -35 42 -81t-40 -82l138 -85zM488 459q-47 22 -107 22q-59 0 -105 -21q-56 -26 -56 -72
t56 -73q46 -22 105 -22t106 21q56 27 56 73t-55 72z" />
    <glyph glyph-name="yen" unicode="&#xa5;" horiz-adv-x="871" 
d="M466 326v-34h286v-47h-286v-74h286v-48h-286v-123h-58v123h-287v48h287v74h-287v47h287v34l-436 352h82l382 -307l384 307h80z" />
    <glyph glyph-name="brokenbar" unicode="&#xa6;" horiz-adv-x="315" 
d="M128 364v332h58v-332h-58zM128 -23v332h58v-332h-58z" />
    <glyph glyph-name="section" unicode="&#xa7;" horiz-adv-x="788" 
d="M544 145q103 -35 103 -109q0 -76 -91 -115q-67 -29 -152 -29q-283 0 -283 178h59q0 -67 51.5 -99t165.5 -32q70 0 121 19q70 26 70 78q0 60 -109 76l-208 31q-51 8 -101 43q-57 41 -51 95q10 86 124 116q-104 35 -104 110q0 77 90 115q67 29 153 29q284 0 284 -179h-59
q0 67 -51.5 99.5t-165.5 32.5q-68 0 -122 -20q-71 -26 -71 -77q0 -45 73 -66q51 -15 175 -30q225 -27 225 -138q0 -96 -126 -128zM379 366q-166 0 -198 -70q-1 -6 -1 -12q0 -55 82 -84q65 -23 144 -23q203 0 205 94q-31 95 -232 95z" />
    <glyph glyph-name="dieresis" unicode="&#xa8;" horiz-adv-x="289" 
d="M223 547q-29 0 -29 20v38q0 19 29 19q30 0 30 -19v-38q0 -20 -30 -20zM67 547q-29 0 -29 20v38q0 19 29 19t29 -19v-38q0 -20 -29 -20z" />
    <glyph glyph-name="copyright" unicode="&#xa9;" horiz-adv-x="756" 
d="M385 236q-125 0 -220 46q-122 59 -122 171q0 109 122 171q96 48 217 48t219 -48q123 -61 123 -170t-121 -170q-97 -48 -218 -48zM568 583q-80 41 -183 41t-185 -41q-96 -47 -96 -129t95 -130q80 -41 183 -41q102 0 184 41q97 48 97 129q0 83 -95 130zM396 308
q-82 0 -140 30q-73 39 -73 113q0 73 71 110q56 29 136 29q158 0 185 -118h-62q-20 70 -124 70q-58 0 -97 -20q-48 -24 -48 -71q0 -48 51 -74q41 -21 101 -21q87 0 118 73h66q-52 -121 -184 -121z" />
    <glyph glyph-name="ordfeminine" unicode="&#xaa;" horiz-adv-x="510" 
d="M406 348v38q-56 -44 -154 -44q-86 0 -143 37q-66 43 -66 121q0 79 67 122q57 36 145 36q97 0 151 -42v41h61v-309h-61zM252 611q-64 0 -104 -27q-44 -30 -44 -84q0 -55 44 -84q39 -27 104 -27q63 0 106 27q48 31 48 84q0 111 -154 111z" />
    <glyph glyph-name="guillemotleft" unicode="&#xab;" horiz-adv-x="528" 
d="M237 257v33l232 111v-50l-156 -77l156 -78v-47zM81 257v33l231 111v-50l-156 -77l156 -78v-47z" />
    <glyph glyph-name="logicalnot" unicode="&#xac;" horiz-adv-x="813" 
d="M686 134v126h-635v42h693v-168h-58z" />
    <glyph glyph-name="registered" unicode="&#xae;" horiz-adv-x="733" 
d="M588 282q-94 -46 -218 -46q-123 0 -219 47q-121 60 -121 170t121 170q96 49 218 49t219 -48q121 -60 121 -170q0 -112 -121 -172zM554 584q-79 40 -184 40q-104 0 -184 -40q-95 -47 -95 -130q0 -84 94 -131q79 -40 184 -40q103 0 183 40q96 47 96 130q0 84 -94 131z
M502 447q27 -19 27 -54v-77h-62v76q0 31 -66 31h-104v-107h-61v270h169q128 0 128 -79q0 -38 -31 -60zM405 537h-108v-65h101q74 0 74 34q0 31 -67 31z" />
    <glyph glyph-name="degree" unicode="&#xb0;" horiz-adv-x="567" 
d="M283 385q-77 0 -139 30q-78 38 -78 105q0 68 78 105q62 30 138 30q77 0 139 -29q79 -37 79 -105t-79 -106q-62 -30 -138 -30zM391 589q-46 22 -108 22q-59 0 -104 -21q-56 -25 -56 -69q0 -45 56 -71q46 -21 104 -21q61 0 107 22q54 25 54 69q0 45 -53 69z" />
    <glyph glyph-name="plusminus" unicode="&#xb1;" horiz-adv-x="850" 
d="M454 226v-164h-59v164h-257v46h257v161h59v-161h259v-46h-259zM139 -3v47h575v-47h-575z" />
    <glyph glyph-name="twosuperior" unicode="&#xb2;" horiz-adv-x="529" 
d="M34 256q0 128 195 205l113 45q66 26 66 49q0 59 -141 59q-86 0 -124 -27.5t-38 -86.5h-62q0 162 219 162q207 0 207 -109q0 -52 -101 -92l-118 -47q-130 -51 -150 -111h396v-47h-462z" />
    <glyph glyph-name="threesuperior" unicode="&#xb3;" horiz-adv-x="575" 
d="M294 252q-93 0 -157 25q-91 36 -91 116v24h63v-33q0 -48 69 -69q46 -15 111 -15q178 0 178 75q0 72 -161 72h-63v48h65q148 0 148 61q0 58 -155 58q-92 0 -133 -26t-41 -82h-62q0 156 235 156q77 0 135 -19q84 -28 84 -87t-66 -85q76 -29 76 -96q0 -68 -89 -100
q-62 -23 -146 -23z" />
    <glyph glyph-name="acute" unicode="&#xb4;" horiz-adv-x="286" 
d="M87 535q-9 -6 -21 -6q-31 0 -31 21q0 9 11 15l153 101q10 7 22 7q30 0 30 -22q0 -9 -11 -16z" />
    <glyph glyph-name="mu1" unicode="&#xb5;" 
d="M439 -14q-34 -4 -70 -4q-174 0 -247 88v-241h-59v659h59v-268q0 -99 73 -148q64 -43 174 -43q90 0 145 28q70 35 70 111v320h59v-321q0 -115 -120 -160q-18 -7 -18 -18q0 -33 109 -33v-51q-62 0 -107 15q-68 21 -68 66z" />
    <glyph glyph-name="paragraph" unicode="&#xb6;" horiz-adv-x="670" 
d="M543 -133v764h-87v-764h-58v371q-113 -2 -206 44q-123 61 -123 176q0 111 122 172q98 49 221 49q5 0 10 -1h179v-811h-58z" />
    <glyph glyph-name="cedilla" unicode="&#xb8;" horiz-adv-x="350" 
d="M166 -174q-52 0 -146 18l31 39q68 -14 111 -14q94 0 94 30q0 17 -67 21q-39 2 -66 -7v25l11 71h57l-2 -46h5q126 0 126 -67q0 -70 -154 -70z" />
    <glyph glyph-name="onesuperior" unicode="&#xb9;" horiz-adv-x="387" 
d="M232 260v327l-130 -58h-122l269 124h48v-393h-65z" />
    <glyph glyph-name="ordmasculine" unicode="&#xba;" horiz-adv-x="558" 
d="M277 350q-88 0 -152 33q-78 41 -78 120q0 80 80 121q64 32 154 32q88 0 152 -33q79 -42 79 -120q0 -81 -82 -121q-63 -32 -153 -32zM278 614q-69 0 -117 -25q-58 -30 -58 -86q0 -57 57 -86q47 -25 118 -25t119 25q59 29 59 86q0 59 -63 89q-48 22 -115 22z" />
    <glyph glyph-name="guillemotright" unicode="&#xbb;" horiz-adv-x="514" 
d="M237 149v47l156 78l-156 77v50l232 -111v-33zM81 149v47l156 78l-156 77v50l231 -111v-33z" />
    <glyph glyph-name="onequarter" unicode="&#xbc;" horiz-adv-x="1102" 
d="M911 131v-131h-57v131h-371l230 279h66l-192 -234h267v235l57 -2v-233h125v-45h-125zM308 0h-65l470 694h64zM263 252v339l-134 -61h-111l258 123h45v-401h-58z" />
    <glyph glyph-name="onehalf" unicode="&#xbd;" horiz-adv-x="1084" 
d="M576 0q3 130 183 202q59 24 117 47q74 34 74 57q0 64 -143 64q-86 0 -125 -28.5t-39 -90.5h-56q1 163 215 163q203 0 203 -110q0 -52 -92 -89q-43 -18 -121 -51q-138 -59 -155 -120h395v-44h-456zM293 0h-65l471 694h65zM248 252v339l-133 -61h-113l260 123h45v-401h-59z
" />
    <glyph glyph-name="threequarters" unicode="&#xbe;" horiz-adv-x="1223" 
d="M1034 131v-131h-57v131h-371l231 279h66l-193 -234h267v235l57 -2v-233h124v-45h-124zM431 0h-65l471 694h64zM309 244q-244 0 -244 142v23h55v-31q0 -52 71 -74q47 -15 114 -15q64 0 111 13q71 20 71 66q0 78 -166 78h-59v44h61q152 0 152 64q0 63 -159 63
q-93 0 -134.5 -27t-42.5 -84h-55q2 155 231 155q77 0 133 -18q83 -28 83 -89q0 -59 -74 -87q86 -30 86 -99t-88 -101q-62 -23 -146 -23z" />
    <glyph glyph-name="questiondown" unicode="&#xbf;" 
d="M346 488q-29 0 -29 24v62q0 25 29 25t29 -25v-62q0 -24 -29 -24zM526 -59q-78 -36 -194 -36q-105 0 -183 31q-110 44 -110 136q0 52 45 98q28 28 97 74q65 43 87 63q48 45 48 90v37h59v-33q0 -100 -140 -183q-81 -49 -107 -75q-31 -31 -31 -71q0 -66 86 -97
q63 -23 150 -23q124 0 187.5 42t76.5 131l54 -25q-21 -111 -125 -159z" />
    <glyph glyph-name="Agrave" unicode="&#xc0;" horiz-adv-x="913" 
d="M552 694q-18 -8 -37 3l-153 119q-11 8 -11 18q0 13 14 20q18 12 37 -3l154 -119q11 -8 11 -18q0 -13 -15 -20zM839 0l-131 215h-499l-134 -215h-68l430 684h54l414 -684h-66zM464 617l-224 -354h440z" />
    <glyph glyph-name="Aacute" unicode="&#xc1;" horiz-adv-x="913" 
d="M403 700q-9 -8 -21 -8q-31 0 -31 24q0 10 11 18l154 119q10 8 22 8q29 0 29 -24q0 -11 -11 -19zM839 0l-131 215h-499l-134 -215h-68l430 684h54l414 -684h-66zM464 617l-224 -354h440z" />
    <glyph glyph-name="Acircumflex" unicode="&#xc2;" horiz-adv-x="913" 
d="M568 687l-110 106l-110 -106h-71l161 160h40l164 -160h-74zM839 0l-131 215h-499l-134 -215h-68l430 684h54l414 -684h-66zM464 617l-224 -354h440z" />
    <glyph glyph-name="Atilde" unicode="&#xc3;" horiz-adv-x="913" 
d="M560 701q-30 0 -99 27q-63 26 -84 26q-31 0 -45 -22q-7 -11 -10 -40l-52 25q0 45 42 67q32 17 67 17q29 0 97 -28q63 -25 84 -25q20 0 38 13q15 11 17 48l53 -22q-5 -46 -38.5 -66t-69.5 -20zM839 0l-131 215h-499l-134 -215h-68l430 683h54l414 -683h-66zM464 616
l-224 -354h440z" />
    <glyph glyph-name="Adieresis" unicode="&#xc4;" horiz-adv-x="913" 
d="M537 696q-28 0 -28 25v53q0 25 28 25q30 0 30 -25v-53q0 -25 -30 -25zM382 696q-30 0 -30 25v53q0 25 30 25q29 0 29 -25v-53q0 -25 -29 -25zM839 0l-131 215h-499l-134 -215h-68l430 682h54l414 -682h-66zM464 616l-224 -354h440z" />
    <glyph glyph-name="Aring" unicode="&#xc5;" horiz-adv-x="913" 
d="M458 703q-43 0 -78 19q-43 23 -43 66q0 42 43 66q35 19 78 19q44 0 78 -19q42 -23 42 -66q0 -42 -41 -66q-34 -19 -79 -19zM839 0l-131 216h-499l-134 -216h-68l430 685h54l414 -685h-66zM458 823q-23 0 -40 -8q-20 -10 -20 -27t20 -27q17 -9 40 -9t41.5 9.5t18.5 26.5
q0 16 -18.5 25.5t-41.5 9.5zM464 617l-224 -354h440z" />
    <glyph glyph-name="AE" unicode="&#xc6;" horiz-adv-x="1454" 
d="M781 0v330h-351l-409 -330h-80l842 678h617v-47h-559v-254h62v-1h426v-46h-488l2 -283h564v-47h-626zM490 377h291l3 234z" />
    <glyph glyph-name="Ccedilla" unicode="&#xc7;" horiz-adv-x="971" 
d="M873 529q-100 108 -330 108q-175 0 -292 -68q-139 -81 -139 -234q0 -152 132 -232q113 -68 284 -68q222 0 334 110l54 -25q-138 -133 -387 -133q-191 0 -319 75q-156 91 -156 269q0 182 161 277q132 77 328 77q259 0 384 -131zM505 -174q-52 0 -150 21l35 43
q68 -16 111 -16q93 0 93 34q0 20 -66 24q-39 3 -66 -8v28l11 80h57l-2 -52h5q126 1 126 -76q0 -78 -154 -78z" />
    <glyph glyph-name="Egrave" unicode="&#xc8;" horiz-adv-x="761" 
d="M474 685q-20 -10 -38 4l-152 117q-11 9 -11 20q0 12 14 18q19 12 37 -2l153 -119q11 -8 11 -18q0 -13 -14 -20zM62 0v684h686v-48h-629v-256h557v-47h-557v-285h636v-48h-693z" />
    <glyph glyph-name="Eacute" unicode="&#xc9;" horiz-adv-x="761" 
d="M325 689q-9 -8 -21 -8q-31 0 -31 24q0 10 11 18l154 119q9 7 20 7q30 0 30 -24q0 -10 -11 -19zM62 0v684h686v-48h-629v-256h557v-47h-557v-285h636v-48h-693z" />
    <glyph glyph-name="Ecircumflex" unicode="&#xca;" horiz-adv-x="761" 
d="M488 697l-110 106l-110 -106h-69l159 160h41l165 -160h-76zM62 0v684h686v-47h-629v-257h557v-47h-557v-285h636v-48h-693z" />
    <glyph glyph-name="Edieresis" unicode="&#xcb;" horiz-adv-x="761" 
d="M459 704q-30 0 -30 25v53q0 25 30 25q28 0 28 -25v-53q0 -25 -28 -25zM302 704q-28 0 -28 25v53q0 25 28 25q30 0 30 -25v-53q0 -25 -30 -25zM62 0v683h686v-48h-629v-256h557v-46h-557v-286h636v-47h-693z" />
    <glyph glyph-name="Igrave" unicode="&#xcc;" horiz-adv-x="181" 
d="M184 700q-21 -10 -38 4l-152 117q-11 9 -11 19q0 25 30 25q13 0 22 -8l152 -119q11 -8 11 -19q0 -12 -14 -19zM62 0v684h58v-684h-58z" />
    <glyph glyph-name="Iacute" unicode="&#xcd;" horiz-adv-x="181" 
d="M35 700q-9 -8 -21 -8q-31 0 -31 24q0 10 11 18l152 119q10 8 22 8q30 0 30 -24q0 -10 -11 -19zM62 0v684h58v-684h-58z" />
    <glyph glyph-name="Icircumflex" unicode="&#xce;" horiz-adv-x="181" 
d="M199 693l-110 106l-111 -106h-71l161 160h41l165 -160h-75zM62 0v684h58v-684h-58z" />
    <glyph glyph-name="Idieresis" unicode="&#xcf;" horiz-adv-x="181" 
d="M169 711q-29 0 -29 26v53q0 24 29 24q25 0 30 -23v-54q0 -26 -30 -26zM13 711q-31 0 -31 26v53q0 24 31 24q27 0 29 -24v-53q0 -26 -29 -26zM62 0v683h58v-683h-58z" />
    <glyph glyph-name="Eth" unicode="&#xd0;" horiz-adv-x="918" 
d="M374 0h-312v316h-50v48h50v314h363q197 0 311 -71q139 -86 139 -269t-169 -270q-131 -68 -332 -68zM701 568q-100 63 -277 63h-304v-267h268v-48h-268v-269h258q183 0 295 58q144 74 144 233q0 157 -116 230z" />
    <glyph glyph-name="Ntilde" unicode="&#xd1;" horiz-adv-x="918" 
d="M617 713q-30 -18 -66 -18q-30 0 -99 27q-64 26 -85 26q-19 0 -35 -12t-18 -50l-54 25q0 43 43 66q34 18 66 18q28 0 97 -28q64 -25 85 -25q26 0 43 18q10 11 13 42l52 -20q-5 -46 -42 -69zM793 0l-673 614v-614h-58v682h63q115 -110 337 -307q232 -207 336 -305v612h58
v-682h-63z" />
    <glyph glyph-name="Ograve" unicode="&#xd2;" horiz-adv-x="1022" 
d="M604 698q-19 -9 -35 4l-155 118q-9 9 -9 18q0 25 29 25q12 0 22 -8l152 -119q11 -8 11 -19q0 -12 -15 -19zM836 68q-127 -75 -324 -75t-324 74q-156 92 -156 275q0 181 159 270q123 69 321 69q197 0 321 -69q159 -89 159 -270q0 -183 -156 -274zM512 634q-177 0 -287 -63
q-134 -76 -134 -229q0 -155 133 -234q113 -67 288 -67q173 0 284 63q138 78 138 238q0 159 -140 233q-108 59 -282 59z" />
    <glyph glyph-name="Oacute" unicode="&#xd3;" horiz-adv-x="1022" 
d="M454 706q-10 -7 -21 -7q-14 0 -21.5 7.5t-7.5 14.5q0 11 11 19l152 119q9 8 22 8q31 0 31 -24q0 -11 -12 -20zM836 68q-127 -75 -324 -75t-324 74q-156 92 -156 275q0 181 159 270q123 69 321 69q197 0 321 -69q159 -89 159 -270q0 -183 -156 -274zM512 634
q-177 0 -287 -63q-134 -76 -134 -229q0 -155 133 -234q113 -67 288 -67q173 0 284 63q138 78 138 238q0 159 -140 234q-108 58 -282 58z" />
    <glyph glyph-name="Ocircumflex" unicode="&#xd4;" horiz-adv-x="1022" 
d="M619 705l-110 106l-110 -106h-71l160 159h40l166 -159h-75zM836 68q-127 -75 -324 -75t-324 74q-156 92 -156 275q0 181 159 270q123 69 321 69q197 0 321 -69q159 -89 159 -270q0 -183 -156 -274zM512 634q-177 0 -287 -63q-134 -76 -134 -229q0 -155 133 -234
q113 -67 288 -67q173 0 284 63q138 78 138 238q0 159 -140 234q-108 58 -282 58z" />
    <glyph glyph-name="Otilde" unicode="&#xd5;" horiz-adv-x="1022" 
d="M605 716q-29 0 -98 27q-63 26 -84 26t-36.5 -12t-20.5 -50l-50 25q0 43 42 66q33 18 66 18q28 0 97 -28q64 -25 84 -25q32 0 47 21q7 11 10 40l53 -22q-8 -46 -41.5 -66t-68.5 -20zM836 67q-127 -74 -324 -74q-196 0 -324 74q-156 91 -156 274q0 181 159 270
q123 69 321 69q197 0 321 -69q159 -89 159 -270q0 -182 -156 -274zM512 633q-177 0 -287 -63q-134 -76 -134 -229q0 -154 133 -233q113 -67 288 -67q173 0 284 63q138 78 138 237t-140 234q-109 58 -282 58z" />
    <glyph glyph-name="Odieresis" unicode="&#xd6;" horiz-adv-x="1022" 
d="M590 711q-30 0 -30 26v53q0 24 30 24q26 0 28 -24v-53q0 -26 -28 -26zM433 711q-28 0 -28 26v53q0 24 28 24t30 -24v-53q0 -26 -30 -26zM836 67q-127 -74 -324 -74q-196 0 -323 74q-157 91 -157 274q0 181 159 269q123 70 321 70q197 0 321 -70q159 -88 159 -269
q0 -182 -156 -274zM512 632q-177 0 -287 -62q-134 -76 -134 -229q0 -154 133 -233q113 -67 288 -67q173 0 284 63q138 78 138 237t-140 233q-109 58 -282 58z" />
    <glyph glyph-name="multiply" unicode="&#xd7;" horiz-adv-x="661" 
d="M514 111l-183 111l-184 -109l-46 28l182 111l-180 108l47 30l181 -110l182 110l47 -30l-182 -108l185 -113z" />
    <glyph glyph-name="Oslash" unicode="&#xd8;" horiz-adv-x="1022" 
d="M836 66q-127 -74 -324 -74q-105 0 -189 21l-29 -42h-64l40 59q-108 38 -171 116q-67 83 -67 193q0 180 159 268q124 69 321 69q103 0 186 -18l31 46h63l-40 -62q240 -83 240 -303q0 -182 -156 -273zM721 600l-368 -543q71 -18 159 -18q177 0 289 67q133 78 133 233
q0 194 -213 261zM512 629q-177 0 -287 -63q-134 -75 -134 -227q0 -129 104 -211q46 -36 104 -55l370 542q-71 14 -157 14z" />
    <glyph glyph-name="Ugrave" unicode="&#xd9;" horiz-adv-x="896" 
d="M542 690q-18 -8 -37 3l-154 119q-10 8 -10 18q0 12 13 20q20 11 38 -3q59 -44 119 -88q45 -34 45 -51q0 -9 -14 -18zM448 -7q-170 0 -261 46q-125 64 -125 219v426h58v-425q0 -218 328 -218q327 0 327 214v429h58v-428q0 -153 -125 -216q-91 -47 -260 -47z" />
    <glyph glyph-name="Uacute" unicode="&#xda;" horiz-adv-x="896" 
d="M392 695q-11 -6 -22 -6q-30 0 -30 24q0 10 11 18l153 118q10 8 22 8q30 0 30 -24q0 -10 -11 -19zM448 -7q-170 0 -261 46q-125 64 -125 219v426h58v-425q0 -218 328 -218q327 0 327 214v429h58v-428q0 -153 -125 -216q-91 -47 -260 -47z" />
    <glyph glyph-name="Ucircumflex" unicode="&#xdb;" horiz-adv-x="896" 
d="M557 695l-112 107l-110 -107h-70l161 160h40l165 -160h-74zM448 -7q-170 0 -261 46q-125 64 -125 219v426h58v-425q0 -218 328 -218q327 0 327 214v429h58v-428q0 -153 -125 -216q-91 -47 -260 -47z" />
    <glyph glyph-name="Udieresis" unicode="&#xdc;" horiz-adv-x="896" 
d="M526 711q-29 0 -29 26v53q0 24 29 24t29 -24v-53q0 -26 -29 -26zM370 711q-29 0 -29 26v53q0 24 29 24q30 0 30 -24v-53q0 -26 -30 -26zM448 -7q-170 0 -261 46q-125 64 -125 218v426h58v-425q0 -217 328 -217q327 0 327 213v429h58v-428q0 -152 -125 -216
q-91 -46 -260 -46z" />
    <glyph glyph-name="Yacute" unicode="&#xdd;" horiz-adv-x="887" 
d="M388 700q-9 -8 -21 -8q-31 0 -31 24q0 10 11 18l154 119q10 8 22 8q30 0 30 -24q0 -10 -11 -19zM474 329v-329h-58v329l-435 355h81l382 -309l384 309h80z" />
    <glyph glyph-name="Thorn" unicode="&#xde;" horiz-adv-x="574" 
d="M317 168h-195v-168h-59v678h59v-147h197q195 0 195 -184q0 -179 -197 -179zM317 483h-195v-270l197 1q136 0 136 133q0 136 -138 136z" />
    <glyph glyph-name="germandbls" unicode="&#xdf;" horiz-adv-x="682" 
d="M527 13q-93 -43 -256 -43v47q328 0 328 187q0 97 -106 146q-87 40 -222 40v48q140 0 195 15q79 23 79 84q0 63 -61 87q-51 19 -167 19q-195 0 -195 -134v-510h-59v391h-47v49h47q1 46 4 96q11 155 253 155q290 0 284 -148q-4 -101 -129 -131q46 -15 88 -44
q95 -67 95 -163q0 -132 -131 -191z" />
    <glyph glyph-name="agrave" unicode="&#xe0;" horiz-adv-x="745" 
d="M435 509q-17 -8 -37 3l-153 118q-12 8 -12 19q0 12 15 19q19 12 38 -3l152 -118q11 -8 11 -18q0 -13 -14 -20zM630 0v99q-88 -110 -279 -110q-133 0 -223 60q-104 70 -104 198q0 129 104 199q90 61 228 61q191 0 274 -106v104h59v-505h-59zM350 460q-113 0 -187 -52
q-82 -58 -82 -161q0 -104 82 -160q73 -51 187 -51q110 0 188 49q92 58 92 162q0 112 -88 167q-73 46 -192 46z" />
    <glyph glyph-name="aacute" unicode="&#xe1;" horiz-adv-x="745" 
d="M300 512q-11 -6 -21 -6q-14 0 -23 9q-6 6 -6 13q0 11 11 19l153 118q10 8 22 8q29 0 29 -25q0 -10 -11 -18zM646 0v99q-88 -110 -279 -110q-133 0 -223 60q-104 70 -104 198q0 130 104 200q91 60 229 60q190 0 273 -106v104h59v-505h-59zM366 460q-113 0 -187 -52
q-82 -58 -82 -161q0 -104 82 -160q73 -51 187 -51q110 0 188 49q92 58 92 162q0 112 -88 167q-73 46 -192 46z" />
    <glyph glyph-name="acircumflex" unicode="&#xe2;" horiz-adv-x="745" 
d="M465 517l-110 104l-110 -104h-70l159 157h41l166 -157h-76zM646 0v99q-88 -110 -279 -110q-133 0 -223 60q-104 70 -104 198q0 130 104 200q91 60 229 60q190 0 273 -106v104h59v-505h-59zM366 460q-113 0 -187 -52q-82 -58 -82 -161q0 -104 82 -160q73 -51 187 -51
q110 0 188 49q92 58 92 162q0 112 -88 167q-73 46 -192 46z" />
    <glyph glyph-name="atilde" unicode="&#xe3;" horiz-adv-x="745" 
d="M450 526q-30 0 -99 28q-64 25 -84 25t-36 -11.5t-21 -49.5l-50 25q0 42 43 65q34 18 66 18q28 0 97 -27q64 -25 84 -25q33 0 47 22q7 11 10 38l53 -22q-8 -46 -41.5 -66t-68.5 -20zM646 0v99q-88 -110 -279 -110q-133 0 -223 60q-104 70 -104 197q0 130 104 199
q91 61 229 61q190 0 273 -106v104h59v-504h-59zM366 459q-113 0 -187 -52q-82 -58 -82 -161t82 -160q73 -50 187 -50q110 0 188 49q92 57 92 161q0 112 -88 167q-73 46 -192 46z" />
    <glyph glyph-name="adieresis" unicode="&#xe4;" horiz-adv-x="745" 
d="M452 522q-30 0 -30 25v53q0 24 30 24q29 0 29 -24v-53q0 -25 -29 -25zM296 522q-29 0 -29 25v53q0 24 29 24t29 -24v-53q0 -25 -29 -25zM646 -1v100q-88 -110 -279 -110q-133 0 -223 60q-104 70 -104 197q0 129 104 199q91 61 229 61q190 0 273 -107v105h59v-505h-59z
M366 459q-113 0 -187 -53q-82 -58 -82 -160q0 -103 82 -160q73 -50 187 -50q110 0 188 49q92 57 92 161q0 112 -88 167q-73 46 -192 46z" />
    <glyph glyph-name="aring" unicode="&#xe5;" horiz-adv-x="745" 
d="M364 531q-43 0 -78 19q-43 23 -43 65q0 43 43 66q35 19 78 19q44 0 77 -19q42 -23 42 -66q0 -41 -40 -65q-34 -19 -79 -19zM646 0v100q-88 -111 -279 -111q-134 0 -223 61q-104 70 -104 197q0 130 104 200q91 61 229 61q190 0 273 -107v105h59v-506h-59zM364 651
q-23 0 -40 -9q-20 -10 -20 -27q0 -16 20 -26q17 -9 40 -9t41.5 9.5t18.5 25.5t-18.5 26t-41.5 10zM366 461q-113 0 -187 -53q-82 -58 -82 -161t82 -160q73 -51 187 -51q110 0 188 49q92 58 92 162q0 112 -88 168q-73 46 -192 46z" />
    <glyph glyph-name="ae" unicode="&#xe6;" horiz-adv-x="1328" 
d="M689 226v-9q0 -181 275 -181q201 0 262 119h62q-44 -99 -147 -137q-79 -29 -180 -29q-189 0 -272 92v-82h-59v99q-88 -109 -279 -109q-133 0 -222 59q-105 69 -105 195q0 128 104 197q90 60 228 60q191 0 274 -105v103h59v-104q97 106 278 106q134 0 224 -51
q112 -63 112 -187v-35zM967 453q-104 0 -185 -43q-93 -51 -93 -137v0h549q-7 93 -96 141q-72 39 -175 39zM350 453q-113 0 -187 -51q-82 -57 -82 -159t82 -158q73 -49 187 -49q110 0 188 47q92 57 92 160q0 111 -89 165q-73 45 -191 45z" />
    <glyph glyph-name="ccedilla" unicode="&#xe7;" 
d="M548 14q-78 -32 -178 -32q-138 0 -229 55q-111 67 -111 195q0 138 113 208q94 60 242 60q92 0 163 -29q91 -37 123 -126l-54 -20q-45 128 -235 128q-124 0 -203 -51q-91 -58 -91 -170q0 -106 92 -160q75 -43 189 -43q86 0 152 28q80 33 102 112l56 -18q-32 -97 -131 -137
zM377 -174q-51 0 -147 20l30 44q71 -17 113 -17q94 0 94 34q0 20 -67 24q-40 3 -67 -8v28l13 79h57l-2 -52h4q126 1 126 -74q0 -78 -154 -78z" />
    <glyph glyph-name="egrave" unicode="&#xe8;" 
d="M448 509q-18 -8 -37 3l-155 118q-9 9 -9 19q0 24 29 24q12 0 22 -8l154 -118q11 -8 11 -18q0 -12 -15 -20zM78 229q12 -193 276 -193q201 0 262 121h61q-43 -102 -145 -139q-77 -29 -181 -29q-144 0 -230 56q-101 67 -101 202q0 129 109 200q93 60 229 60q135 0 225 -52
q111 -64 111 -189v-36zM358 460q-107 0 -181 -42q-85 -49 -98 -141h550q-7 95 -95 143q-72 40 -176 40z" />
    <glyph glyph-name="eacute" unicode="&#xe9;" 
d="M454 633l-157 -119q-11 -6 -20 -6q-30 0 -30 23q0 10 11 18l153 118q17 13 40 3q11 -8 11 -19q0 -8 -8 -18zM78 229q12 -193 276 -193q201 0 262 121h61q-43 -102 -145 -139q-77 -29 -181 -29q-144 0 -230 56q-101 67 -101 202q0 129 109 200q93 60 229 60q135 0 225 -52
q111 -64 111 -189v-36zM358 460q-107 0 -181 -42q-85 -49 -98 -141h550q-7 95 -95 143q-72 40 -176 40z" />
    <glyph glyph-name="ecircumflex" unicode="&#xea;" 
d="M462 517l-110 104l-110 -104h-70l161 157h40l164 -157h-75zM78 229q12 -193 276 -193q201 0 262 121h61q-43 -102 -145 -139q-77 -29 -181 -29q-144 0 -230 56q-101 67 -101 202q0 129 109 200q93 60 229 60q135 0 225 -51q111 -65 111 -190v-36zM358 460
q-107 0 -181 -42q-85 -49 -98 -141h550q-7 95 -95 143q-72 40 -176 40z" />
    <glyph glyph-name="edieresis" unicode="&#xeb;" 
d="M433 522q-28 0 -28 25v53q0 24 28 24q30 0 30 -24v-53q0 -25 -30 -25zM278 522q-30 0 -30 25v53q0 24 30 24q29 0 29 -24v-53q0 -25 -29 -25zM78 229q12 -193 276 -193q201 0 262 120h61q-43 -101 -145 -138q-77 -29 -181 -29q-144 0 -230 56q-101 66 -101 201
q0 129 109 199q93 61 229 61q135 0 225 -52q111 -64 111 -189v-35zM358 459q-107 0 -181 -43q-85 -48 -98 -140h550q-7 94 -95 143q-72 40 -176 40z" />
    <glyph glyph-name="igrave" unicode="&#xec;" horiz-adv-x="184" 
d="M185 509q-18 -8 -37 4l-153 117q-11 8 -11 19t13 19q20 11 38 -3l154 -118q11 -8 11 -17q0 -13 -15 -21zM63 0v496h59v-496h-59z" />
    <glyph glyph-name="iacute" unicode="&#xed;" horiz-adv-x="184" 
d="M36 509q-9 -7 -21 -7q-31 0 -31 23q0 10 11 18l154 118q10 8 22 8q29 0 29 -24q0 -10 -11 -18zM63 0v496h59v-496h-59z" />
    <glyph glyph-name="icircumflex" unicode="&#xee;" horiz-adv-x="184" 
d="M195 517l-102 103l-105 -103h-69l152 157h42l156 -157h-74zM63 0v496h59v-496h-59z" />
    <glyph glyph-name="idieresis" unicode="&#xef;" horiz-adv-x="184" 
d="M174 522q-28 0 -28 26v52q0 24 28 24q30 0 30 -24v-52q0 -26 -30 -26zM19 522q-30 0 -30 26v52q0 24 30 24q28 0 28 -24v-52q0 -26 -28 -26zM63 0v494h59v-494h-59z" />
    <glyph glyph-name="eth" unicode="&#xf0;" horiz-adv-x="761" 
d="M630 0v99q-88 -110 -279 -110q-133 0 -223 60q-104 70 -104 198q0 129 104 200q90 60 228 60q191 0 274 -106v160h-448v48h448v69h59v-678h-59zM350 460q-113 0 -187 -52q-82 -58 -82 -161q0 -104 82 -160q73 -51 187 -51q110 0 188 49q92 58 92 162q0 112 -88 167
q-73 46 -192 46z" />
    <glyph glyph-name="ntilde" unicode="&#xf1;" 
d="M517 545q-31 -18 -66 -18q-30 0 -99 27q-64 25 -85 25q-19 0 -35 -11.5t-18 -49.5l-54 24q0 43 43 66q33 18 66 18q29 0 98 -27q63 -25 84 -25q32 0 46 22q7 11 10 38l52 -22q-5 -45 -42 -67zM584 0v323q0 72 -71 108q-56 28 -142 28q-102 0 -170 -42q-79 -49 -79 -140
v-277h-59v494h59v-77q73 89 248 89q105 0 177 -34q96 -45 96 -140v-332h-59z" />
    <glyph glyph-name="ograve" unicode="&#xf2;" horiz-adv-x="736" 
d="M462 509q-17 -8 -37 3l-153 118q-12 8 -12 19q0 12 15 19q19 12 38 -3l152 -118q11 -8 11 -18q0 -13 -14 -20zM600 47q-93 -58 -233 -58q-139 0 -233 59q-110 69 -110 200t113 201q94 58 233 58q140 0 232 -59q111 -70 111 -200q0 -131 -113 -201zM369 460
q-116 0 -194 -47q-93 -56 -93 -165q0 -108 94 -165q78 -47 193 -47t192 47q94 57 94 165q0 109 -92 166q-77 46 -194 46z" />
    <glyph glyph-name="oacute" unicode="&#xf3;" horiz-adv-x="736" 
d="M311 509q-9 -7 -20 -7q-13 0 -22 7.5t-9 16.5q0 10 10 17l154 118q10 8 22 8q30 0 30 -24q0 -10 -11 -18zM600 47q-93 -58 -233 -58q-139 0 -233 59q-110 69 -110 200t113 200q94 59 233 59q140 0 232 -59q111 -70 111 -200q0 -131 -113 -201zM369 460q-116 0 -194 -47
q-93 -56 -93 -165q0 -108 94 -165q78 -47 193 -47t192 47q94 57 94 165q0 109 -92 166q-77 46 -194 46z" />
    <glyph glyph-name="ocircumflex" unicode="&#xf4;" horiz-adv-x="736" 
d="M477 517l-110 104l-111 -104h-71l161 157h41l166 -157h-76zM600 47q-93 -58 -233 -58q-139 0 -233 59q-110 69 -110 200t113 201q94 58 233 58q140 0 232 -59q111 -70 111 -200q0 -131 -113 -201zM369 460q-116 0 -194 -47q-93 -56 -93 -165q0 -108 94 -165
q78 -47 193 -47t192 47q94 57 94 165q0 110 -92 166q-77 46 -194 46z" />
    <glyph glyph-name="otilde" unicode="&#xf5;" horiz-adv-x="736" 
d="M526 545q-30 -19 -66 -19q-29 0 -99 28q-65 25 -83 25q-20 0 -36.5 -11.5t-19.5 -49.5l-52 24q0 45 42 67q32 17 67 17q29 0 97 -27q63 -25 84 -25q48 0 60 60l48 -22q-6 -45 -42 -67zM600 47q-93 -58 -233 -58q-139 0 -233 59q-110 69 -110 199q0 131 113 200
q94 59 233 59q140 0 232 -59q111 -70 111 -200t-113 -200zM369 459q-116 0 -194 -47q-93 -56 -93 -165q0 -108 94 -164q78 -47 193 -47q114 0 192 47q94 57 94 164q0 110 -93 166q-76 46 -193 46z" />
    <glyph glyph-name="odieresis" unicode="&#xf6;" horiz-adv-x="736" 
d="M447 522q-30 0 -30 25v53q0 24 30 24q28 0 28 -24v-53q0 -25 -28 -25zM290 522q-28 0 -28 25v53q0 24 28 24q30 0 30 -24v-53q0 -25 -30 -25zM600 47q-93 -58 -233 -58q-139 0 -233 59q-110 69 -110 199q0 131 113 200q94 59 233 59q140 0 232 -59q111 -70 111 -200
q0 -131 -113 -200zM369 459q-116 0 -194 -47q-93 -56 -93 -165q0 -108 94 -164q78 -47 193 -47q114 0 192 47q94 57 94 164q0 109 -93 165q-76 47 -193 47z" />
    <glyph glyph-name="divide" unicode="&#xf7;" horiz-adv-x="799" 
d="M400 291q-29 0 -29 24v60q0 23 29 23t29 -23v-60q0 -24 -29 -24zM52 217v46h674v-46h-674zM400 74q-29 0 -29 24v59q0 25 29 25t29 -25v-59q0 -24 -29 -24z" />
    <glyph glyph-name="oslash" unicode="&#xf8;" horiz-adv-x="736" 
d="M600 45q-93 -58 -233 -58q-76 0 -137 17l-34 -51h-65l48 69q-155 70 -155 222q0 131 113 200q94 58 233 58q70 0 127 -14l42 61h63l-52 -79q75 -31 118 -88q45 -60 45 -138q0 -130 -113 -199zM584 389q-29 24 -64 39l-261 -381q49 -13 110 -13q114 0 192 47q94 56 94 163
q0 87 -71 145zM369 455q-116 0 -193 -46q-94 -56 -94 -165q0 -120 125 -179l260 381q-45 9 -98 9z" />
    <glyph glyph-name="ugrave" unicode="&#xf9;" 
d="M448 505q-18 -8 -37 4l-153 118q-11 8 -11 17q0 12 14 20q17 12 37 -3l154 -118q11 -8 11 -18q0 -12 -15 -20zM584 0v78q-74 -89 -247 -89q-110 0 -181 37q-93 47 -93 148v322h59v-321q0 -76 70 -111q55 -28 145 -28q110 0 174 43q73 49 73 148v269h59v-496h-59z" />
    <glyph glyph-name="uacute" unicode="&#xfa;" 
d="M299 513q-9 -7 -21 -7q-31 0 -31 24q0 9 11 17l153 118q10 8 22 8q30 0 30 -24q0 -11 -11 -19zM584 0v78q-74 -89 -247 -89q-110 0 -181 37q-93 47 -93 148v322h59v-321q0 -76 70 -111q55 -28 145 -28q110 0 174 43q73 49 73 149v268h59v-496h-59z" />
    <glyph glyph-name="ucircumflex" unicode="&#xfb;" 
d="M462 517l-110 104l-110 -104h-70l161 157h40l164 -157h-75zM584 0v78q-74 -89 -247 -89q-110 0 -181 37q-93 47 -93 148v322h59v-321q0 -76 70 -111q55 -28 145 -28q110 0 174 43q73 49 73 149v268h59v-496h-59z" />
    <glyph glyph-name="udieresis" unicode="&#xfc;" 
d="M432 522q-29 0 -29 25v53q0 24 29 24q30 0 30 -24v-53q0 -25 -30 -25zM277 522q-30 0 -30 25v53q0 24 30 24q28 0 28 -24v-53q0 -25 -28 -25zM584 -1v79q-74 -89 -247 -89q-110 0 -181 36q-93 48 -93 148v321h59v-320q0 -75 70 -110q55 -28 145 -28q110 0 174 43
q73 49 73 148v267h59v-495h-59z" />
    <glyph glyph-name="yacute" unicode="&#xfd;" horiz-adv-x="683" 
d="M442 632l-157 -119q-11 -6 -20 -6q-13 0 -23 7t-10 17t14 18l153 118q17 13 40 3q11 -8 11 -19q0 -8 -8 -19zM325 -179q-106 0 -179 28q-106 41 -113 150h57q15 -130 238 -130q256 0 256 157v47q-74 -90 -247 -90q-110 0 -181 37q-93 48 -93 150v324h59v-323
q0 -77 70 -112q55 -28 145 -28q110 0 174 43q73 50 73 150v270h59v-469q0 -204 -318 -204z" />
    <glyph glyph-name="thorn" unicode="&#xfe;" horiz-adv-x="761" 
d="M624 43q-87 -59 -228 -59q-190 0 -274 107v-259h-59v846h59v-279q83 107 272 107q140 0 228 -58q103 -70 103 -202q0 -133 -101 -203zM402 459q-112 0 -189 -48q-91 -57 -91 -163q0 -113 83 -169q72 -48 196 -48q115 0 187 51q80 57 80 163q0 107 -82 164q-72 50 -184 50
z" />
    <glyph glyph-name="ydieresis" unicode="&#xff;" horiz-adv-x="688" 
d="M423 521q-29 0 -29 26v53q0 24 29 24q27 0 29 -23v-54q0 -26 -29 -26zM267 521q-30 0 -30 26v53q0 24 30 24q24 0 29 -23v-54q0 -26 -29 -26zM325 -179q-106 0 -179 28q-106 41 -113 150h57q15 -131 238 -131q256 0 256 157v48q-74 -90 -247 -90q-110 0 -181 37
q-93 48 -93 149v324h59v-323q0 -76 70 -112q55 -28 145 -28q110 0 174 44q73 49 73 149v270h59v-469q0 -203 -318 -203z" />
    <glyph glyph-name="dotlessi" unicode="&#x131;" horiz-adv-x="184" 
d="M63 0v488h59v-488h-59z" />
    <glyph glyph-name="OE" unicode="&#x152;" horiz-adv-x="1363" 
d="M635 0q-56 -8 -118 -8q-194 0 -323 75q-158 92 -158 270q0 180 157 272q127 74 324 74q45 0 89 -5h713v-47h-529q187 -84 205 -255h282v-46h-279q-4 -192 -200 -283h529v-47h-692zM827 553q-63 46 -151 66v-243h261q-13 108 -110 177zM676 330v-274q115 28 184 93
q76 73 79 181h-263zM619 629q-48 7 -102 7q-176 0 -289 -67q-133 -78 -133 -232t133 -232q113 -67 289 -67q54 0 102 8v583z" />
    <glyph glyph-name="oe" unicode="&#x153;" horiz-adv-x="1420" 
d="M749 226q12 -190 276 -190q201 0 262 119h62q-44 -99 -147 -137q-79 -29 -180 -29q-239 0 -307 142q-24 -41 -67 -72q-95 -70 -248 -70q-138 0 -231 57q-112 68 -112 198q0 129 112 198q93 58 233 58q103 0 182 -32q94 -38 135 -116q24 43 68 76q94 72 240 72
q134 0 225 -51q112 -63 112 -187v-35zM1027 453q-100 0 -176 -41q-90 -48 -102 -139h550q-7 93 -96 141q-73 39 -176 39zM401 453q-115 0 -192 -46q-94 -55 -94 -163q0 -104 90 -160q78 -48 196 -48t197 49q89 57 89 159q0 109 -93 164q-76 45 -193 45z" />
    <glyph glyph-name="Scaron" unicode="&#x160;" horiz-adv-x="867" 
d="M449 714h-41l-161 160h71l110 -106l110 106h74zM445 -7q-159 0 -259 37q-152 57 -152 191v25h58v-21q0 -184 355 -184q111 0 191 23q119 34 119 113q0 54 -46 83q-31 19 -101 34q-33 7 -192 33q-77 12 -120 20q-235 44 -235 169q0 175 357 175q373 0 377 -219h-58
q-8 111 -114 147q-70 25 -205 25q-298 0 -298 -128q0 -62 81 -94q55 -21 189 -39q244 -33 325 -69q99 -44 99 -140q0 -102 -144 -149q-97 -32 -227 -32z" />
    <glyph glyph-name="scaron" unicode="&#x161;" horiz-adv-x="656" 
d="M343 526h-40l-161 158h71l110 -105l110 105h75zM336 -13q-296 0 -296 203h61q0 -79 56.5 -116.5t179.5 -37.5q204 0 204 95q0 60 -138 84q-64 8 -129 15q-92 12 -140 37q-65 34 -65 97q0 77 91 116q67 29 153 29q285 0 285 -181h-62q0 67 -50 99q-53 32 -166 32
q-67 0 -120 -19q-70 -26 -70 -76q0 -60 135 -79l143 -19q194 -26 194 -135q0 -83 -98 -119q-67 -25 -168 -25z" />
    <glyph glyph-name="Ydieresis" unicode="&#x178;" horiz-adv-x="895" 
d="M532 711q-29 0 -29 26v53q0 24 29 24q25 0 30 -23v-54q0 -26 -30 -26zM377 711q-30 0 -30 26v53q0 24 30 24q26 0 28 -24v-53q0 -26 -28 -26zM478 329v-329h-58v329l-437 354h83l382 -309l384 309h80z" />
    <glyph glyph-name="florin" unicode="&#x192;" horiz-adv-x="788" 
d="M805 619q-271 0 -321 -148l-9 -28h148l-17 -48h-148l-124 -377q-61 -186 -393 -186l16 47q271 0 315 133l125 383h-99l20 48h96q5 14 13 37q64 186 392 186z" />
    <glyph glyph-name="circumflex" unicode="&#x2c6;" horiz-adv-x="350" 
d="M283 540l-110 88l-110 -88h-72l161 134h40l167 -134h-76z" />
    <glyph glyph-name="caron" unicode="&#x2c7;" horiz-adv-x="184" 
d="M105 549h-41l-159 135h70l110 -89l110 89h77z" />
    <glyph glyph-name="macron" unicode="&#xaf;" horiz-adv-x="423" 
d="M32 597v19h360v-19h-360z" />
    <glyph glyph-name="macron" unicode="&#x2c9;" horiz-adv-x="423" 
d="M32 597v19h360v-19h-360z" />
    <glyph glyph-name="ring" unicode="&#x2da;" horiz-adv-x="184" 
d="M86 569q-43 0 -78 16q-43 20 -43 57t43 57q35 16 78 16t78 -16q43 -20 43 -57t-44 -57q-35 -16 -77 -16zM86 672q-60 0 -60 -30t60 -30q61 0 61 30q0 13 -18.5 21.5t-42.5 8.5z" />
    <glyph glyph-name="tilde" unicode="&#x2dc;" horiz-adv-x="494" 
d="M337 551q-28 0 -97 20q-64 19 -85 19q-19 0 -35 -8.5t-18 -36.5l-54 18q0 33 43 50q34 14 66 14q28 0 97 -20q64 -19 83 -19q21 0 38 8.5t20 35.5l53 -16q-9 -35 -42 -50t-69 -15z" />
    <glyph glyph-name="mu" unicode="&#x3bc;" horiz-adv-x="788" 
 />
    <glyph glyph-name="endash" unicode="&#x2013;" horiz-adv-x="668" 
d="M-15 254v20h696v-20h-696z" />
    <glyph glyph-name="emdash" unicode="&#x2014;" horiz-adv-x="1207" 
d="M-15 254v20h1234v-20h-1234z" />
    <glyph glyph-name="quoteleft" unicode="&#x2018;" horiz-adv-x="236" 
d="M121 516q-7 -16 -28 -16q-29 0 -29 21q0 5 2 9l56 132q7 15 29 15q30 0 30 -21q0 -4 -2 -8z" />
    <glyph glyph-name="quoteright" unicode="&#x2019;" horiz-adv-x="236" 
d="M122 516q-7 -15 -29 -15q-29 0 -29 20q0 4 2 9l58 132q7 15 27 15q30 0 30 -21q0 -4 -2 -8z" />
    <glyph glyph-name="quotesinglbase" unicode="&#x201a;" horiz-adv-x="394" 
d="M173 -75q-7 -16 -31 -16q-27 0 -27 21q0 4 2 9l58 132q7 15 27 15q30 0 30 -21q0 -4 -2 -8z" />
    <glyph glyph-name="quotedblleft" unicode="&#x201c;" horiz-adv-x="360" 
d="M262 516q-7 -16 -28 -16q-29 0 -29 22q0 4 2 8l57 132q7 15 29 15q29 0 29 -20q0 -4 -2 -9zM121 516q-7 -16 -28 -16q-29 0 -29 21q0 5 2 9l56 132q7 15 29 15q30 0 30 -21q0 -4 -2 -8z" />
    <glyph glyph-name="quotedblright" unicode="&#x201d;" horiz-adv-x="373" 
d="M264 516q-7 -15 -29 -15q-30 0 -30 20q0 5 2 9l58 132q7 15 28 15q29 0 29 -21q0 -4 -2 -8zM122 516q-7 -15 -29 -15q-29 0 -29 20q0 4 2 9l58 132q7 15 27 15q30 0 30 -21q0 -4 -2 -8z" />
    <glyph glyph-name="quotedblbase" unicode="&#x201e;" horiz-adv-x="474" 
d="M315 -75q-7 -15 -30 -15q-29 0 -29 23q15 27 33 68l28 70q7 15 27 15q30 0 30 -21q0 -4 -2 -8zM173 -75q-7 -16 -31 -16q-27 0 -27 21q0 4 2 9l58 132q7 15 27 15q30 0 30 -21q0 -4 -2 -8z" />
    <glyph glyph-name="dagger" unicode="&#x2020;" horiz-adv-x="466" 
d="M251 449v-506h-58v506h-158v49h158v123h58v-123h160v-49h-160z" />
    <glyph glyph-name="daggerdbl" unicode="&#x2021;" horiz-adv-x="455" 
d="M258 41v-98h-58v98h-160v48h160v360h-160v49h160v123h58v-123h158v-49h-158v-360h158v-48h-158z" />
    <glyph glyph-name="bullet" unicode="&#x2022;" horiz-adv-x="394" 
d="M163 250q-48 0 -79 8q-25 7 -25 14v106q0 7 25 14q31 8 79 8t79 -8q25 -7 25 -14v-106q0 -7 -25 -14q-31 -8 -79 -8z" />
    <glyph glyph-name="ellipsis" unicode="&#x2026;" horiz-adv-x="861" 
d="M707 -2q-29 0 -29 20v47q0 20 29 20t29 -20v-47q0 -20 -29 -20zM452 -2q-30 0 -30 20v47q0 20 30 20q29 0 29 -20v-47q0 -20 -29 -20zM197 -2q-30 0 -30 20v47q0 20 30 20q29 0 29 -20v-47q0 -20 -29 -20z" />
    <glyph glyph-name="perthousand" unicode="&#x2030;" horiz-adv-x="1366" 
d="M1142 -19q-194 0 -194 180q0 185 195 185q196 0 196 -185q0 -180 -197 -180zM732 -19q-196 0 -196 180q0 185 197 185q195 0 195 -185q0 -180 -196 -180zM195 -1h-75l673 679h74zM232 294q-194 0 -194 180q0 184 196 184q195 0 195 -184q0 -180 -197 -180zM1142 299
q-135 0 -135 -138q0 -133 136 -133q137 0 137 133q0 138 -138 138zM732 299q-137 0 -137 -138q0 -133 138 -133q135 0 135 133q0 138 -136 138zM232 611q-135 0 -135 -137q0 -133 137 -133q136 0 136 133q0 137 -138 137z" />
    <glyph glyph-name="guilsinglleft" unicode="&#x2039;" horiz-adv-x="397" 
d="M81 257v33l231 111v-50l-156 -77l156 -78v-47z" />
    <glyph glyph-name="guilsinglright" unicode="&#x203a;" horiz-adv-x="397" 
d="M81 149v47l156 78l-156 77v50l231 -111v-33z" />
    <glyph glyph-name="trademark" unicode="&#x2122;" horiz-adv-x="1065" 
d="M945 347v254l-189 -254h-47l-198 258q2 -85 2 -258h-64v290h-129v-290h-64v290h-199v47h467l208 -271l205 271h73v-337h-65z" />
    <glyph glyph-name="minus" unicode="&#xad;" horiz-adv-x="799" 
d="M52 231v19h674v-19h-674z" />
    <glyph glyph-name="minus" unicode="&#x2212;" horiz-adv-x="799" 
d="M52 231v19h674v-19h-674z" />
    <glyph glyph-name="periodcentered" unicode="&#xb7;" horiz-adv-x="282" 
d="M161 280q-30 0 -30 21v46q0 20 30 20q28 0 28 -20v-46q0 -21 -28 -21z" />
    <glyph glyph-name="periodcentered" unicode="&#x2219;" horiz-adv-x="282" 
d="M161 280q-30 0 -30 21v46q0 20 30 20q28 0 28 -20v-46q0 -21 -28 -21z" />
    <glyph glyph-name="glyph221" horiz-adv-x="478" 
 />
    <glyph glyph-name="glyph222" horiz-adv-x="478" 
 />
    <glyph glyph-name="glyph221" horiz-adv-x="478" 
 />
    <glyph glyph-name="glyph222" horiz-adv-x="478" 
 />
    <glyph glyph-name="nonbreakingspace" unicode="&#xa0;" 
 />
    <glyph glyph-name="ch333" horiz-adv-x="478" 
 />
    <glyph glyph-name="glyph223" horiz-adv-x="478" 
 />
    <glyph glyph-name="ch335" horiz-adv-x="394" 
 />
    <glyph glyph-name="ch334" horiz-adv-x="394" 
 />
    <glyph glyph-name="ch337" horiz-adv-x="394" 
 />
    <glyph glyph-name="ch336" horiz-adv-x="394" 
 />
    <glyph glyph-name="ch339" horiz-adv-x="394" 
 />
    <glyph glyph-name="ch338" horiz-adv-x="394" 
 />
    <glyph glyph-name="glyph224" horiz-adv-x="394" 
 />
    <glyph glyph-name="ch340" horiz-adv-x="394" 
 />
    <glyph glyph-name="ch343" horiz-adv-x="394" 
 />
    <glyph glyph-name="glyph225" horiz-adv-x="394" 
 />
    <glyph glyph-name="glyph226" horiz-adv-x="394" 
 />
    <glyph glyph-name="ch344" horiz-adv-x="394" 
 />
    <glyph glyph-name="ch347" horiz-adv-x="394" 
 />
    <glyph glyph-name="ch342" horiz-adv-x="394" 
 />
    <glyph glyph-name="ch263" horiz-adv-x="394" 
 />
    <glyph glyph-name="glyph103" horiz-adv-x="567" 
d="M726 435q0 58 -53 82q-46 22 -107 22q-60 0 -106 -21q-56 -26 -56 -72q0 -66 -79 -104q-63 -31 -137 -31q-76 0 -138 29q-81 39 -81 120h57q0 -58 54 -83q46 -22 108 -22q59 0 105 21q55 25 55 70q0 72 93 112q56 25 125 25q76 0 137 -29q79 -39 79 -121z" />
    <glyph glyph-name="glyph214" horiz-adv-x="472" 
d="M334 382v-126h-64v126h-371l232 276h73l-192 -228h258v228l64 -1v-227h125v-48h-125z" />
    <glyph glyph-name=".null" horiz-adv-x="0" 
 />
  </font>
</defs>
</svg>
